<?xml version="1.0" encoding="UTF-8" standalone="no"?>
<svg
   xmlns:dc="http://purl.org/dc/elements/1.1/"
   xmlns:cc="http://creativecommons.org/ns#"
   xmlns:rdf="http://www.w3.org/1999/02/22-rdf-syntax-ns#"
   xmlns:svg="http://www.w3.org/2000/svg"
   xmlns="http://www.w3.org/2000/svg"
   id="svg8"
   version="1.1"
   viewBox="0 0 32.924122 37.335521"
   height="141.11063"
   width="124.43763">
  <defs
     id="defs2" />
  <metadata
     id="metadata5">
    <rdf:RDF>
      <cc:Work
         rdf:about="">
        <dc:format>image/svg+xml</dc:format>
        <dc:type
           rdf:resource="http://purl.org/dc/dcmitype/StillImage" />
        <dc:title></dc:title>
      </cc:Work>
    </rdf:RDF>
  </metadata>
  <g
     transform="translate(120.03641,-25.06987)"
     id="layer1">
    <path
       style="opacity:1;vector-effect:none;fill:#c0c0c0;fill-opacity:1;stroke:#333333;stroke-width:0.04728015;stroke-linecap:round;stroke-linejoin:round;stroke-miterlimit:4;stroke-dasharray:none;stroke-dashoffset:0;stroke-opacity:0.07042254;paint-order:fill markers stroke"
       d="m -102.9538,25.093544 c -2.94535,-0.0024 -6.13708,0.123938 -7.52603,0.360755 -2.68192,0.45727 -4.59768,1.469405 -5.78689,3.057359 -1.49141,1.991482 -2.25061,4.282702 -2.95486,8.916737 -0.57502,3.783796 -0.78656,6.607351 -0.79108,10.559232 -0.005,4.639098 0.158,5.707609 1.05195,6.879629 0.60576,0.794195 1.98256,1.49879 3.54063,1.812098 0.44784,0.09006 0.81432,0.204243 0.81432,0.253639 0,0.04939 -0.16019,0.267168 -0.35599,0.484036 -1.05476,1.168297 -3.95171,4.705668 -3.95171,4.825283 0,0.111449 0.43866,0.139439 2.18302,0.139439 h 2.18301 l 1.61479,-1.944303 1.61479,-1.944457 7.73073,0.02693 7.73089,0.02694 1.579386,1.891205 1.579396,1.891206 2.179167,0.02832 c 1.848085,0.02409 2.179312,0.0053 2.179312,-0.124048 0,-0.08391 -0.862899,-1.178792 -1.917517,-2.432957 -2.424477,-2.883245 -2.424462,-2.883168 -2.362165,-2.945468 0.0286,-0.02863 0.565957,-0.16777 1.194005,-0.309198 2.017529,-0.454318 2.941691,-1.09829 3.601119,-2.509603 0.652447,-1.396388 0.773722,-2.747525 0.638248,-7.110028 -0.141633,-4.560617 -0.429625,-7.657425 -1.005477,-10.811177 -0.575192,-3.150135 -1.107493,-4.885439 -1.946768,-6.347264 -1.52974,-2.6645 -3.399218,-3.789854 -7.355197,-4.427282 -1.028447,-0.165712 -3.170229,-0.245253 -5.461079,-0.247019 z m 0.68135,2.214102 c 2.631485,0.0034 4.041954,0.140082 5.847538,0.511277 1.334086,0.274267 1.949359,0.587507 2.782473,1.416251 1.665402,1.656666 2.548146,4.167047 3.10276,8.823623 0.248529,2.08665 0.231619,3.302642 -0.05602,4.013735 -0.32158,0.794994 0.04778,0.763285 -9.248108,0.793079 -4.507373,0.01444 -9.998893,0.0027 -12.203263,-0.02632 -3.81948,-0.05006 -4.01892,-0.06231 -4.24336,-0.262568 -0.41695,-0.372017 -0.52174,-0.801711 -0.52174,-2.139457 0,-2.868701 0.55991,-6.184035 1.385,-8.200611 0.48665,-1.189372 1.22265,-2.391079 1.87213,-3.056739 1.37485,-1.409148 3.1021,-1.755516 9.24579,-1.854421 0.75717,-0.01218 1.42953,-0.01861 2.0368,-0.01787 z m 9.014472,20.475594 c 0.88585,0.0024 1.590969,0.09085 1.917682,0.256868 0.698619,0.355022 0.842244,0.65279 0.883114,1.831797 0.0356,1.027661 0.0352,1.029293 -0.29889,1.409786 -0.508522,0.579182 -1.056161,0.698429 -3.207569,0.698429 -1.697705,0 -1.82485,-0.01391 -2.155462,-0.236707 -0.497878,-0.335518 -0.746972,-0.823392 -0.807093,-1.580467 -0.06383,-0.803715 0.102877,-1.456077 0.475886,-1.86212 0.264027,-0.287406 0.364567,-0.317094 1.445336,-0.426629 0.618873,-0.06272 1.215488,-0.09234 1.746996,-0.09096 z m -20.192102,0.05956 c 1.56795,-0.0021 2.01857,0.0304 2.33077,0.167912 0.56905,0.250658 0.76595,0.690722 0.76522,1.710519 -9.5e-4,1.363208 -0.0799,1.587455 -0.66226,1.882587 -0.78562,0.398106 -1.88262,0.54806 -3.01149,0.411857 -1.5828,-0.190973 -2.07617,-0.287928 -2.2258,-0.437559 -0.61806,-0.618064 -0.7462,-2.027677 -0.26964,-2.96609 0.37031,-0.729189 0.51762,-0.765947 3.0732,-0.769226 z"
       id="rect5168" />
  </g>
</svg>
