<svg width="278.3mm" height="148.6mm" version="1.1" viewBox="0 0 278.3 148.6" xmlns="http://www.w3.org/2000/svg"><g transform="translate(63.34 -61.91)"><g><path d="m177 197.5c-5.974-7.9e-4 -7.307-0.0248-8.586-0.1012-1.279-0.0763-17.33-30.13-17.33-30.13l20.71-0.5876 5.588 21.44z" fill="#171717"/><path d="m161.8 210.5c-6.291-0.1665-14.35 9e-3 -17.43-0.5803-3.083-0.5889-5.73-1.703-6.916-6.952s-1.008-9.192-0.2175-11.63c0.7906-2.439 19.49 2.057 19.49 2.057z" fill="#1b1b1b"/><path d="m161.8 172.3c-2.116-0.0381-3.489-0.0495-3.929-0.0307s0.5083 1.396 0.5083 1.396z" fill="#171717"/><path d="m161.8 172.3c5.544 0.2064 9.286 8.808 9.426 18.84 0.1396 10.03-3.148 19.08-9.126 19.29-5.978 0.2125-9.422-6.25-9.742-18.1-0.3203-11.85 2.405-20.26 9.442-20.03z" fill="#222"/><path d="m71.4 192.3c1.154 11.51 2.789 16.19 17.76 16.46 14.97 0.2693 15.97-7.862 17.25-14.93 1.273-7.067-35-1.526-35-1.526z" fill="#121212"/><path d="m79.18 194.5c-6.785-0.1975-9.123-0.2395-10.7-0.4189-1.581-0.1793-14.65-24.33-14.65-24.33l10.78-8.179 12.57 5.808z" fill="#171717"/><path d="m61.5 208.2c-11.81-0.2658-14.6-0.2804-16.27-3.484-1.591-3.041-2.982-10.38-2.602-13.73s11.17 0.9417 11.17 0.9417 10.12 12.64 7.708 16.27z" fill="#1b1b1b"/><path d="m60.16 171.1c8.277 0.1489 10.75 10.62 10.59 19.41s-3.495 18.13-9.722 17.71c-6.228-0.4187-10.2-7.032-9.988-18.68s3.402-18.64 9.122-18.44z" fill="#222"/><path d="m-32.02 186.8c2.415 11.9 6.01 19.16 18.94 18.81 12.93-0.3506 17.27-9.8 17.66-19.51 0.3939-9.715-36.61 0.7025-36.61 0.7025z" fill="#121212"/><path d="m104.8 66.1c22.87 1.338 52.61 2.931 60.67 3.605 6.856 0.5736 11.49 1.265 15.91 5.579 4.421 4.314 4.251 6.427 4.059 9.732-0.1918 3.304-59.89-2.665-59.89-2.665z" fill="#77e335"/><path d="m45.17 65.03c10.32-0.07894 15.55-0.05109 19.91 0.09357 4.364 0.1447 26.52 0.4771 32.8 0.8547 6.278 0.3776 11.84-0.1177 17.44 1.637s12.55 4.857 12.88 8.634c0.329 3.777 0.03 5.69-1.096 5.736-1.125 0.04591-86.23-5.521-86.23-5.521z" fill="#8de855"/><path d="m77.55 137.6 4.326 0.0778-0.4325-40.11 26.1 0.6138 1.715 41 4.19-0.3574-1.367-44.31-35.34-0.203z" fill="#555"/><path d="m79.66 137.6c0.01963-3.927-0.2347-24.69-0.2002-28.56 0.04991-5.609-0.0095-10.81 0.0079-11.78 0.01743-0.9687 0.3334-1.524 1.507-1.554 1.174-0.0299 24.31 0.7434 26.3 0.9831 1.985 0.2397 3.257 0.4156 3.378 2.152 0.1218 1.736-0.0444 39.32-0.0618 40.29-0.0174 0.9687-30.93-1.525-30.93-1.525z" fill="#171717"/><path d="m111.3 138.4c0.169-4.382 0.0775-37.66-0.0185-39.46-0.096-1.799 0.0485-2.695-2.901-2.877-2.95-0.1814-24.89-1.09-27.46-1.007-2.569 0.08216-2.216 0.4737-2.257 2.784-0.04156 2.31 0.3652 39.03 0.3283 41.09-0.03694 2.053-15.95 0.6118-15.95 0.6118l-26.98 8.501 0.2623-7.441 1.031-50.18 5.174-9.279 15.55-0.7474 150.3 8.995 5.367 1.38 0.2073 9.889-0.2739 43.77z" fill="#161616"/><path d="m38.9 145.6c5.555-1.931 20.85-7.8 23.23-8.574 2.374-0.7743 3.735-0.7498 5.823-0.7123 2.087 0.0376 140.7 6.071 143 6.112 2.269 0.0408 2.454-0.1374 2.488-2.043 0.0343-1.906-0.1803-45.48-0.151-47.12 0.0294-1.633 0.224-2.356-1.591-2.389-1.815-0.03265 1.581-2.105 2.333-1.002 0.7518 1.103 0.4841 3.368 0.5672 6.319 0.0831 2.952 0.501 22.61 0.3753 29.6-0.1257 6.988-0.1553 59.09-0.4847 62.27-0.3294 3.171 0.0157 4.176-7.823 5.941-7.839 1.765-20.48 2.99-25.66 3.26-5.179 0.27-6.095 0.7074-6.138-1.926-0.0434-2.633 0.6252-9.521-1.328-17s-4.543-9.886-8.169-10.13c-3.627-0.2468-9.35 5.006-9.953 13.35s-0.7306 10.34-0.76 11.97c-0.0294 1.633-0.1332 2.358-2.494 2.406-2.361 0.0483-70.33-1.447-73.14-1.497-2.813-0.0506-2.888-0.9598-2.845-3.319 0.04245-2.359 0.2589-9.346-1.161-16.18-1.42-6.834-5.539-9.995-8.8-10.42-3.26-0.4218-9.411 3.371-10.68 13.52s-1.184 10.33-1.303 11.87c-0.1185 1.541 0.1407 2.272-1.948 2.325-2.089 0.0532-16.74-0.7096-18.92-0.5219-2.182 0.1877 1.58-2.059 1.58-2.059s0.3943-7.711 0.3796-20.1c-0.0125-10.56-2.305-18.89 1.871-25.19 0.5904-0.8906-0.5772 2.055 1.748 1.246z" fill="#5ee121"/><path d="m-62.14 129.9c-0.07467 4.151-0.2259 8.894 0.2045 10.61 0.4304 1.721 1.143 2.393 6.018 2.547 4.874 0.1536 5.353-0.8264 1.667-1.09-3.686-0.264-6.463 0.2133-6.48-2.489s0.04741-2.635 1.167-2.615c1.12 0.0202 5.731 0.169 6.983 0.1915 1.252 0.0225 2.658-1.204-0.5669-1.46s-4.939-0.2207-5.993-0.2396c-1.054-0.019-1.312-0.3531-1.358-1.474-0.04574-1.121-0.07606-3.099 4.87e-4 -3.691 0.07656-0.5918-1.642-0.2932-1.642-0.2932z" fill="#282828"/><path d="m77.24 63.54c-8.142-0.1535-17.01-0.5653-19.53-0.5549-2.092 0.0086-3.296 0.08343-4.564 1.165-1.624 1.384-3.208 6.103-3.528 10.92-0.3205 4.813 27.08 2.826 27.08 2.826z" fill="#84f241"/><path d="m23.46 61.93c-8.863-0.09329-16.74 0.1619-18.73 0.2585-1.986 0.09658-2.067 0.889-3.495 3.046-1.428 2.157-2.027 6.05-2.192 7.833-0.1644 1.783 0.2074 3.179 0.6031 3.253 0.3956 0.07328 22.98-1.042 22.98-1.042z" fill="#8af34a"/><path d="m48.09 75.53c0.1929-3.371 0.4758-8.063 0.3685-9.454-0.1073-1.391-0.2914-2.188-2.932-2.501-2.641-0.3121-19.62-1.61-21.67-1.581-2.051 0.02926-2.247-0.1066-2.087 2.013 0.1603 2.12 0.3292 11.12 0.5098 12.12 0.1806 0.9956 25.81-0.5942 25.81-0.5942z" fill="#79e437"/><path d="m63.83 76.09c-21.49-1.748-60.36-2.174-78.22-0.479-18.12 1.72-22.06 2.918-26.54 5.158-4.482 2.24-7.135 5.971-7.896 7.747-0.7612 1.776 4.997-1.369 4.997-1.369l25.97-2.217 48.91 1.63 8.144 0.709 4.337-6.579z" fill="#99f461"/><path d="m102.6 80.14c0.5669-5.51 0.1392-7.74-1.485-11.04-1.625-3.304-1.74-3.448-4.607-3.919-3.09-0.5073-16.72-1.54-19.81-1.595-3.086-0.05552-4.217 0.3919-3.304 1.625 0.9134 1.233 2.637 4.258 2.275 8.742-0.3614 4.484-0.3664 4.765 0.7526 4.972 1.119 0.2072 26.17 1.219 26.17 1.219z" fill="#70e22a"/><path d="m40.19 88.99c1.115-3.029 3.562-6.366 10.53-6.771 6.968-0.405 44.12 1.523 54.92 2.181 10.79 0.6582 105 6.596 107 6.698 1.987 0.102 1.933-0.5619 0.7612-1.776-1.171-1.214-4.516-3.263-10.74-3.773-6.222-0.5097-25.88-2.189-33.36-2.655-7.483-0.4661-91.38-5.953-105.2-6.731-13.78-0.7782-20.13 2.849-23.64 5.036-3.508 2.187-3.555 4.764-3.664 5.606-0.1089 0.8418 3.338 2.185 3.338 2.185z" fill="#7ef138"/><path d="m-54.54 144.8c0.1788-5.238 1.103-23.73 1.33-26.94 0.2268-3.208 1.135-6.7 1.135-6.7l2.445-18.89 2.05-4.327 3.658-0.6515 14.78-1.049-1.743 13.84 8.662 0.2754 33.95 0.3118 2.582-13.94 20.79 0.7326 0.23 3.83-0.9546 53.06-20.71 8.056-28.72-1.533-32.41-2.675z" fill="#393939"/><path d="m67.96 136.4c-2.087-0.0376-3.449-0.0623-5.823 0.7119-2.374 0.7743-17.67 6.643-23.23 8.574-2.326 0.8083-1.158-2.137-1.748-1.247-0.158 0.2384-0.3041 0.4806-0.4441 0.7249l0.07657 4.144c6.549-2.338 22.45-7.923 24.63-8.692 2.559-0.902 4.589-1.21 7.475-1.158 2.886 0.0519 59.51 2.234 64.46 2.495 4.951 0.2614 77.25 3.243 78.58 3.224 1.336-0.0191 1.462 0.1556 1.529-1.136 0.0663-1.292 0.0239-1.336-2.128-1.504-0.0855-7e-3 -0.1677-0.016-0.2508-0.0247-0.064-8.8e-4 -0.1128 6.2e-4 -0.1804-6e-4 -2.269-0.0408-140.9-6.075-143-6.112z" fill="#f0f3f1"/><path d="m71.21 138c-4.824-0.1299-7.112 0.131-10.41 1.235-3.232 1.083-18.54 6.47-24.04 8.458l0.02816 1.538c6.549-2.338 22.45-7.923 24.63-8.692 2.559-0.902 4.589-1.21 7.475-1.158 2.886 0.0519 59.51 2.234 64.46 2.495 4.951 0.2614 77.25 3.243 78.58 3.224 1.336-0.0191 1.462 0.1556 1.529-1.136 2e-3 -0.0286 2e-3 -0.0485 3e-3 -0.0759-0.3825-0.0306-0.8002-0.0576-1.25-0.0757-1.938-0.078-75.1-3.075-81.34-3.36s-54.86-2.323-59.68-2.453z" fill="#8d8889"/><path d="m-54.8 151.8c0.14-3.083 0.1993-6.379 0.3005-7.307s0.1488-1.223 1.157-0.8668c1.008 0.3563 11.26 3.979 19.31 4.902 16.54 1.896 23.04 2.066 36.2 1.309 15.39-0.8858 24.77-4.396 27.41-5.066 2.642-0.6698 3.497-1.671 3.637-2.804 0.1399-1.133 0.1164-33.05 0.1723-36.16 0.0559-3.107 0.4691-12.78 0.7468-14.93 0.2777-2.147 0.2287-2.746-1.563-2.838-1.792-0.092-12.78-0.4691-14.99-0.5686-2.21-0.09952-2.51-0.04515-2.775 1.385-0.2648 1.43-1.35 8.583-1.501 10.31-0.1507 1.731-0.4591 2.263-1.535 2.244-1.076-0.0194-41.24-0.3234-42.61-0.3482-1.374-0.0247-1.487-0.3854-1.29-1.398 0.1975-1.013 2.081-9.347 2.166-10.78 0.08555-1.433-0.3317-1.5-1.827-1.467-1.495 0.03289-12.88 1.323-14.38 1.654-1.5 0.3317-2.516 3.601-3.769 10.15-1.254 6.553-2.37 18.79-2.671 22.19-0.1501 1.701-0.3947 3.607-0.8549 3.922-0.2142 0.1465-0.2038-0.025-0.0047-3.124 0.3833-5.964 1.248-19.08 2.182-24.45 0.9333-5.363 2.069-8.69 2.808-9.872 0.7386-1.182 1.829-1.999 3.868-2.381 2.039-0.3817 21.2-1.95 33.09-1.676 11.89 0.2737 41.1 1.246 44.86 1.584 3.192 0.2869 3.152 0.6218 3.954 0.8139 0.8493 0.2034 1.289 0.354 1.893 0.4939 0.8278 0.1917-1.317 5.089-1.477 7.39-1.171 16.77 1.446 33.81-1.189 50.42-0.4282 2.697-0.4618 5.878-2.353 7.848-5.184 5.402-13.87 5.965-21.23 7.329-8.65 1.603-17.58 1.182-26.38 0.9003-11.19-0.3584-22.91 0.5789-33.41-3.291-3.025-1.115-8.049-3.089-7.938-5.524z" fill="#151515"/><path d="m-50.56 190.8c1.372 0.0881 2.523 0.1299 3.294 0.1438 0.7711 0.0139 0.6476-0.168 0.6476-0.168l-3.831-2.034-0.7624-5.783 4.891 0.6797 5.567-1.675 2.577-2.278 6.013 1.757 13.67 1.556 16.19 0.0376 12.38-2.271 6.742 3.503 7.319-0.3755 0.2888 7.444s-0.311 0.8397 0.9562 0.8837c1.267 0.0439 3.106 0.0137 3.974-0.0764 0.8681-0.09-2.902-0.813-2.902-0.813l-1.36-8.985-2.533-0.1935-3.075 0.6799-7.942-3.789 2.158-5.311 1.791-9.831 1.387-6.641s1.19-0.844-0.6646-0.3027c-1.544 0.4794-2.35 0.568-3.941 0.7621-0.678 0.0935 2.065 0.9531 2.065 0.9531l-2.459 13.33-3.07 6.2-7.847 2.559-27.25-0.3109-11.54-3.376-3.277-10.58 0.7001-9.013s0.8153-0.4635-0.1984-0.6013c-1.014-0.1378-2.771-0.4981-3.692-0.7538-0.9219-0.2557 1.144 1.186 1.144 1.186l-0.01218 7.322 1.398 12.01 0.6741 2.403-6.989 3.042-4.464-1.037-0.564 4.772s1.302 4.674 2.546 4.971z" fill="#1f1f1f"/><path d="m36.58 188.7c0.07164 2.728 0.08674 2.608-1.722 2.843-1.809 0.2348-4.823 0.6483-6.627 0.6159-1.804-0.0325-2.613-0.7153-2.711-2.655-0.09876-1.94-0.3032-3.877-0.3472-5.148-0.04397-1.271-0.3091-1.877-2.39-1.38-2.081 0.4972-4.092 0.862-6.345-0.181-2.253-1.043-4.159-2.819-5.151-3.438-0.9913-0.6193-0.4556-0.6765 0.09085-1.335 0.5465-0.6584 1.512-2.312 2.546-7.773 1.034-5.461 1.346-7.928 1.583-9.996 0.2377-2.067-0.8174-2.807 0.3255-3.187 1.143-0.3804 7.455-2.086 11.3-4.022 3.844-1.936 8.287-3.727 8.536-10.14 0.249-6.411-0.245-23.53 0.08519-30.74 0.3302-7.212 0.1447-11.76 0.6965-16.43 0.5518-4.668 1.092-7.113 1.439-8.052 0.1738-0.4694 0.3227-0.9263 0.6844-0.964 0.4764-0.04966 0.8561-3.53e-4 1.28 0.04217 0.8491 0.08522 0.7335 0.6869 0.2752 2.522-0.4583 1.835-1.254 6.64-1.588 12.12-0.3348 5.476-0.8557 21.3-0.7913 25.6 0.06438 4.301-0.5731 22.77-0.5593 25.84 0.0332 7.43-0.9217 23.91-0.6079 35.86z" fill="#6aee1f"/><path d="m22.55 183.7c1.689-0.4703 1.894-0.2369 1.968 0.9458 0.07323 1.183 0.1252 3.823 0.293 5.007 0.1677 1.184 0.08218 1.643 0.7831 2.081 0.7009 0.4379 1.244 0.547-0.8811 0.4615-2.125-0.0854-21.63-0.5309-27.4-0.6346-5.763-0.1037-30.14-0.2588-34.91-0.4391-4.769-0.1803-8.929-0.1133-10.49-0.2358-1.557-0.1225-2.626-1.134-3.117-2.702-0.4916-1.568-0.5427-3.979-0.5257-4.924 0.017-0.9448 0.4919-1.078 1.713-0.678 1.221 0.4 3.814 0.7774 5.767-0.0853 1.953-0.8627 4.535-2.565 5.302-3.165 0.7669-0.6005 1.379-0.495 2.267 0.0408 0.8882 0.5358 4.835 1.788 10.02 2.401 5.187 0.6131 15.86 0.8524 19.98 0.6902 4.114-0.1623 8.135-0.4207 11.03-0.9357 2.892-0.515 4.227-1.2 4.899-1.755 0.6715-0.555 0.8613-0.5988 1.654-0.0174 0.7929 0.5813 4.259 3.476 6.259 4.037 1.761 0.4939 3.788 0.3534 5.389-0.0922z" fill="#72eb1f"/><path d="m12.77 157.7c1.687-0.127 2.115 0.1431 2.227 1.348 0.112 1.205-1.178 9.736-2.323 13.99s-2.118 6.311-7.821 7.545c-5.703 1.234-12.92 1.371-20.61 1.233-7.683-0.1382-15.89-0.6201-21.46-3.527-5.561-2.907-4.833-17.4-4.799-19.27 0.03365-1.871-0.09035-2.407 1.508-2.111 1.599 0.2961 17.46 2.586 26.55 2.683 9.087 0.0967 22.5-1.579 26.72-1.897z" fill="#69ec22"/><path d="m-44.39 156.1c1.841 0.4796 1.829 0.789 1.759 2.016-0.06934 1.227-0.3594 6.845 0.6749 12.39 1.034 5.547 2.294 6.456 2.801 7.174 0.5069 0.7179 0.229 0.9065-0.2107 1.199-0.4397 0.2928-4.025 2.701-5.57 3.174-1.546 0.4734-3 0.4974-4.962-6e-3 -1.962-0.5031-2.202-0.1733-2.336 0.7432-0.13 0.8926-0.09061 4.057 0.4037 5.42 0.573 1.581 0.8867 1.75 1.55 2.26 0.5108 0.3934-0.2419 0.4467-2.139 0.0116-1.897-0.4351-2.683-0.9722-2.791-3.837-0.1241-3.28 0.251-30.67 0.3169-32.47 0.06585-1.803 0.1139-4.475 0.7014-3.696 0.5874 0.7791 3.202 3.899 9.802 5.618z" fill="#71ee1c"/><path d="m-26.4 185.9c0.01601-1.748 0.3613-1.695 1.543-1.721 1.182-0.026 21.4 0.385 22.77 0.4568 1.369 0.0718 1.458 0.357 1.527 1.776 0.06898 1.419 4.993e-4 2.599-0.0131 3.355-0.0136 0.7558-0.06933 1.227-0.826 1.261-0.7567 0.0336-22.81-0.505-23.76-0.5219-0.9448-0.017-1.231-0.3052-1.257-1.062-0.03565-1.062 0.0075-2.56 0.01649-3.544z" fill="#60cc17"/></g><g transform="matrix(.02853 .0005133 -.0005353 .02975 -19.85 162)" stroke-width="1.333"><path d="m132 81.49c0-1.014 1.35-2.2 3-2.634 4.005-1.054 246.8-1.111 249.5-0.0585 1.179 0.4525 2.144 1.659 2.144 2.68 0 1.575-19.38 1.857-127.3 1.857-107.5-4e-5 -127.3-0.287-127.3-1.845z" fill="#bd8b3a"/><path d="m49.77 104.8c-14.36-5.327-24.84-15.02-31.41-29.06-6.28-13.42-6.849-13.05 20.46-13.47l23.46-0.3633 12.38-15.94h30c20.62 0 30 0.4509 30 1.442 0 2.223-9.438 13.22-11.35 13.22-0.93 0-2.073 2.034-2.539 4.519-2.647 14.11-16.68 31.17-31.11 37.83-10.4 4.796-29.51 5.665-39.9 1.814zm34.85-16.83c9.294-4.537 16.75-13.62 19.99-24.34 0.8941-2.965 0.758-2.999-11.52-2.928l-12.42 0.0719-11.31 15.86h-32.53l3.916 4.169c2.154 2.293 6.916 5.617 10.58 7.388 5.683 2.744 8.241 3.156 17.33 2.791 7.108-0.2854 12.43-1.29 15.96-3.01zm51.71-15.03c-1.314-0.8926-1.145-2.685 0.7916-8.387l2.463-7.252 15.54-0.3756c15.04-0.3636 15.54-0.4703 15.56-3.333 0.0107-1.93-2.962-5.736-8.559-10.96-10.09-9.41-11.72-13.63-7.998-20.59 4.315-8.059 8.936-9.409 32.21-9.411 11.18-1e-3 20.33 0.3952 20.33 0.8807 0 0.4855-1.01 4.086-2.243 8l-2.243 7.117h-11.68c-6.423 0-11.99 0.5128-12.38 1.14-0.3873 0.6267 0.8575 2.577 2.766 4.333 1.909 1.757 5.79 6.098 8.626 9.647 5.774 7.228 6.771 13.89 3.132 20.92-3.755 7.261-8.258 8.498-32.64 8.971-12.1 0.2345-22.75-0.0844-23.67-0.7088zm59.25 0.0276c-0.4915-0.8504 3.777-16.61 14.27-52.67l2.23-7.667h15.67c12.44 0 16.32 0.4561 18.83 2.213 2.943 2.061 3.27 2.061 4.777 0 1.332-1.821 4.127-2.213 15.8-2.213 22.49 0 23.23 2.02 13.28 36.42-3.434 11.87-6.831 22.36-7.548 23.31-1.419 1.882-16.48 1.981-17.64 0.1163-0.3557-0.5756 1.849-9.738 4.9-20.36 3.051-10.62 5.171-20.29 4.712-21.49-0.5534-1.442-2.057-2.032-4.466-1.752-3.474 0.4042-3.895 1.324-9.674 21.13-3.323 11.39-6.569 21.51-7.212 22.48-0.8288 1.254-3.446 1.606-8.972 1.206-4.291-0.3104-8.165-0.9276-8.609-1.372-0.444-0.444 1.692-9.598 4.746-20.34 3.054-10.74 5.224-20.39 4.821-21.44-0.4027-1.049-2.466-1.908-4.585-1.908-3.829 0-3.888 0.1262-9.59 20.33-3.155 11.18-6.262 21.38-6.903 22.67-0.9283 1.858-2.905 2.333-9.707 2.333-4.698 0-8.801-0.45-9.119-1zm83.91-0.0748c-0.3465-0.5607 3.139-14.2 7.747-30.31l8.377-29.29 19.16-0.3718c20.46-0.3971 24.2 0.3506 29.4 5.886l3.1 3.3 2.966-8.814 26.22-0.3615c14.42-0.1988 26.21 0.1012 26.21 0.6667-6e-4 0.5655-1.138 4.028-2.527 7.695l-2.526 6.667-15.61 0.7833-5.208 18.28c-8.082 28.36-6.915 26.56-17.32 26.78-10.58 0.2295-10.43 0.7925-4.904-17.94 2.147-7.278 4.815-16.38 5.928-20.23l2.024-7h-14.1l-1.665 5.556c-1.939 6.471-8.01 13.11-11.99 13.11-1.523 0-2.769 0.2468-2.769 0.5485 0 0.3017 2.1 5.455 4.667 11.45s4.667 11.66 4.667 12.59c0 2.375-16.45 2.778-18.28 0.4482-2.293-2.924-13.54-31.45-12.72-32.26 0.4265-0.4265 3.626-0.7755 7.111-0.7755 8.375 0 10.55-0.9829 10.55-4.762 0-4.195-4.017-6.138-11.67-5.642l-6.245 0.4045-6.043 20.71c-3.324 11.39-6.453 21.32-6.954 22.06-1.07 1.587-16.67 2.313-17.6 0.8194zm-279.5-13.53c0-0.7005 3.3-4.654 7.333-8.785 4.033-4.131 7.334-8.508 7.334-9.726 0.0023-4.796 8.018-18.77 14.46-25.22 3.804-3.804 10.76-8.743 15.8-11.23 8.402-4.136 9.92-4.436 22.44-4.436 12.84 0 13.88 0.2199 23.59 5.021 14.88 7.354 27.6 22.85 29.27 35.65l0.4344 3.333-48 0.787-11.56 15.88h-30.55c-18.53 0-30.55-0.5014-30.55-1.274zm57.46-17.73c7.96-11.61 8.077-11.66 25.13-11.72l15.42-0.0547-5.748-5.198c-19.75-17.87-52.46-8.809-61.3 16.97l-1.485 4.333h25.01z" fill="#ee3f23"/><path d="m289.3 101.3v-8.667h7.17c8.298 0 9.698 1.235 9.83 8.667 0.1299 7.295-1.426 8.667-9.83 8.667h-7.17zm12.58 3.478c0.4041-0.6538-1.361-1.433-3.921-1.732-3.209-0.3746-4.656-5e-3 -4.656 1.189 0 1.961 7.411 2.431 8.577 0.5436zm0.0894-6.811c-0.4532-0.7333-2.589-1.333-4.745-1.333s-3.921 0.6-3.921 1.333c0 0.7333 2.135 1.333 4.745 1.333 2.824 0 4.412-0.5398 3.921-1.333zm8.714 9.421c-2.17-4.054-1.773-14.75 0.5467-14.75 1.353 0 2.048 1.887 2.333 6.333 0.3887 6.058 0.5804 6.333 4.406 6.333 3.826 0 4.018-0.2755 4.406-6.333 0.2853-4.447 0.9804-6.333 2.333-6.333 3.029 0 2.613 12.3-0.5114 15.13-3.466 3.137-11.76 2.909-13.51-0.3724zm18.62 0.579c0-1.511 1.63-2 6.667-2 8.034 0 8.945-2.344 1.136-2.923-6.409-0.4751-9.374-3.621-6.984-7.41 1.798-2.85 15.27-3.405 16.18-0.6667 0.3959 1.188-1.393 1.667-6.222 1.667-8.565 0-8.927 2.383-0.4444 2.927 5.453 0.3499 6.394 0.8336 6.769 3.48 0.7119 5.022-2.02 6.927-9.932 6.927-5.485 0-7.17-0.4702-7.17-2zm20-6.667v-8.667h7.333c5.63 0 7.333 0.4646 7.333 2 0 1.444-1.481 2-5.333 2-5.206 0-5.333 0.1111-5.333 4.667 0 4.556 0.1269 4.667 5.333 4.667 3.852 0 5.333 0.5556 5.333 2 0 1.535-1.704 2-7.333 2h-7.333zm17.33 6.667c0-1.511 1.63-2 6.667-2 3.667 0 6.667-0.6 6.667-1.333 0-0.7333-1.839-1.333-4.088-1.333-7.789 0-11.87-4.841-7.646-9.067 2.448-2.448 15.73-2.11 15.73 0.4 0 1.511-1.63 2-6.667 2-3.667 0-6.667 0.6-6.667 1.333 0 0.7333 2.719 1.333 6.042 1.333 6.634 0 8.166 1.667 6.743 7.336-0.7748 3.087-1.418 3.33-8.81 3.33-6.2 0-7.975-0.4452-7.975-2zm-12-6.667c0-1.397 1.407-2 4.667-2 3.259 0 4.667 0.6032 4.667 2s-1.407 2-4.667 2c-3.259 0-4.667-0.6032-4.667-2z" fill="#626264"/></g><g fill="#e1e1e1"><path d="m15.48 170.3c0.7606 0.0137 0.8923-0.2587 0.921-0.6808 0.02873-0.4222-0.1512-0.996-0.7216-1.006-0.5704-0.0103-0.8108 0.4292-0.818 0.8306-0.0072 0.4014 0.1323 0.8688 0.6186 0.8565z"/><path d="m15.25 172.6c0.7606 0.0137 0.8923-0.2587 0.921-0.6808 0.02873-0.4222-0.1512-0.996-0.7216-1.006-0.5704-0.0103-0.8108 0.4292-0.818 0.8306-0.0072 0.4014 0.1323 0.8688 0.6186 0.8565z"/><path d="m14.79 174.6c0.7606 0.0137 0.8923-0.2587 0.921-0.6808 0.02873-0.4222-0.1512-0.996-0.7216-1.006-0.5704-0.0103-0.8108 0.4292-0.818 0.8306-0.0072 0.4014 0.1323 0.8688 0.6186 0.8565z"/><path d="m14.37 176.8c0.7606 0.0137 0.8923-0.2587 0.921-0.6808 0.02873-0.4222-0.1511-0.996-0.7216-1.006-0.5704-0.0103-0.8108 0.4292-0.818 0.8306-0.0072 0.4014 0.1323 0.8688 0.6186 0.8565z"/><path d="m14.24 179.1c0.7606 0.0137 0.8923-0.2587 0.921-0.6808 0.02873-0.4222-0.1512-0.996-0.7216-1.006-0.5704-0.0103-0.8108 0.4292-0.818 0.8306-0.0072 0.4014 0.1323 0.8688 0.6186 0.8565z"/></g><g><path d="m24.72 179.3c-0.0643 1.225-0.1549 1.561-1.089 1.798s-2.843 0.6251-4.11 0.5601c-1.267-0.0651-2.177-1.138-2.702-2.5-0.525-1.362-0.5075-2.334-0.1406-3.933 0.3669-1.6 2.491-11.62 3.06-12.67 0.5683-1.046 0.877-1.759 3.046-2.523 2.169-0.764 2.545-0.5037 2.561 0.9759 0.01565 1.48-0.5937 16.56-0.6249 18.29z" fill="#151515"/><path d="m20.71 179.4c1.553 0.0877 2.108-0.8587 2.127-1.964 0.01989-1.105-0.6474-2.223-1.933-2.217-1.285 7e-3 -1.865 0.6539-1.95 2.057-0.08501 1.403 0.6197 2.103 1.755 2.124z" fill="#e7e7e7"/><path d="m21.88 172.6c1.406-0.0573 1.809-0.894 1.861-2.089 0.05138-1.195-0.8907-1.989-1.877-2.006-0.986-0.0177-1.656 0.6875-1.648 1.913 0.0078 1.226 0.5282 2.228 1.664 2.182z" fill="#e7e7e7"/><path d="m22.24 165.8c1.674 2.1e-4 1.811-1.013 1.86-2.029 0.04815-1.015-0.4132-1.95-1.547-2.06-1.134-0.11-1.923 0.593-1.978 1.967-0.0546 1.374 0.322 2.038 1.665 2.122z" fill="#e49f1c"/><path d="m-52.03 159.9c0.02447-1.36 0.2387-1.635 1.418-1.23 1.179 0.405 3.255 1.349 3.862 2.547 0.6064 1.197 1.06 5.078 1.36 7.77 0.3005 2.692 1.018 7.415 1.099 8.707 0.08141 1.292-0.8555 2.95-2.951 3.052-2.095 0.1019-3.48-0.4813-4.209-0.7037-0.7286-0.2224-0.794-0.4678-0.8145-1.271-0.02044-0.8028 0.2147-17.75 0.2348-18.87z" fill="#151515"/><path d="m-48.69 160.7c-1.535 7e-3 -1.902 1.012-1.953 1.919s0.09872 2.269 1.704 2.263c1.605-6e-3 1.9-0.8729 1.918-1.919 0.01882-1.046-0.2389-2.237-1.669-2.263z" fill="#e49f1c"/><path d="m-48.28 167.1c-1.536 0.0422-1.728 1.05-1.748 2.166-0.02008 1.116 0.5901 2.104 1.914 2.197 1.324 0.0936 1.801-1.189 1.78-1.991-0.02044-0.8028-0.308-2.273-1.946-2.373z" fill="#e7e7e7"/><path d="m-47.29 174.1c-1.852-0.0333-2.016 1.314-2.07 2.367-0.05389 1.053 0.485 2.182 1.883 2.207 1.398 0.0251 2.087-1.379 2.104-2.3 0.01658-0.9218-0.2398-2.211-1.916-2.274z" fill="#e7e7e7"/></g><g fill="#e1e1e1"><path d="m-42.3 176.8c-0.7397-0.0153-0.8095 0.4295-0.8188 0.9474-0.0093 0.5179 0.2831 0.7205 0.8494 0.78 0.5663 0.0595 0.7725-0.4302 0.7805-0.8741 8e-3 -0.4439-0.1448-0.8396-0.8111-0.8533z"/><path d="m-42.8 174.6c-0.7397-0.0153-0.8095 0.4295-0.8188 0.9474-0.0093 0.5179 0.2831 0.7205 0.8494 0.78 0.5663 0.0595 0.7725-0.4302 0.7805-0.8741 8e-3 -0.4439-0.1448-0.8396-0.8111-0.8533z"/><path d="m-43.2 172.4c-0.7397-0.0153-0.8095 0.4295-0.8188 0.9474-0.0093 0.5179 0.2831 0.7205 0.8494 0.78 0.5663 0.0595 0.7725-0.4302 0.7805-0.8741 8e-3 -0.4439-0.1448-0.8396-0.8111-0.8534z"/><path d="m-43.46 170.2c-0.7397-0.0153-0.8095 0.4295-0.8188 0.9474-0.0093 0.5179 0.2831 0.7205 0.8494 0.78 0.5663 0.0595 0.7725-0.4302 0.7805-0.8741 8e-3 -0.4439-0.1448-0.8396-0.8111-0.8533z"/><path d="m-43.66 167.8c-0.7397-0.0153-0.8095 0.4295-0.8188 0.9474-0.0093 0.5179 0.2831 0.7205 0.8494 0.78 0.5663 0.0595 0.7725-0.4302 0.7805-0.8741 8e-3 -0.4439-0.1448-0.8396-0.8111-0.8534z"/></g><g transform="matrix(.03066 .0003077 -.0006565 .03649 -22.02 153.7)"><path d="m247.9 121.4c-8.729-2.793-26.45-11.6-35.65-17.73-10.02-6.665-24.91-20.57-29.22-27.28-19.96-31.11-7.749-65.15 23.36-65.1 9.581 0.01542 17.8 4.792 23.84 13.85l1.57 2.357 1.598-3.091c2.232-4.316 7.843-9.703 12.84-12.33 6.044-3.174 19.15-3.164 26.17 0.02038 10.86 4.931 16.56 12.35 18.55 24.16 2.255 13.37-1.641 25.56-12.86 40.22-4.201 5.492-10.44 13.64-13.87 18.11-7.117 9.284-9.27 14.6-9.27 22.87 0 3.202-0.3375 5.798-0.75 5.768-0.4125-0.0296-3.254-0.8552-6.315-1.835z" fill="#e60813"/><path d="m345 137.3c0-0.55 1.485-1 3.3-1 3.499 0 5.7-1.476 5.7-3.822 0-1.127-0.3002-1.173-1.445-0.2232-0.7947 0.6596-2.482 1.052-3.75 0.8724-2.005-0.2842-2.294-0.8737-2.223-4.522 0.0452-2.308 0.653-4.883 1.35-5.724 1.627-1.961 7.882-3.167 9.263-1.786 1.46 1.46-0.655 12.95-2.826 15.35-1.795 1.983-9.37 2.675-9.37 0.8559zm8.737-7.25c0.54-0.6875 1.259-2.712 1.597-4.5 0.665-3.51-0.662-4.215-4.285-2.276-1.929 1.032-3.511 5.471-2.521 7.072 0.8415 1.362 4.05 1.179 5.208-0.296zm114.3 7.308c0-0.5184 1.909-1.081 4.241-1.25 2.951-0.214 4.335-0.7998 4.548-1.926 0.2418-1.276-0.4958-1.593-3.491-1.5-3.797 0.1183-3.798 0.1175-3.666-3.832 0.2012-6.031 6.649-10.57 11.05-7.771 1.656 1.053-1.156 14.3-3.391 15.97-1.941 1.454-9.287 1.697-9.287 0.3075zm8.872-7.403c0.6141-0.7399 1.4-2.765 1.747-4.5 0.5441-2.72 0.3482-3.155-1.423-3.155-2.923 0-5.196 2.657-5.196 6.071 0 2.198 0.4682 2.929 1.878 2.929 1.033 0 2.38-0.6054 2.994-1.345zm-198.8 1.595c0.0215-1.538 0.6992-5.058 2.503-13 0.281-1.238 1.16-2.25 1.953-2.25 1.348 0 1.839 1.263 4.263 10.96l0.8654 3.464 4.446-7.205c2.52-4.084 5.142-7.209 6.052-7.214 1.473-8e-3 1.471 0.67-0.0276 8.167-0.8989 4.497-2.142 8.345-2.762 8.552-1.098 0.3658-1.021-0.2957 1.241-10.73 0.3364-1.551-1.209 0.0858-4.071 4.312-2.537 3.747-5.133 6.639-5.767 6.428-0.6348-0.2116-1.876-3.277-2.757-6.812l-1.603-6.428-1.293 6.75c-0.7111 3.712-1.692 6.75-2.18 6.75s-0.8758-0.7875-0.8623-1.75zm23.22 0.5957c-2.783-2.783 8e-3 -10.19 4.24-11.25 5.547-1.392 8.45 3.026 5.659 8.613-1.326 2.656-2.324 3.351-5.149 3.589-1.927 0.1626-4.065-0.2649-4.75-0.95zm7.782-2.897c1.808-3.378 0.8486-6.448-2.014-6.448-2.717 0-5.632 4.447-4.629 7.061 0.8384 2.185 5.369 1.767 6.643-0.6123zm6.552-0.1984c-0.3716-2.338-0.9279-5.262-1.236-6.5-0.3961-1.59-0.1161-2.25 0.954-2.25 1.066 0 1.725 1.533 2.227 5.177l0.712 5.177 2.333-3.927c3.974-6.688 4.176-6.946 4.922-6.235 1.006 0.9594-6.334 12.81-7.935 12.81-0.7565 0-1.582-1.776-1.975-4.25zm10.42 2.799c0-3.214 2.225-11.55 3.083-11.55 1.194 0 1.157 1.783-0.1657 7.951-0.995 4.64-2.917 7.011-2.917 3.598zm5.485-0.7992c0.2878-1.238 0.8722-4.017 1.299-6.176 0.4264-2.16 1.396-4.133 2.155-4.386 0.9599-0.32 1.179 0.0636 0.7198 1.26-0.363 0.946-0.3222 1.555 0.0907 1.354 0.4129-0.2011 2-0.9915 3.528-1.756 4.059-2.033 5.127-0.4387 4.276 6.38-0.4962 3.971-1.127 5.575-2.192 5.575-0.9453 0-1.314-0.6438-1.003-1.75 2.125-7.546 1.622-9.947-1.805-8.632-1.962 0.7528-4.553 5.495-4.553 8.332 0 1.167-0.6544 2.05-1.519 2.05-1.064 0-1.362-0.6744-0.9957-2.25zm32.51 1.866c0-1.666 10.42-16.62 11.58-16.62 0.7595 0 1.66 1.238 2 2.75 1.046 4.646 2.512 10.66 3.046 12.5 0.3232 1.114-0.0367 1.75-0.99 1.75-0.8238 0-1.642-1.012-1.817-2.25-0.2288-1.611-1.101-2.34-3.07-2.566-3.447-0.3966-3.636-2.184-0.231-2.184 2.239 0 2.447-0.3062 1.871-2.75-1.107-4.696-1.815-4.404-5.926 2.447-3.384 5.639-6.464 8.936-6.464 6.92zm19.02-1.366c0.0215-1.538 0.6992-5.058 2.503-13 0.8645-3.807 2.773-2.661 2.043 1.227l-0.6523 3.477 3.007-1.726c2.727-1.565 3.152-1.58 4.57-0.1622 1.322 1.322 1.392 2.363 0.4514 6.749-1.438 6.704-3.375 6.935-2.461 0.293 0.4512-3.28 0.2929-5.127-0.4802-5.605-1.77-1.094-5.738 3.259-6.455 7.082-0.6602 3.519-2.569 4.778-2.526 1.665zm14.95 0.2183c-2.092-2.52 0.3428-8.942 3.957-10.44 3.953-1.637 7.069-0.5336 7.069 2.503 0 2.69-2.56 4.468-6.434 4.468-1.614 0-2.566 0.5564-2.566 1.5 0 1.566 0.9175 1.853 4.862 1.524 1.48-0.1234 2.112 0.2087 1.691 0.8893-1.005 1.626-7.124 1.309-8.58-0.4454zm8.58-6.555c1.017-1.645-1.089-3.195-3.361-2.474-1.105 0.3506-2.261 1.295-2.569 2.099-0.413 1.076 0.2068 1.462 2.349 1.462 1.6 0 3.212-0.4892 3.581-1.087zm4.092 7.399c-1.008-1.008-0.7591-4.968 0.4843-7.697 0.6214-1.364 2.413-3.011 3.981-3.66 3.415-1.414 8.302-0.4709 7.561 1.46-0.2808 0.7317-0.8141 3.355-1.185 5.83l-0.6747 4.499-4.76 0.1072c-2.618 0.059-5.051-0.1832-5.406-0.5381zm7.226-2.657c0.6141-0.7399 1.4-2.765 1.747-4.5 0.5441-2.72 0.3482-3.155-1.423-3.155-2.923 0-5.196 2.657-5.196 6.071 0 2.198 0.4682 2.929 1.878 2.929 1.033 0 2.38-0.6054 2.994-1.345zm6.795 2.679c-1.222-1.222-0.6866-6.86 0.8621-9.071 0.8457-1.207 3.137-2.484 5.129-2.858 2.308-0.433 3.775-1.344 4.088-2.54 0.6168-2.359 2.266-2.444 2.219-0.1145-0.0555 2.762-2.668 14.29-3.407 15.03-0.3669 0.3669-1.036 0.0696-1.488-0.6607-0.5744-0.9294-1.026-0.9958-1.505-0.221-0.746 1.207-4.828 1.512-5.899 0.4401zm8.19-5.606c1.663-4.382 1.212-5.213-2.346-4.32-4.681 1.175-5.905 9.077-1.303 8.412 1.509-0.2179 2.674-1.525 3.649-4.093zm14.62 4.022c3.136-13.81 3.14-13.52-0.2229-14.03-1.512-0.2291 0.4-0.4308 4.25-0.4481 4.439-0.02 5.903 0.2031 4 0.61-2.852 0.6098-3.07 1.023-4.423 8.382-0.9404 5.115-1.88 7.74-2.769 7.74-0.8805 0-1.169-0.778-0.835-2.25zm8.538 0.2705c-1.464-2.735-0.2726-6.67 2.736-9.036 6.529-5.136 12.41 1.731 7.18 8.381-2.622 3.333-8.283 3.707-9.916 0.6554zm8.803-4.891c0.3875-3.881-2.012-5.165-4.851-2.596-2.187 1.979-2.651 7.041-0.7128 7.77 2.254 0.8478 5.24-1.928 5.564-5.174zm18.9 6.251c-1.359-1.359-0.7063-7.168 1.036-9.227 3.687-4.357 11.33-3.141 9.839 1.565-0.6644 2.093-3.247 3.243-7.339 3.268-2.659 0.0161-2.95 1.523-0.5526 2.864 1.037 0.5805 2.626 0.5968 4.086 0.0418 1.777-0.6755 2.283-0.5859 1.975 0.3498-0.4493 1.366-7.881 2.302-9.045 1.138zm8.276-7.869c1.005-1.211 0.9098-1.613-0.5135-2.159-1.885-0.7232-4.614 0.5604-5.251 2.469-0.575 1.725 4.292 1.463 5.764-0.3096zm4.01 7.32c0-3.432 2.333-13.83 3.103-13.83 0.4935 0 0.8974 0.45 0.8974 1s0.675 1 1.5 1 1.5 0.45 1.5 1-0.6664 1-1.481 1c-1.371 0-1.918 1.286-2.767 6.5-0.1789 1.1 0.366 2.548 1.211 3.218 1.306 1.036 1.124 1.223-1.214 1.25-1.512 0.0175-2.75-0.4938-2.75-1.136zm7.694-2.082c1.933-9.756 2.936-13.13 4.009-13.48 0.8439-0.2813 1.022 0.6542 0.6088 3.2l-0.5838 3.597 3.093-1.775c4.416-2.535 5.62-0.9735 4.732 6.136-0.5052 4.043-1.118 5.575-2.232 5.575-0.9197 0-1.315-0.5728-0.9867-1.429 1.404-3.659 1.776-8.385 0.7114-9.043-2.208-1.365-5.999 2.326-6.665 6.489-0.377 2.358-1.187 3.983-1.984 3.983-0.9854 0-1.174-0.8729-0.7031-3.25zm14.82 1.281c-0.8309-2.618 0.2174-7.56 1.9-8.956 2.367-1.965 7.108-2.361 8.479-0.7092 2.739 3.3-0.5531 6.584-6.639 6.621-2.659 0.0161-2.95 1.523-0.5526 2.864 1.037 0.5805 2.626 0.5968 4.086 0.0418 1.777-0.6755 2.283-0.5859 1.975 0.3498-0.2275 0.6919-2.253 1.394-4.502 1.561-3.405 0.2527-4.198-0.0434-4.747-1.772zm8.48-6.519c1.005-1.211 0.9098-1.613-0.5135-2.159-1.885-0.7232-4.614 0.5604-5.251 2.469-0.575 1.725 4.292 1.463 5.764-0.3096zm4.01 7.037c0-3.214 2.225-11.55 3.083-11.55 0.5044 0 0.9171 0.6854 0.9171 1.523 0 1.333 0.3113 1.319 2.5-0.115 1.375-0.9009 2.5-1.209 2.5-0.6836 0 0.525-1.115 1.462-2.478 2.083-1.761 0.8026-2.807 2.439-3.619 5.661-1.079 4.287-2.904 6.222-2.904 3.081zm-202-14.55c0-0.55 0.45-1 1-1s1 0.45 1 1-0.45 1-1 1-1-0.45-1-1zm-303.7-13.55c-7.998-2.154-12.53-4.855-17.6-10.5-4.662-5.185-7.647-12.26-7.647-18.13v-2.818h19.84l1.204 3.75c2.372 7.387 8.564 11.27 19.19 12.03 12.76 0.916 20.76-3.583 20.76-11.67 0-7.166-6.211-10.76-28.65-16.56-15.98-4.132-21.14-6.402-25.28-11.12-6.055-6.896-7.898-22.93-3.613-31.44 2.975-5.904 9.502-11.83 15.51-14.09 11.72-4.399 31.34-4.21 41.35 0.3991 9.049 4.166 15.71 13.07 17.2 22.98l0.7077 4.719h-7.891c-8.704 0-11.32-1.131-13.83-5.982-2.144-4.145-6.589-6.916-13-8.1-11.51-2.128-20.85 2.246-22.17 10.38-0.5 3.081-0.1513 4.044 2.381 6.576 2.951 2.951 6.923 4.39 27.78 10.07 22.93 6.243 29.82 12.83 29.87 28.56 0.04913 17.1-8.818 27.74-26.17 31.39-7.242 1.523-23.57 1.288-29.95-0.4306zm91.75-4e-3c-16.21-4.496-27.62-17.65-31.6-36.45-1.899-8.956-1.374-26.83 1.007-34.3 5.166-16.2 16.6-27.66 31.61-31.71 2.462-0.6628 8.979-1.183 14.48-1.155 16.65 0.08287 28.35 4.958 36.43 15.17 2.245 2.84 4.082 5.561 4.082 6.047s-0.8695 2.808-1.932 5.16c-1.063 2.352-2.174 5.064-2.469 6.027-0.3727 1.216-1.538 1.736-3.818 1.705-4.951-0.06805-8.239-1.982-11.95-6.955-4.848-6.495-10.39-9-19.93-9-14.31 0-22.97 7.223-26.32 21.94-3.509 15.43-0.6591 30.86 7.277 39.4 3.964 4.267 9.858 6.866 16.84 7.427 11.81 0.9482 20.46-3.634 24.92-13.2 1.299-2.789 2.366-5.576 2.371-6.192 6e-3 -0.6943-2.942-1.295-7.74-1.577-4.262-0.2503-8.763-1.091-10-1.869-3.13-1.967-5.426-7.28-5.059-11.71l0.3089-3.725 31.21-0.5493 1.604 7.996c0.8821 4.398 3.198 11.45 5.147 15.67 3.428 7.419 3.544 8.057 3.544 19.53v11.86h-3.953c-2.174 0-5.077-0.5124-6.452-1.139-2.31-1.052-5.595-6.198-5.595-8.763 0-1.802-0.8974-1.285-4.099 2.361-1.671 1.903-5.589 4.708-8.707 6.234-4.873 2.384-7.075 2.809-15.68 3.028-6.629 0.1684-11.87-0.261-15.51-1.271zm282.2 0.057c-7.233-2.027-10.67-3.949-15.24-8.519-9.314-9.314-10.21-14.32-9.81-54.72l0.3212-32.23 2.753-2.752c2.413-2.412 3.672-2.799 10.19-3.128l7.439-0.3756 0.3076 36.36c0.2879 34.03 0.4353 36.61 2.308 40.29 3.421 6.732 6.23 8.065 17 8.065 10.49 0 13.25-1.232 17-7.605 1.886-3.201 2.018-5.499 2.306-40.15l0.3064-36.75h20.89v34.86c0 35.83-0.5416 42.49-4.046 49.73-2.982 6.159-10.52 13.09-16.94 15.57-7.253 2.807-26.86 3.563-34.79 1.342zm84.79-0.0478c-13.94-3.907-22.85-13.61-24.67-26.87l-0.6292-4.591h10.17c8.819 0 10.24 0.232 10.68 1.75 2.659 8.993 8.575 13.24 19.53 14.03 12.01 0.8595 20.09-2.977 21.16-10.05 1.188-7.85-5.901-12.36-28.61-18.21-13.58-3.496-20.32-6.131-24.02-9.381-3.327-2.925-6.705-11.01-7.311-17.49-0.899-9.628 1.523-16.63 7.994-23.1 6.048-6.048 11.45-8.274 23-9.487 16.9-1.774 32.01 2.519 38.73 11.01 3.665 4.627 6.949 12.64 6.949 16.95v2.989h-8.045c-8.743 0-8.801-0.0314-14.89-8.05-3.309-4.361-8.222-6.226-16.57-6.287-10.88-0.0802-16.5 3.871-16.5 11.61 0 2.832 0.6731 4.449 2.592 6.228 2.86 2.65 5.608 3.63 25.41 9.056 15.73 4.311 21.49 6.963 25.81 11.89 9.326 10.62 7.284 31.33-4.045 41.03-6.868 5.878-13.34 7.747-28.27 8.164-9.571 0.2676-14.44-0.0412-18.48-1.171zm-197-13.63 2e-3 -13.33 4.414-8.788c9.045-18.01 8.655-36.14-1.074-49.96-3.896-5.536-3.983-6.188-1.389-10.44 3.063-5.023 6.518-5.559 32.59-5.062 17.97 0.3427 24.09 0.807 28.22 2.141 12.59 4.074 19.07 15.95 16.15 29.59-0.9243 4.31-2.099 6.312-5.983 10.2l-4.833 4.833 2.777 1.436c11.13 5.757 15.14 21.37 9.093 35.42-2.77 6.439-8.02 11.23-15.59 14.24-5.596 2.22-7.296 2.35-35.13 2.7l-29.25 0.3674 2e-3 -13.33zm55.66-7.254c3.981-2.397 5.335-5.344 5.335-11.61 0-3.999-0.5341-5.535-2.81-8.083-2.486-2.783-3.611-3.217-9.75-3.766-3.817-0.3412-11.78-0.4788-17.69-0.306l-10.75 0.3143v26.08l16.25-0.3626c13.79-0.3076 16.73-0.6512 19.41-2.268zm-0.0759-44.88c3.49-4.062 3.407-11.41-0.1674-14.77-2.477-2.329-3.222-2.437-19-2.76l-16.42-0.3363v21.31l33.18-0.6346 2.411-2.806z" fill="#e9e9e7"/></g><g><path d="m-28.83 92.46c0.2579-1.308 0.2621-1.542 1.855-1.514 1.593 0.02866 36.14 0.2282 37.78 0.3046 1.639 0.07637 1.731 0.2186 1.616 1.389-0.1148 1.17-1.024 4.81-1.138 5.933-0.114 1.123-0.3474 1.072-1.332 1.101-0.9849 0.02919-37.03-0.3848-38.2-0.4059-1.172-0.02108-1.311-0.0705-1.296-0.914 0.01517-0.8435 0.357-4.213 0.7154-5.894z" fill="#424242"/><path d="m35.74 85.79c-2.85-0.04941-6.328-0.1472-7.314 1.194-0.825 1.123-1.037 2.368-0.8173 4.891 0.2198 2.523 0.4053 3.256 1.269 3.139 0.8639-0.117 0.4366-2.147 0.461-3.506 0.02444-1.359 0.1959-3.51 1.723-3.615s2.089-0.02907 3.302 0.722c1.213 0.7511 5.007 3.604 6.088 4.286 1.082 0.6824 1.278 0.8189 2.139 0.8675 0.861 0.04864 1.259 0.05535 2.254 7e-3 0.9953-0.04839 1.196-0.1769 1.21-0.9391 0.01371-0.7621 0.1143-4.506 0.06649-5.535-0.04779-1.028-0.07811-1.124-1.503-1.187-2.957-0.1314-5.916-0.2742-8.878-0.3256zm6.694 1.944c0.7621 0.01371 0.8577 0.2472 0.8463 0.8768l-0.05365 2.982c-0.01133 0.6296-0.1812 0.8583-0.7445 0.8482-0.5633-0.01013-0.6655 0.154-2.076-0.6669-1.192-0.694-3.118-2.166-4.387-3.062-1.186-0.8383-1.869-1.128-0.5765-1.138 1.293-0.0099 6.229 0.1455 6.991 0.1592z" fill="#252525"/><path d="m32.92 91.84c2.819 0.3766 3.04 0.3828 2.775 2.113s-0.4678 12.98-0.494 14.43c-0.02613 1.453 0.1077 1.83-1.301 1.945-1.408 0.1153-3.939 0.0698-5.531-6e-3 -1.592-0.0755-2.243-0.4154-2.362-1.589-0.1195-1.174-0.04512-13.13 0.07895-14.81 0.1241-1.685 0.3676-2.327 1.496-2.364 1.794-0.05934 3.606 0.05214 5.339 0.2836z" fill="#222"/></g><g transform="rotate(1.031 77.5 135)"><path d="m30.84 99.12c1.453 0.04687 1.5 0.1406 1.547 1.781 0.04687 1.64 0.09374 2.156-1.078 2.203-1.172 0.0469-2.812 0-3.75 0-0.9374 0-1.125-0.1406-1.125-1.734 0-1.594-0.2343-2.156 0.8437-2.25 1.078-0.09374 2.297-0.04687 3.562 0z" fill="#e4de25"/><path d="m28.22 104.6c0.8199-1.412 1.734-1.172 2.484-0.1406s1.406 2.297 1.734 3.047c0.3281 0.7499 0.04687 1.078-1.687 1.172-1.734 0.0937-2.293 0.0468-3.418-0.0469-1.125-0.0937-0.7313-1.045-0.375-1.734 0.4723-0.9134 0.8461-1.58 1.262-2.297z" fill="#e4de25"/><path transform="scale(.2646)" d="m111.4 396.9c-0.5868 0.0332-1.162 1.25-0.7637 3.73 0.2657 3.986 0.8852 4.164 1.594-0.3535 0.3543-2.259-0.2433-3.41-0.8301-3.377zm-0.0625 8.443c-0.3829-0.0137-0.5659 0.2519-0.5742 0.6797-0.0104 0.5316 0.159 0.8203 0.6699 0.8203 0.5109 0 0.7016-0.1809 0.7441-0.7344 0.0426-0.5533-0.0303-0.7354-0.8398-0.7656z" fill="#161616"/></g><path d="m-57.82 131.6c3.099-0.0761 3.455-1.52 3.441-4.42-0.01374-2.9-0.01276-10.28-0.3773-12-0.3645-1.72-0.4927-1.92-4.376-2.188-3.884-0.2676-3.766 0.5254-4.005 2.828-0.2391 2.302-0.2389 9.618-0.1522 12.12 0.08674 2.506 0.6619 3.505 5.47 3.657z" fill="#1f1f1f"/><g transform="matrix(.9995 .03895 .006138 1.001 -91.99 18.64)"><path transform="matrix(.2647 -.005547 -.006386 .2646 94.62 -23.68)" d="m-240.2 458.9c-0.0365 4.742-2e-3 10.05 0.0762 15.25 3.618 0.1083 8.556 0.3156 12.4 0.2422 4.424-0.0844 4.2-2.037 3.873-8.244s-0.512-6.565-6.008-6.857c-3.6-0.2087-7.098-0.4154-10.34-0.3906z" fill="#e4de25"/><path transform="matrix(.2647 -.005547 -.006386 .2646 94.62 -23.68)" d="m-234.6 476c-1.607-0.0806-3.218 0.9924-4.703 3.629-0.2437 0.4327-0.4751 0.871-0.7129 1.299 0.1148 4.986 0.2558 9.415 0.4023 12.2 0.036 0.6831 0.0851 1.329 0.1445 1.953 2.728 0.2441 5.151 0.3321 10.1 0.168 6.546-0.217 7.58-1.435 6.271-4.297-1.308-2.862-3.906-7.7-6.834-11.66-1.464-1.979-3.065-3.212-4.672-3.293z" fill="#e4de25"/><path transform="scale(.2646)" d="m111.4 396.9c-0.5868 0.0332-1.162 1.25-0.7637 3.73 0.2657 3.986 0.8852 4.164 1.594-0.3535 0.3543-2.259-0.2433-3.41-0.8301-3.377zm-0.0625 8.443c-0.3829-0.0137-0.5659 0.2519-0.5742 0.6797-0.0104 0.5316 0.159 0.8203 0.6699 0.8203 0.5109 0 0.7016-0.1809 0.7441-0.7344 0.0426-0.5533-0.0303-0.7354-0.8398-0.7656z" fill="#161616"/></g><g transform="rotate(1.031 77.5 135)" fill="#2a2a2a"><path d="m194.4 134c0 2.451 0 2.541 2.451 2.632 2.451 0.0908 8.804 0.3631 11.53 0.2723 2.723-0.0908 2.814-0.2723 2.904-2.814 0.0908-2.541-0.1815-28.14-0.3631-29.5-0.1815-1.361-0.1815-1.543-2.269-1.725s-11.25-0.6354-12.71-0.5446c-1.452 0.0908-1.634 0.6354-1.725 2.088-0.0908 1.452 0 26.87 0.1815 29.59z"/><path d="m192.1 133.6c0 2.178-0.1738 2.723-1.824 2.723-1.651 0-8.688-0.1815-10.17-0.1815-1.477 0-1.825-0.3631-1.911-2.269-0.0869-1.906-0.3475-27.77-0.2606-29.68 0.0869-1.906 0.4344-2.451 1.911-2.541 1.477-0.0908 7.993 0.2723 9.991 0.363 1.998 0.0908 2.085 1.18 2.172 2.814 0.0869 1.634 0.1738 26.59 0.0869 28.77z"/><path d="m172.2 101.3c3.812 0.1815 3.631 0.5446 3.903 3.903 0.2723 3.358-0.0908 26.05-0.1815 28.23-0.0908 2.178-0.1815 2.632-2.451 2.632-2.269 0-18.61-0.3631-20.88-0.5446s-2.451-0.7261-2.541-3.358c-0.0908-2.632-0.4538-26.59-0.2723-29.14 0.1815-2.541 0.3631-2.36 2.36-2.36s16.88 0.5446 20.06 0.6354z"/><path d="m142.3 100.2c3.177 0.0908 3.721 0.6354 3.994 3.721 0.2723 3.086 0.6354 25.69 0.6354 28.41 0 2.723-0.4538 3.086-3.54 3.086s-24.6-0.4538-26.96-0.6354c-2.36-0.1815-2.904-0.363-3.086-3.268-0.1815-2.904-0.3631-27.23-0.2723-29.32 0.0908-2.088 0.0908-2.904 2.178-2.904 2.088 0 22.87 0.7261 27.05 0.9076z"/></g><g transform="matrix(.04154 .0009264 -.001498 .0833 52.66 147)" stroke-width="1.333"><path d="m132 81.49c0-1.014 1.35-2.2 3-2.634 4.005-1.054 246.8-1.111 249.5-0.0585 1.179 0.4525 2.144 1.659 2.144 2.68 0 1.575-19.38 1.857-127.3 1.857-107.5-4e-5 -127.3-0.287-127.3-1.845z" fill="#bd8b3a"/><path d="m49.77 104.8c-14.36-5.327-24.84-15.02-31.41-29.06-6.28-13.42-6.849-13.05 20.46-13.47l23.46-0.3633 12.38-15.94h30c20.62 0 30 0.4509 30 1.442 0 2.223-9.438 13.22-11.35 13.22-0.93 0-2.073 2.034-2.539 4.519-2.647 14.11-16.68 31.17-31.11 37.83-10.4 4.796-29.51 5.665-39.9 1.814zm34.85-16.83c9.294-4.537 16.75-13.62 19.99-24.34 0.8941-2.965 0.758-2.999-11.52-2.928l-12.42 0.0719-11.31 15.86h-32.53l3.916 4.169c2.154 2.293 6.916 5.617 10.58 7.388 5.683 2.744 8.241 3.156 17.33 2.791 7.108-0.2854 12.43-1.29 15.96-3.01zm51.71-15.03c-1.314-0.8926-1.145-2.685 0.7916-8.387l2.463-7.252 15.54-0.3756c15.04-0.3636 15.54-0.4703 15.56-3.333 0.0107-1.93-2.962-5.736-8.559-10.96-10.09-9.41-11.72-13.63-7.998-20.59 4.315-8.059 8.936-9.409 32.21-9.411 11.18-1e-3 20.33 0.3952 20.33 0.8807 0 0.4855-1.01 4.086-2.243 8l-2.243 7.117h-11.68c-6.423 0-11.99 0.5128-12.38 1.14-0.3873 0.6267 0.8575 2.577 2.766 4.333 1.909 1.757 5.79 6.098 8.626 9.647 5.774 7.228 6.771 13.89 3.132 20.92-3.755 7.261-8.258 8.498-32.64 8.971-12.1 0.2345-22.75-0.0844-23.67-0.7088zm59.25 0.0276c-0.4915-0.8504 3.777-16.61 14.27-52.67l2.23-7.667h15.67c12.44 0 16.32 0.4561 18.83 2.213 2.943 2.061 3.27 2.061 4.777 0 1.332-1.821 4.127-2.213 15.8-2.213 22.49 0 23.23 2.02 13.28 36.42-3.434 11.87-6.831 22.36-7.548 23.31-1.419 1.882-16.48 1.981-17.64 0.1163-0.3557-0.5756 1.849-9.738 4.9-20.36 3.051-10.62 5.171-20.29 4.712-21.49-0.5534-1.442-2.057-2.032-4.466-1.752-3.474 0.4042-3.895 1.324-9.674 21.13-3.323 11.39-6.569 21.51-7.212 22.48-0.8288 1.254-3.446 1.606-8.972 1.206-4.291-0.3104-8.165-0.9276-8.609-1.372-0.444-0.444 1.692-9.598 4.746-20.34 3.054-10.74 5.224-20.39 4.821-21.44-0.4027-1.049-2.466-1.908-4.585-1.908-3.829 0-3.888 0.1262-9.59 20.33-3.155 11.18-6.262 21.38-6.903 22.67-0.9283 1.858-2.905 2.333-9.707 2.333-4.698 0-8.801-0.45-9.119-1zm83.91-0.0748c-0.3465-0.5607 3.139-14.2 7.747-30.31l8.377-29.29 19.16-0.3718c20.46-0.3971 24.2 0.3506 29.4 5.886l3.1 3.3 2.966-8.814 26.22-0.3615c14.42-0.1988 26.21 0.1012 26.21 0.6667-6e-4 0.5655-1.138 4.028-2.527 7.695l-2.526 6.667-15.61 0.7833-5.208 18.28c-8.082 28.36-6.915 26.56-17.32 26.78-10.58 0.2295-10.43 0.7925-4.904-17.94 2.147-7.278 4.815-16.38 5.928-20.23l2.024-7h-14.1l-1.665 5.556c-1.939 6.471-8.01 13.11-11.99 13.11-1.523 0-2.769 0.2468-2.769 0.5485 0 0.3017 2.1 5.455 4.667 11.45s4.667 11.66 4.667 12.59c0 2.375-16.45 2.778-18.28 0.4482-2.293-2.924-13.54-31.45-12.72-32.26 0.4265-0.4265 3.626-0.7755 7.111-0.7755 8.375 0 10.55-0.9829 10.55-4.762 0-4.195-4.017-6.138-11.67-5.642l-6.245 0.4045-6.043 20.71c-3.324 11.39-6.453 21.32-6.954 22.06-1.07 1.587-16.67 2.313-17.6 0.8194zm-279.5-13.53c0-0.7005 3.3-4.654 7.333-8.785 4.033-4.131 7.334-8.508 7.334-9.726 0.0023-4.796 8.018-18.77 14.46-25.22 3.804-3.804 10.76-8.743 15.8-11.23 8.402-4.136 9.92-4.436 22.44-4.436 12.84 0 13.88 0.2199 23.59 5.021 14.88 7.354 27.6 22.85 29.27 35.65l0.4344 3.333-48 0.787-11.56 15.88h-30.55c-18.53 0-30.55-0.5014-30.55-1.274zm57.46-17.73c7.96-11.61 8.077-11.66 25.13-11.72l15.42-0.0547-5.748-5.198c-19.75-17.87-52.46-8.809-61.3 16.97l-1.485 4.333h25.01z" fill="#ee3f23"/><path d="m289.3 101.3v-8.667h7.17c8.298 0 9.698 1.235 9.83 8.667 0.1299 7.295-1.426 8.667-9.83 8.667h-7.17zm12.58 3.478c0.4041-0.6538-1.361-1.433-3.921-1.732-3.209-0.3746-4.656-5e-3 -4.656 1.189 0 1.961 7.411 2.431 8.577 0.5436zm0.0894-6.811c-0.4532-0.7333-2.589-1.333-4.745-1.333s-3.921 0.6-3.921 1.333c0 0.7333 2.135 1.333 4.745 1.333 2.824 0 4.412-0.5398 3.921-1.333zm8.714 9.421c-2.17-4.054-1.773-14.75 0.5467-14.75 1.353 0 2.048 1.887 2.333 6.333 0.3887 6.058 0.5804 6.333 4.406 6.333 3.826 0 4.018-0.2755 4.406-6.333 0.2853-4.447 0.9804-6.333 2.333-6.333 3.029 0 2.613 12.3-0.5114 15.13-3.466 3.137-11.76 2.909-13.51-0.3724zm18.62 0.579c0-1.511 1.63-2 6.667-2 8.034 0 8.945-2.344 1.136-2.923-6.409-0.4751-9.374-3.621-6.984-7.41 1.798-2.85 15.27-3.405 16.18-0.6667 0.3959 1.188-1.393 1.667-6.222 1.667-8.565 0-8.927 2.383-0.4444 2.927 5.453 0.3499 6.394 0.8336 6.769 3.48 0.7119 5.022-2.02 6.927-9.932 6.927-5.485 0-7.17-0.4702-7.17-2zm20-6.667v-8.667h7.333c5.63 0 7.333 0.4646 7.333 2 0 1.444-1.481 2-5.333 2-5.206 0-5.333 0.1111-5.333 4.667 0 4.556 0.1269 4.667 5.333 4.667 3.852 0 5.333 0.5556 5.333 2 0 1.535-1.704 2-7.333 2h-7.333zm17.33 6.667c0-1.511 1.63-2 6.667-2 3.667 0 6.667-0.6 6.667-1.333 0-0.7333-1.839-1.333-4.088-1.333-7.789 0-11.87-4.841-7.646-9.067 2.448-2.448 15.73-2.11 15.73 0.4 0 1.511-1.63 2-6.667 2-3.667 0-6.667 0.6-6.667 1.333 0 0.7333 2.719 1.333 6.042 1.333 6.634 0 8.166 1.667 6.743 7.336-0.7748 3.087-1.418 3.33-8.81 3.33-6.2 0-7.975-0.4452-7.975-2zm-12-6.667c0-1.397 1.407-2 4.667-2 3.259 0 4.667 0.6032 4.667 2s-1.407 2-4.667 2c-3.259 0-4.667-0.6032-4.667-2z" fill="#626264"/></g><g><path d="m64.31 145.7c2.088 0.1029 2.307-0.6725 2.327-1.794 0.02018-1.122-0.6325-1.694-2.366-1.726-1.734-0.0312-1.551 1.145-1.564 1.91-0.01376 0.7648 0.4272 1.552 1.603 1.61z" fill="#da9718"/><path d="m81.99 111.3c0.04551-2.53-0.167-3.129 1.769-3.169 1.936-0.0396 19.93 0.954 22.16 1.143 2.23 0.189 2.3 0.4135 2.329 2.945s0.1648 19.8 0.0596 21.51c-0.1052 1.71-0.3364 2.152-1.9 2.199s-19.41-0.7214-21.72-0.9117c-2.304-0.1903-2.598-0.4189-2.642-2.057-0.04496-1.638-0.0374-18.61-0.05692-21.66z" fill="#2a2a2a"/><g transform="rotate(1.031 77.5 135)" fill="#2a2a2a"><path d="m72.44 97.25c2.751 0.191 2.871 0.6044 2.946 3.581 0.07442 2.977 0.5953 28.73 0.5953 30.66s0.3721 2.233-4.242 2.084c-4.614-0.1488-6.102 0.0744-6.177-2.009-0.07442-2.084-0.6698-29.25-0.6698-31.26 0-2.009 0.2233-3.2 1.86-3.2 1.637 0 3.079-0.04129 5.687 0.1398z"/><path d="m58.04 97.62c2.842 0.1579 3.157 0.4736 3.263 2.947 0.1052 2.473 0.4736 28.15 0.3684 30.57-0.1052 2.421-0.3157 2.947-3.157 3.999-2.842 1.052-15.68 5.367-17.58 6.104-1.894 0.7367-2.105 0.5262-2.105-1.473s-0.421-20-0.3157-25.57c0.1052-5.578 0.1052-12.63 0.8419-14.63 0.7367-2 1.368-2.526 3.578-2.526 2.21 0 12 0.3157 15.1 0.5788z"/></g></g><g transform="matrix(.05147 .001809 -.002121 .1179 123.7 148.3)"><path d="m247.9 121.4c-8.729-2.793-26.45-11.6-35.65-17.73-10.02-6.665-24.91-20.57-29.22-27.28-19.96-31.11-7.749-65.15 23.36-65.1 9.581 0.01542 17.8 4.792 23.84 13.85l1.57 2.357 1.598-3.091c2.232-4.316 7.843-9.703 12.84-12.33 6.044-3.174 19.15-3.164 26.17 0.02038 10.86 4.931 16.56 12.35 18.55 24.16 2.255 13.37-1.641 25.56-12.86 40.22-4.201 5.492-10.44 13.64-13.87 18.11-7.117 9.284-9.27 14.6-9.27 22.87 0 3.202-0.3375 5.798-0.75 5.768-0.4125-0.0296-3.254-0.8552-6.315-1.835z" fill="#e60813"/><path d="m345 137.3c0-0.55 1.485-1 3.3-1 3.499 0 5.7-1.476 5.7-3.822 0-1.127-0.3002-1.173-1.445-0.2232-0.7947 0.6596-2.482 1.052-3.75 0.8724-2.005-0.2842-2.294-0.8737-2.223-4.522 0.0452-2.308 0.653-4.883 1.35-5.724 1.627-1.961 7.882-3.167 9.263-1.786 1.46 1.46-0.655 12.95-2.826 15.35-1.795 1.983-9.37 2.675-9.37 0.8559zm8.737-7.25c0.54-0.6875 1.259-2.712 1.597-4.5 0.665-3.51-0.662-4.215-4.285-2.276-1.929 1.032-3.511 5.471-2.521 7.072 0.8415 1.362 4.05 1.179 5.208-0.296zm114.3 7.308c0-0.5184 1.909-1.081 4.241-1.25 2.951-0.214 4.335-0.7998 4.548-1.926 0.2418-1.276-0.4958-1.593-3.491-1.5-3.797 0.1183-3.798 0.1175-3.666-3.832 0.2012-6.031 6.649-10.57 11.05-7.771 1.656 1.053-1.156 14.3-3.391 15.97-1.941 1.454-9.287 1.697-9.287 0.3075zm8.872-7.403c0.6141-0.7399 1.4-2.765 1.747-4.5 0.5441-2.72 0.3482-3.155-1.423-3.155-2.923 0-5.196 2.657-5.196 6.071 0 2.198 0.4682 2.929 1.878 2.929 1.033 0 2.38-0.6054 2.994-1.345zm-198.8 1.595c0.0215-1.538 0.6992-5.058 2.503-13 0.281-1.238 1.16-2.25 1.953-2.25 1.348 0 1.839 1.263 4.263 10.96l0.8654 3.464 4.446-7.205c2.52-4.084 5.142-7.209 6.052-7.214 1.473-8e-3 1.471 0.67-0.0276 8.167-0.8989 4.497-2.142 8.345-2.762 8.552-1.098 0.3658-1.021-0.2957 1.241-10.73 0.3364-1.551-1.209 0.0858-4.071 4.312-2.537 3.747-5.133 6.639-5.767 6.428-0.6348-0.2116-1.876-3.277-2.757-6.812l-1.603-6.428-1.293 6.75c-0.7111 3.712-1.692 6.75-2.18 6.75s-0.8758-0.7875-0.8623-1.75zm23.22 0.5957c-2.783-2.783 8e-3 -10.19 4.24-11.25 5.547-1.392 8.45 3.026 5.659 8.613-1.326 2.656-2.324 3.351-5.149 3.589-1.927 0.1626-4.065-0.2649-4.75-0.95zm7.782-2.897c1.808-3.378 0.8486-6.448-2.014-6.448-2.717 0-5.632 4.447-4.629 7.061 0.8384 2.185 5.369 1.767 6.643-0.6123zm6.552-0.1984c-0.3716-2.338-0.9279-5.262-1.236-6.5-0.3961-1.59-0.1161-2.25 0.954-2.25 1.066 0 1.725 1.533 2.227 5.177l0.712 5.177 2.333-3.927c3.974-6.688 4.176-6.946 4.922-6.235 1.006 0.9594-6.334 12.81-7.935 12.81-0.7565 0-1.582-1.776-1.975-4.25zm10.42 2.799c0-3.214 2.225-11.55 3.083-11.55 1.194 0 1.157 1.783-0.1657 7.951-0.995 4.64-2.917 7.011-2.917 3.598zm5.485-0.7992c0.2878-1.238 0.8722-4.017 1.299-6.176 0.4264-2.16 1.396-4.133 2.155-4.386 0.9599-0.32 1.179 0.0636 0.7198 1.26-0.363 0.946-0.3222 1.555 0.0907 1.354 0.4129-0.2011 2-0.9915 3.528-1.756 4.059-2.033 5.127-0.4387 4.276 6.38-0.4962 3.971-1.127 5.575-2.192 5.575-0.9453 0-1.314-0.6438-1.003-1.75 2.125-7.546 1.622-9.947-1.805-8.632-1.962 0.7528-4.553 5.495-4.553 8.332 0 1.167-0.6544 2.05-1.519 2.05-1.064 0-1.362-0.6744-0.9957-2.25zm32.51 1.866c0-1.666 10.42-16.62 11.58-16.62 0.7595 0 1.66 1.238 2 2.75 1.046 4.646 2.512 10.66 3.046 12.5 0.3232 1.114-0.0367 1.75-0.99 1.75-0.8238 0-1.642-1.012-1.817-2.25-0.2288-1.611-1.101-2.34-3.07-2.566-3.447-0.3966-3.636-2.184-0.231-2.184 2.239 0 2.447-0.3062 1.871-2.75-1.107-4.696-1.815-4.404-5.926 2.447-3.384 5.639-6.464 8.936-6.464 6.92zm19.02-1.366c0.0215-1.538 0.6992-5.058 2.503-13 0.8645-3.807 2.773-2.661 2.043 1.227l-0.6523 3.477 3.007-1.726c2.727-1.565 3.152-1.58 4.57-0.1622 1.322 1.322 1.392 2.363 0.4514 6.749-1.438 6.704-3.375 6.935-2.461 0.293 0.4512-3.28 0.2929-5.127-0.4802-5.605-1.77-1.094-5.738 3.259-6.455 7.082-0.6602 3.519-2.569 4.778-2.526 1.665zm14.95 0.2183c-2.092-2.52 0.3428-8.942 3.957-10.44 3.953-1.637 7.069-0.5336 7.069 2.503 0 2.69-2.56 4.468-6.434 4.468-1.614 0-2.566 0.5564-2.566 1.5 0 1.566 0.9175 1.853 4.862 1.524 1.48-0.1234 2.112 0.2087 1.691 0.8893-1.005 1.626-7.124 1.309-8.58-0.4454zm8.58-6.555c1.017-1.645-1.089-3.195-3.361-2.474-1.105 0.3506-2.261 1.295-2.569 2.099-0.413 1.076 0.2068 1.462 2.349 1.462 1.6 0 3.212-0.4892 3.581-1.087zm4.092 7.399c-1.008-1.008-0.7591-4.968 0.4843-7.697 0.6214-1.364 2.413-3.011 3.981-3.66 3.415-1.414 8.302-0.4709 7.561 1.46-0.2808 0.7317-0.8141 3.355-1.185 5.83l-0.6747 4.499-4.76 0.1072c-2.618 0.059-5.051-0.1832-5.406-0.5381zm7.226-2.657c0.6141-0.7399 1.4-2.765 1.747-4.5 0.5441-2.72 0.3482-3.155-1.423-3.155-2.923 0-5.196 2.657-5.196 6.071 0 2.198 0.4682 2.929 1.878 2.929 1.033 0 2.38-0.6054 2.994-1.345zm6.795 2.679c-1.222-1.222-0.6866-6.86 0.8621-9.071 0.8457-1.207 3.137-2.484 5.129-2.858 2.308-0.433 3.775-1.344 4.088-2.54 0.6168-2.359 2.266-2.444 2.219-0.1145-0.0555 2.762-2.668 14.29-3.407 15.03-0.3669 0.3669-1.036 0.0696-1.488-0.6607-0.5744-0.9294-1.026-0.9958-1.505-0.221-0.746 1.207-4.828 1.512-5.899 0.4401zm8.19-5.606c1.663-4.382 1.212-5.213-2.346-4.32-4.681 1.175-5.905 9.077-1.303 8.412 1.509-0.2179 2.674-1.525 3.649-4.093zm14.62 4.022c3.136-13.81 3.14-13.52-0.2229-14.03-1.512-0.2291 0.4-0.4308 4.25-0.4481 4.439-0.02 5.903 0.2031 4 0.61-2.852 0.6098-3.07 1.023-4.423 8.382-0.9404 5.115-1.88 7.74-2.769 7.74-0.8805 0-1.169-0.778-0.835-2.25zm8.538 0.2705c-1.464-2.735-0.2726-6.67 2.736-9.036 6.529-5.136 12.41 1.731 7.18 8.381-2.622 3.333-8.283 3.707-9.916 0.6554zm8.803-4.891c0.3875-3.881-2.012-5.165-4.851-2.596-2.187 1.979-2.651 7.041-0.7128 7.77 2.254 0.8478 5.24-1.928 5.564-5.174zm18.9 6.251c-1.359-1.359-0.7063-7.168 1.036-9.227 3.687-4.357 11.33-3.141 9.839 1.565-0.6644 2.093-3.247 3.243-7.339 3.268-2.659 0.0161-2.95 1.523-0.5526 2.864 1.037 0.5805 2.626 0.5968 4.086 0.0418 1.777-0.6755 2.283-0.5859 1.975 0.3498-0.4493 1.366-7.881 2.302-9.045 1.138zm8.276-7.869c1.005-1.211 0.9098-1.613-0.5135-2.159-1.885-0.7232-4.614 0.5604-5.251 2.469-0.575 1.725 4.292 1.463 5.764-0.3096zm4.01 7.32c0-3.432 2.333-13.83 3.103-13.83 0.4935 0 0.8974 0.45 0.8974 1s0.675 1 1.5 1 1.5 0.45 1.5 1-0.6664 1-1.481 1c-1.371 0-1.918 1.286-2.767 6.5-0.1789 1.1 0.366 2.548 1.211 3.218 1.306 1.036 1.124 1.223-1.214 1.25-1.512 0.0175-2.75-0.4938-2.75-1.136zm7.694-2.082c1.933-9.756 2.936-13.13 4.009-13.48 0.8439-0.2813 1.022 0.6542 0.6088 3.2l-0.5838 3.597 3.093-1.775c4.416-2.535 5.62-0.9735 4.732 6.136-0.5052 4.043-1.118 5.575-2.232 5.575-0.9197 0-1.315-0.5728-0.9867-1.429 1.404-3.659 1.776-8.385 0.7114-9.043-2.208-1.365-5.999 2.326-6.665 6.489-0.377 2.358-1.187 3.983-1.984 3.983-0.9854 0-1.174-0.8729-0.7031-3.25zm14.82 1.281c-0.8309-2.618 0.2174-7.56 1.9-8.956 2.367-1.965 7.108-2.361 8.479-0.7092 2.739 3.3-0.5531 6.584-6.639 6.621-2.659 0.0161-2.95 1.523-0.5526 2.864 1.037 0.5805 2.626 0.5968 4.086 0.0418 1.777-0.6755 2.283-0.5859 1.975 0.3498-0.2275 0.6919-2.253 1.394-4.502 1.561-3.405 0.2527-4.198-0.0434-4.747-1.772zm8.48-6.519c1.005-1.211 0.9098-1.613-0.5135-2.159-1.885-0.7232-4.614 0.5604-5.251 2.469-0.575 1.725 4.292 1.463 5.764-0.3096zm4.01 7.037c0-3.214 2.225-11.55 3.083-11.55 0.5044 0 0.9171 0.6854 0.9171 1.523 0 1.333 0.3113 1.319 2.5-0.115 1.375-0.9009 2.5-1.209 2.5-0.6836 0 0.525-1.115 1.462-2.478 2.083-1.761 0.8026-2.807 2.439-3.619 5.661-1.079 4.287-2.904 6.222-2.904 3.081zm-202-14.55c0-0.55 0.45-1 1-1s1 0.45 1 1-0.45 1-1 1-1-0.45-1-1zm-303.7-13.55c-7.998-2.154-12.53-4.855-17.6-10.5-4.662-5.185-7.647-12.26-7.647-18.13v-2.818h19.84l1.204 3.75c2.372 7.387 8.564 11.27 19.19 12.03 12.76 0.916 20.76-3.583 20.76-11.67 0-7.166-6.211-10.76-28.65-16.56-15.98-4.132-21.14-6.402-25.28-11.12-6.055-6.896-7.898-22.93-3.613-31.44 2.975-5.904 9.502-11.83 15.51-14.09 11.72-4.399 31.34-4.21 41.35 0.3991 9.049 4.166 15.71 13.07 17.2 22.98l0.7077 4.719h-7.891c-8.704 0-11.32-1.131-13.83-5.982-2.144-4.145-6.589-6.916-13-8.1-11.51-2.128-20.85 2.246-22.17 10.38-0.5 3.081-0.1513 4.044 2.381 6.576 2.951 2.951 6.923 4.39 27.78 10.07 22.93 6.243 29.82 12.83 29.87 28.56 0.04913 17.1-8.818 27.74-26.17 31.39-7.242 1.523-23.57 1.288-29.95-0.4306zm91.75-4e-3c-16.21-4.496-27.62-17.65-31.6-36.45-1.899-8.956-1.374-26.83 1.007-34.3 5.166-16.2 16.6-27.66 31.61-31.71 2.462-0.6628 8.979-1.183 14.48-1.155 16.65 0.08287 28.35 4.958 36.43 15.17 2.245 2.84 4.082 5.561 4.082 6.047s-0.8695 2.808-1.932 5.16c-1.063 2.352-2.174 5.064-2.469 6.027-0.3727 1.216-1.538 1.736-3.818 1.705-4.951-0.06805-8.239-1.982-11.95-6.955-4.848-6.495-10.39-9-19.93-9-14.31 0-22.97 7.223-26.32 21.94-3.509 15.43-0.6591 30.86 7.277 39.4 3.964 4.267 9.858 6.866 16.84 7.427 11.81 0.9482 20.46-3.634 24.92-13.2 1.299-2.789 2.366-5.576 2.371-6.192 6e-3 -0.6943-2.942-1.295-7.74-1.577-4.262-0.2503-8.763-1.091-10-1.869-3.13-1.967-5.426-7.28-5.059-11.71l0.3089-3.725 31.21-0.5493 1.604 7.996c0.8821 4.398 3.198 11.45 5.147 15.67 3.428 7.419 3.544 8.057 3.544 19.53v11.86h-3.953c-2.174 0-5.077-0.5124-6.452-1.139-2.31-1.052-5.595-6.198-5.595-8.763 0-1.802-0.8974-1.285-4.099 2.361-1.671 1.903-5.589 4.708-8.707 6.234-4.873 2.384-7.075 2.809-15.68 3.028-6.629 0.1684-11.87-0.261-15.51-1.271zm282.2 0.057c-7.233-2.027-10.67-3.949-15.24-8.519-9.314-9.314-10.21-14.32-9.81-54.72l0.3212-32.23 2.753-2.752c2.413-2.412 3.672-2.799 10.19-3.128l7.439-0.3756 0.3076 36.36c0.2879 34.03 0.4353 36.61 2.308 40.29 3.421 6.732 6.23 8.065 17 8.065 10.49 0 13.25-1.232 17-7.605 1.886-3.201 2.018-5.499 2.306-40.15l0.3064-36.75h20.89v34.86c0 35.83-0.5416 42.49-4.046 49.73-2.982 6.159-10.52 13.09-16.94 15.57-7.253 2.807-26.86 3.563-34.79 1.342zm84.79-0.0478c-13.94-3.907-22.85-13.61-24.67-26.87l-0.6292-4.591h10.17c8.819 0 10.24 0.232 10.68 1.75 2.659 8.993 8.575 13.24 19.53 14.03 12.01 0.8595 20.09-2.977 21.16-10.05 1.188-7.85-5.901-12.36-28.61-18.21-13.58-3.496-20.32-6.131-24.02-9.381-3.327-2.925-6.705-11.01-7.311-17.49-0.899-9.628 1.523-16.63 7.994-23.1 6.048-6.048 11.45-8.274 23-9.487 16.9-1.774 32.01 2.519 38.73 11.01 3.665 4.627 6.949 12.64 6.949 16.95v2.989h-8.045c-8.743 0-8.801-0.0314-14.89-8.05-3.309-4.361-8.222-6.226-16.57-6.287-10.88-0.0802-16.5 3.871-16.5 11.61 0 2.832 0.6731 4.449 2.592 6.228 2.86 2.65 5.608 3.63 25.41 9.056 15.73 4.311 21.49 6.963 25.81 11.89 9.326 10.62 7.284 31.33-4.045 41.03-6.868 5.878-13.34 7.747-28.27 8.164-9.571 0.2676-14.44-0.0412-18.48-1.171zm-197-13.63 2e-3 -13.33 4.414-8.788c9.045-18.01 8.655-36.14-1.074-49.96-3.896-5.536-3.983-6.188-1.389-10.44 3.063-5.023 6.518-5.559 32.59-5.062 17.97 0.3427 24.09 0.807 28.22 2.141 12.59 4.074 19.07 15.95 16.15 29.59-0.9243 4.31-2.099 6.312-5.983 10.2l-4.833 4.833 2.777 1.436c11.13 5.757 15.14 21.37 9.093 35.42-2.77 6.439-8.02 11.23-15.59 14.24-5.596 2.22-7.296 2.35-35.13 2.7l-29.25 0.3674 2e-3 -13.33zm55.66-7.254c3.981-2.397 5.335-5.344 5.335-11.61 0-3.999-0.5341-5.535-2.81-8.083-2.486-2.783-3.611-3.217-9.75-3.766-3.817-0.3412-11.78-0.4788-17.69-0.306l-10.75 0.3143v26.08l16.25-0.3626c13.79-0.3076 16.73-0.6512 19.41-2.268zm-0.0759-44.88c3.49-4.062 3.407-11.41-0.1674-14.77-2.477-2.329-3.222-2.437-19-2.76l-16.42-0.3363v21.31l33.18-0.6346 2.411-2.806z" fill="#1c1c1a"/></g><g><path d="m151.7 174.1c1.806 0.2049 1.881 0.8095 1.863 1.843s-0.4618 1.715-2.013 1.687c-1.551-0.0279-2.146-0.4695-2.121-1.848 0.0248-1.378 0.6341-1.712 2.271-1.683z" fill="#da9718"/><path d="m96.37 145.6c1.44 0.1698 1.588 0.3302 1.616 1.193 0.02758 0.8623-0.04805 2.671-0.1482 3.445-0.1001 0.7738-0.3632 1.028-1.355 1.053-0.9916 0.0253-1.724 0.0121-2.671-0.048-0.9469-0.0601-1.028-0.3632-1.099-1.183-0.07143-0.82-0.119-2.263-0.01505-3.252 0.104-0.9892 0.3263-1.222 1.1-1.273 0.9024-0.0592 1.856-0.0182 2.572 0.0663z" fill="#1d1d1d"/><path d="m110.6 138.2c-0.0128 0.3739-0.4032 38.82-0.5995 56.97 2e-3 5e-5 2e-3 4e-5 5e-3 9e-5 0.3983 8e-3 0.4471 0.01 0.8478 0.0183 0.2263-18.87 0.5251-38.06 0.4762-56.96-0.1284-6e-3 -0.2598-0.0122-0.3884-0.0178-0.1123-5e-3 -0.2288-0.0101-0.3408-0.0149z" fill="#555"/><path d="m79.01 136.8c9.41e-4 0.2389 0.01878 1.887 0.01411 2.146-0.0044 0.245-0.3344 46.32-0.4258 55.5 0.1234 7e-3 0.2473 0.0127 0.3832 0.0152 0.01405 2.6e-4 0.3495 7e-3 0.3668 8e-3 9e-3 -0.2322 0.01621-0.4698 0.02061-0.7144 0.07441-4.136 0.2571-55.2 0.286-56.93-0.1983-8e-3 -0.4514-0.0199-0.645-0.0281z" fill="#555"/></g><g transform="rotate(1.031 77.5 135)" fill="#242424"><path d="m1.559 73.12c0.4854-0.01278 0.511 0.02556 0.5365 0.4599 0.02555 0.4343 0 1.009 0 1.265 0 0.2555-0.115 0.4982-0.511 0.511-0.396 0.01278-0.5876 0-0.626-0.4216-0.03832-0.4216-0.02555-1.226-0.01277-1.495 0.01277-0.2683 0.1277-0.2938 0.6132-0.3194z"/><path d="m3.705 73.02c0.4854-0.01278 0.511 0.02556 0.5365 0.4599 0.02555 0.4343 0 1.009 0 1.265 0 0.2555-0.115 0.4982-0.511 0.511-0.396 0.01278-0.5876 0-0.626-0.4216-0.03832-0.4216-0.02555-1.226-0.01278-1.495 0.01278-0.2683 0.1277-0.2938 0.6132-0.3194z"/><path d="m5.749 72.89c0.4854-0.01278 0.511 0.02556 0.5365 0.4599 0.02555 0.4343 0 1.009 0 1.265 0 0.2555-0.115 0.4982-0.511 0.511-0.396 0.01278-0.5876 0-0.626-0.4216-0.03832-0.4216-0.02555-1.226-0.01278-1.495 0.01278-0.2683 0.1277-0.2938 0.6132-0.3194z"/><path d="m7.818 72.76c0.4854-0.01278 0.511 0.02556 0.5365 0.4599 0.02555 0.4343 0 1.009 0 1.265 0 0.2555-0.115 0.4982-0.511 0.511-0.396 0.01278-0.5876 0-0.626-0.4216-0.03832-0.4216-0.02555-1.226-0.01278-1.495 0.01278-0.2683 0.1277-0.2938 0.6132-0.3194z"/><path d="m9.913 72.61c0.4854-0.01278 0.511 0.02556 0.5365 0.4599 0.02555 0.4343 0 1.009 0 1.265 0 0.2555-0.115 0.4982-0.511 0.511-0.396 0.01278-0.5876 0-0.626-0.4216-0.03832-0.4216-0.02555-1.226-0.01278-1.495 0.01278-0.2683 0.1277-0.2938 0.6132-0.3194z"/><path d="m12.01 72.56c0.4854-0.01278 0.511 0.02556 0.5365 0.4599 0.02555 0.4343 0 1.009 0 1.265 0 0.2555-0.115 0.4982-0.511 0.511-0.396 0.01278-0.5876 0-0.626-0.4216-0.03832-0.4216-0.02555-1.226-0.01277-1.495 0.01277-0.2683 0.1277-0.2938 0.6132-0.3194z"/><path d="m14.15 72.46c0.4854-0.01278 0.511 0.02556 0.5365 0.4599 0.02555 0.4343 0 1.009 0 1.265 0 0.2555-0.115 0.4982-0.511 0.511-0.396 0.01278-0.5876 0-0.626-0.4216-0.03832-0.4216-0.02555-1.226-0.01277-1.495 0.01277-0.2683 0.1277-0.2938 0.6132-0.3194z"/><path d="m16.28 72.46c0.4854-0.01278 0.511 0.02556 0.5365 0.4599 0.02555 0.4343 0 1.009 0 1.265 0 0.2555-0.115 0.4982-0.511 0.511-0.396 0.01278-0.5876 0-0.626-0.4216-0.03832-0.4216-0.02555-1.226-0.01277-1.495 0.01277-0.2683 0.1277-0.2938 0.6132-0.3194z"/><path d="m16.28 72.46c0.4854-0.01278 0.511 0.02556 0.5365 0.4599 0.02555 0.4343 0 1.009 0 1.265 0 0.2555-0.115 0.4982-0.511 0.511-0.396 0.01278-0.5876 0-0.626-0.4216-0.03832-0.4216-0.02555-1.226-0.01277-1.495 0.01277-0.2683 0.1277-0.2938 0.6132-0.3194z"/></g><g><path d="m61.37 178.2c3.792 0.1405 5.897 5.671 5.752 11.7-0.1447 6.033-2.78 11.91-6.609 11.81-3.829-0.105-5.611-5.486-5.378-12.42 0.2332-6.934 3.851-11.17 6.235-11.09z" fill="#b2b2b2"/><path d="m61.37 178.2c-2.384-0.079-6.002 4.156-6.235 11.09-0.2332 6.934 1.549 12.31 5.378 12.42 0.737 0.0202 1.429-0.1833 2.068-0.5649 0.9766-1.821 1.62-3.835 2.076-5.093 0.6734-1.855 0.2834-12.8 0.2834-12.8-1.597-2.66-2.271-4.033-2.62-4.897-0.3044-0.0909-0.6208-0.1465-0.9512-0.1587z" fill="#a4a4a4"/><path d="m62.89 181.8c-2.638-0.0113-4.376 4.222-4.471 7.472-0.09463 3.251 0.5497 9.623 3.188 9.634 2.638 0.0113 4.439-5.702 4.526-8.52 0.08682-2.817-0.175-8.351-3.243-8.587z" fill="#989898"/><path d="m62.77 186.4c-1.626 7e-3 -2.349 1.982-2.349 4.005-2.7e-4 2.024 0.4027 3.73 1.523 3.714 1.121-0.0159 2.263-1.224 2.375-3.427 0.1119-2.202 0.0038-4.228-1.549-4.292z" fill="#1b1b1b"/></g><g transform="rotate(1.031 77.5 135)"><path d="m61.62 199.9c0.7919-0.6976 0.9239-0.6222 1.207-0.4902 0.2828 0.132-0.01886 0.6222-0.3017 0.8862-0.2828 0.264-0.7919 0.7354-1.207 0.528-0.4148-0.2074-0.05656-0.5845 0.3017-0.9239z" fill="none"/><g fill="#222"><path d="m61.62 199.9c0.7919-0.6976 0.9239-0.6222 1.207-0.4902 0.2828 0.132-0.01886 0.6222-0.3017 0.8862-0.2828 0.264-0.7919 0.7354-1.207 0.528-0.4148-0.2074-0.05656-0.5845 0.3017-0.9239z"/><path d="m57.28 196c0.5989 0.6994 1.207 0.2263 1.735-0.3017 0.5279-0.528 0.3394-1.112-0.03771-1.471-0.3771-0.3582-0.8889-0.2696-1.471 0.264-0.4818 0.4418-0.5494 1.131-0.2263 1.508z"/><path d="m59.15 186.6c0.5845-0.6034 0.6222-1.056-0.03771-1.659-0.6599-0.6034-1.056-0.5279-1.433-0.2451-0.3771 0.2828-0.396 0.9616 0.05656 1.584 0.4525 0.6222 0.8673 0.8862 1.414 0.3205z"/><path d="m62.35 181c-0.5091-0.5657-0.5091-0.7919-0.2263-0.9616 0.2828-0.1697 0.4902-0.0754 0.9428 0.3205 0.4525 0.396 0.4148 0.8108 0.2074 1.018-0.2074 0.2074-0.6411-0.132-0.9239-0.3771z"/></g></g><g transform="rotate(1.031 77.5 135)" fill="#a4a4a4"><path d="m61.92 185.2c0.9866 0.0267 0.9066 0.08 0.9066 0.72 0 0.64-0.2933 0.5333-0.88 0.56-0.5866 0.0267-0.72-0.2133-0.72-0.72s0.1333-0.5333 0.6933-0.56z"/><path d="m65.36 185.3c0.9866 0.0267 0.9066 0.08 0.9066 0.72 0 0.64-0.2933 0.5333-0.88 0.56-0.5866 0.0267-0.72-0.2133-0.72-0.72s0.1333-0.5333 0.6933-0.56z"/><path d="m66.8 190.4c0.9866 0.0267 0.9066 0.08 0.9066 0.72 0 0.64-0.2933 0.5333-0.88 0.56-0.5866 0.0267-0.72-0.2133-0.72-0.72s0.1333-0.5333 0.6933-0.56z"/><path d="m65.22 195.1c0.9866 0.0267 0.9066 0.08 0.9066 0.72 0 0.64-0.2933 0.5333-0.88 0.56-0.5866 0.0267-0.72-0.2133-0.72-0.72s0.1333-0.5333 0.6933-0.56z"/><path d="m61.94 194.8c0.9866 0.0267 0.9066 0.08 0.9066 0.72 0 0.64-0.2933 0.5333-0.88 0.56-0.5866 0.0267-0.72-0.2133-0.72-0.72s0.1333-0.5333 0.6933-0.56z"/><path d="m60.61 190.2c0.9866 0.0267 0.9066 0.08 0.9066 0.72 0 0.64-0.2933 0.5333-0.88 0.56-0.5866 0.0267-0.72-0.2133-0.72-0.72s0.1333-0.5333 0.6933-0.56z"/></g><g transform="matrix(.9599 .01727 -.01799 .9998 9.19 -1.251)"><path d="m162.8 201.8c4.412-0.0377 5.883-5.845 5.996-11.16 0.1131-5.317-2.15-11.69-5.77-11.84-3.62-0.1508-6.411 4.488-6.486 11.2-0.0754 6.712 3.507 11.8 6.26 11.8z" fill="#a5a5a5"/><path transform="scale(.2646)" d="m605.1 679.9c-0.9704 0.8112-1.901 1.737-2.787 2.768-0.0189 0.022-0.0378 0.0443-0.0566 0.0664-0.4348 0.5091-0.8587 1.042-1.271 1.602-0.4234 0.5742-0.8354 1.175-1.234 1.801-0.3907 0.6128-0.7686 1.251-1.135 1.912-0.014 0.0253-0.0271 0.0508-0.041 0.0762-0.728 1.321-1.406 2.735-2.029 4.236-0.0255 0.0615-0.0508 0.1238-0.0762 0.1855-0.2854 0.6952-0.5605 1.409-0.8223 2.141-0.0213 0.0597-0.0433 0.1178-0.0645 0.1777-0.2768 0.7825-0.5402 1.584-0.7891 2.406-0.0183 0.0604-0.0346 0.123-0.0527 0.1836-0.2183 0.7298-0.4235 1.479-0.6191 2.238-0.0417 0.1619-0.0844 0.3231-0.125 0.4863-0.4087 1.641-0.7623 3.35-1.061 5.119-0.0388 0.2301-0.0745 0.4631-0.1113 0.6953-0.1221 0.7695-0.2354 1.548-0.3359 2.34-0.0143 0.1125-0.0311 0.223-0.0449 0.3359-0.1153 0.9412-0.2149 1.898-0.2988 2.869-0.0142 0.164-0.0238 0.3313-0.0371 0.4961-0.0624 0.7755-0.1142 1.56-0.1562 2.354-0.0148 0.2791-0.0288 0.5586-0.041 0.8398-0.0418 0.963-0.0748 1.934-0.0859 2.922-0.01 0.8827-1e-3 1.778 0.0234 2.68 5e-3 0.1801 0.0152 0.3577 0.0215 0.5371 0.0226 0.6513 0.056 1.307 0.0957 1.965 0.0318 0.5023 0.0651 1.002 0.1074 1.498 0.0111 0.1412 0.0252 0.2824 0.0371 0.4238 1.286 14.04 6.719 25.56 12.94 31.98 10.31-6.727 13.82-26.44 14.28-37.08 0.522-12.01-6.441-33.63-14.23-40.25z" fill="#808080"/><path transform="scale(.2646)" d="m599.3 686.8c-4.57 7.502-7.409 18.43-7.555 31.42-0.1475 13.13 3.412 24.61 8.32 32.64 5.039-4.975 9.615-20.68 9.494-32.5-0.1291-12.65-3.311-21.79-10.26-31.56z" fill="#acacac"/><path transform="matrix(.2756 0 0 .2646 -7.032 0)" d="m597.1 695.2c-2.15 6.453-3.416 14.24-3.51 22.97-0.0808 7.493 0.9985 14.45 2.814 20.53 6.184-5.242 6.305-13.72 6.305-20.81 0-6.807-2.112-17.07-5.61-22.69z" fill="#2a2a2a"/></g><g fill="#c9791a"><g transform="matrix(.6918 .004102 0 .6918 64.04 44.01)"><path d="m-88.47 71.08c-1.427 0.03629-1.795 0.7512-1.918 1.891-0.1314 1.216 0.608 1.429 0.5752 2.037s-0.6736 0.4761-0.7886 1.971c-0.115 1.495 0.7885 2.53 2.086 2.579 1.298 0.04928 2.218-0.8543 2.333-2.415 0.115-1.561-0.6901-1.741-0.6408-2.382 0.04928-0.6406 0.4601-0.4596 0.5586-1.494 0.09856-1.035-0.3131-2.129-1.906-2.185-0.1048-0.0037-0.2046-0.0045-0.2997-0.0021zm0.1194 1.119c0.6571 0.01643 1.035 0.2961 0.9689 1.068-0.06571 0.772-0.3286 1.051-0.9364 1.018-0.6078-0.03285-1.068-0.3614-1.002-1.084 0.06571-0.7228 0.3288-1.002 0.9694-1.002zm-0.03307 3.581c0.6571 0.01643 1.035 0.2956 0.9694 1.068-0.06571 0.772-0.3286 1.051-0.9364 1.019-0.6078-0.03285-1.068-0.3614-1.002-1.084 0.06571-0.7228 0.3283-1.002 0.9689-1.002z"/><path d="m-83.67 71c1.511 0.04928 2.02 1.117 1.922 2.661-0.09856 1.544-0.2464 1.593-0.9527 2.3-0.7063 0.7063-0.9199 1.051-1.248 1.478-0.3285 0.4271-0.3285 0.7063 0.2464 0.7228 0.5749 0.01643 1.216-0.03285 1.544-0.01643 0.3285 0.01643 0.3942 0.1643 0.3614 0.6242-0.03285 0.4599-0.115 0.5585-0.4764 0.5749-0.3614 0.01643-2.858-0.03285-3.236-0.04928-0.3778-0.01643-0.4435-0.03285-0.4435-0.7392 0-0.7063 0.09856-1.035 0.4764-1.495 0.3778-0.4599 1.561-1.758 2.119-2.398 0.5585-0.6406 0.6735-2.283-0.1643-2.333-0.8378-0.04928-1.068 0.7556-1.084 1.298-0.01643 0.5421-0.1807 0.6899-0.6078 0.6735-0.4271-0.01643-0.6242-0.08213-0.6406-0.5585-0.01642-0.4764 0.04928-1.183 0.3285-1.626 0.2793-0.4435 0.9035-1.101 1.856-1.117z"/><path d="m-77.69 71.15c0.5749 0.03353 0.5914 0.08374 0.5585 0.6193-0.03285 0.5356-0.1971 0.5857-0.4928 0.5857s-1.659-0.06713-2.053-0.08391c-0.3942-0.01678-0.3778 0.1004-0.4271 0.569-0.04928 0.4686-0.08213 0.7029-0.09856 1.071-0.01643 0.3682 0.2957 0.5523 0.345 0.2009 0.04928-0.3515 0.23-0.636 1.018-0.6024 0.7885 0.03356 1.643 0.7031 1.676 1.975 0.03285 1.272-0.03285 1.774-0.1314 2.427-0.09856 0.6527-0.6571 1.506-1.955 1.456-1.298-0.05035-2.103-1.222-2.086-1.774 0.01642-0.5523 0.08213-0.6862 0.5749-0.6526 0.4928 0.03352 0.6735 0.06702 0.6899 0.3683 0.01643 0.3013 0.09856 0.8034 0.7885 0.8536 0.6899 0.05029 1.051-0.6191 1.101-1.456s-0.23-1.724-0.7885-1.741c-0.5585-0.0168-0.772 0.2844-0.8378 0.5857-0.06571 0.3012-0.04928 0.4017-0.7063 0.3514-0.6571-0.05028-0.6899-0.1172-0.7063-0.5189-0.01642-0.4017 0.23-3.531 0.2793-3.849 0.04928-0.318 0.1478-0.4686 0.5749-0.4686 0.8994 0.01221 1.801 0.05155 2.678 0.08398z"/></g><g transform="matrix(.7605 .01157 0 .7605 71.73 40.07)"><path d="m-125.8 72.69c0.4586 0.0086 0.5777-0.1086 0.5288 0.4731-0.0837 0.9954-0.3928 1.087-0.6648 1.402-0.272 0.315-0.3777 0.4253-0.4533 1.465-0.0755 1.04-0.2115 1.119-0.5288 1.134-0.3173 0.01556-0.408-0.1263-0.408-0.5203s0.0151-0.5988 0.0454-1.04c0.0302-0.4412-0.1058-0.788-0.5439-1.151-0.4382-0.3628-0.559-0.6938-0.5137-1.198 0.0454-0.5043 0.0907-0.6303 0.5893-0.6142 0.4986 0.01609 0.5288 0.1422 0.4986 0.5519-0.0302 0.4097-0.0151 0.788 0.408 0.804 0.4231 0.01604 0.448-0.07766 0.4835-0.6301 0.0392-0.6104 0.1478-0.685 0.559-0.6773z"/><path d="m-124.4 72.6c0.4995-0.01162 0.604 0.05808 0.6156 0.5111 0.0116 0.453-0.151 3.113-0.1858 3.519-0.0348 0.4065-0.0581 0.4995-0.4762 0.4995-0.4182 0-0.6737 0.05808-0.6621-0.3949 0.0116-0.453 0.1975-3.078 0.2555-3.543 0.0581-0.4646 0.0813-0.5808 0.453-0.5924z"/><path d="m-121.9 72.58c-0.755 1.91e-4 -1.196 0.3205-1.289 0.9145-0.093 0.594-0.1274 1.519-0.1158 2.341s0.5111 1.268 1.313 1.29c0.8015 0.02264 1.138-0.6169 1.196-1.04 0.0581-0.4226 0.139-1.656 0.139-2.17 0-0.514-0.2207-1.302-1.243-1.336zm-0.0217 0.7541c0.3022 0.02277 0.3147 0.09147 0.3064 0.4227-8e-3 0.3312-0.1204 1.884-0.1514 2.261-0.0311 0.3769-0.134 0.4914-0.3085 0.4686-0.1745-0.0228-0.2337-0.126-0.2362-0.3658-2e-3 -0.2399 0.0704-2.193 0.1142-2.456 0.0438-0.2627 0.0313-0.3428 0.2754-0.3314z"/><path d="m-117.2 72.54c0.9035 0.0657 1.002 0.6899 1.018 1.084 0.0164 0.3942-0.1091 0.4411-0.3554 0.4483-0.3974 0.01162-0.3181-0.8918-0.8109-0.8918-0.4928 0-0.5092 0.3285-0.6078 1.018-0.0986 0.6899-0.0657 1.331-0.0493 1.758 0.0164 0.4271 0.3121 0.6571 0.6078 0.6571s0.3778-0.2957 0.4107-0.5585c0.0328-0.2628 0.1478-0.345 0.4435-0.3285 0.2957 0.01643 0.2464 0.3614 0.1807 0.7392-0.0657 0.3778-0.3614 0.8378-1.084 0.8213-0.7228-0.01643-1.199-0.7228-1.331-1.478-0.1314-0.7556-0.0164-1.988 0.1314-2.513 0.1478-0.5257 0.5421-0.7885 1.446-0.7556z"/><path d="m-114.6 73.06c-0.0105 0.2934-0.0232 0.9364-0.0232 1.128s0.0232 0.3385 0.2443 0.3497c0.221 0.01128 0.314 0.01128 0.3606-0.2708 0.0466-0.2821 0.0698-1.331 0.0814-1.478 0.0116-0.1467 0.128-0.1805 0.4304-0.1805 0.3024 0 0.3722 0.09025 0.3838 0.361 0.0116 0.2708-0.093 3.418-0.093 3.712 0 0.2933-0.093 0.5077-0.3373 0.4964-0.2443-0.01128-0.5234-0.05641-0.5118-0.3385 0.0116-0.282 0.0349-1.23 0.0349-1.467 0-0.2369-1e-5 -0.3272-0.2559-0.3385-0.2559-0.01129-0.3373 0.02256-0.3722 0.361-0.0349 0.3385-0.0814 1.264-0.0814 1.455 0 0.1918 0 0.282-0.4071 0.282s-0.5816-0.06769-0.5583-0.4287c0.0232-0.361 0.1892-3.335 0.2443-3.746 0.0397-0.2966 0.1213-0.3866 0.3373-0.3723 0.3765 0.02486 0.5333 0.1989 0.5234 0.4738z"/><path d="m-111.9 72.52c0.4599 0 0.3554 0.1034 0.3554 0.4976 0 0.3942-0.0821 2.464-0.0821 2.842 0 0.3778 0.0328 0.5585 0.3121 0.5914 0.2793 0.03285 0.3285 0.01643 0.3942-0.3942 0.0657-0.4107 0.1478-2.727 0.1643-3.137 0.0164-0.4107 0.0986-0.4107 0.3778-0.4107 0.2792 0 0.3121 0.115 0.3285 0.6078 0.0164 0.4928-0.0986 2.283-0.1643 2.908-0.0657 0.6242-0.2464 1.183-1.051 1.133-0.8049-0.04928-1.15-0.4107-1.15-1.298s0.0858-2.53 0.115-2.924c0.0337-0.4552 0.15-0.4141 0.4002-0.4155z"/><path d="m-107.3 72.48c0.2903 0.0025 0.3833 0.05808 0.3717 0.3833-0.0116 0.3252-0.0116 0.8015-0.0232 1.08s0 0.4762 0.2091 0.4646c0.2091-0.01162 0.3601-0.08131 0.3717-0.3601 0.0116-0.2788 0.1162-1.022 0.1162-1.22s0.151-0.2439 0.3601-0.2439c0.2091 0 0.4065 0.02323 0.3949 0.3717-0.0116 0.3485-0.0349 0.8479-0.0349 1.08 0 0.2323-0.3949 0.4182-0.3949 0.6969 0 0.2788 0.3833 0.4182 0.3601 0.755-0.0232 0.3368-0.0697 0.9873-0.0813 1.173s-0.0929 0.2788-0.3833 0.2672c-0.2904-0.01162-0.4298-0.04646-0.4182-0.3368 0.0116-0.2904 0.0581-0.7085 0.0581-1.022 0-0.3136-0.0116-0.5924-0.302-0.6156-0.2904-0.02323-0.2904 0.2323-0.302 0.4995-0.0116 0.2672-0.0116 0.7898-0.0116 1.057 0 0.2672-0.1045 0.3368-0.4646 0.3252-0.3601-0.01162-0.5111-0.01162-0.5111-0.4065 0-0.3949 0.2044-2.944 0.2439-3.45 0.0292-0.3736 0.1878-0.5017 0.4414-0.4995z"/><path d="m-103.5 72.45c-0.2535-0.0042-0.4245 0.1591-0.6684 0.349-0.4439 0.3457-0.5052 0.3905-0.5434 1.219-0.0383 0.8292-0.0631 1.66-0.0925 2.489-9e-3 0.2608 0.151 0.3698 0.5343 0.3695s0.3364-0.2938 0.3829-0.6852c0.0465-0.3914 0.0233-0.5327 0.2904-0.5221 0.2672 0.01061 0.2904 0.3363 0.2672 0.7711-0.0232 0.4349 0.2555 0.4892 0.5111 0.4889 0.2555-2.5e-4 0.3716-0.07665 0.3948-0.4245 0.0232-0.3479 0.1049-1.892 0.0817-2.435-0.0232-0.5435-0.0412-0.7092-0.4478-1.209-0.2541-0.3123-0.4228-0.4059-0.7103-0.4107zm-0.0667 1.4c0.0267-0.0023 0.0566-1.5e-5 0.0904 0.0057 0.271 0.04586 0.3119 0.2608 0.2708 0.6913-0.0411 0.4305-0.0411 0.5072-0.386 0.4845-0.1725-0.0075-0.2298-0.07643-0.2052-0.5453 0.0216-0.4103 0.0433-0.6208 0.23-0.6362z"/><path d="m-101.5 72.99c0.0329-0.5257 0.0411-0.6078 0.3942-0.5914 0.3532 0.01643 0.3942 0.1643 0.3942 0.4435s8e-3 0.7967 0.3778 1.232c0.3696 0.4353 0.616 0.4107 0.6489 0.02463 0.03285-0.386 0.06571-0.9445 0.09035-1.24 0.02464-0.2957 0.2218-0.3285 0.4189-0.3367 0.1971-0.0082 0.3203 0.02463 0.3203 0.3614 0 0.3367-0.115 3.17-0.1314 3.466-0.01642 0.2957-0.1068 0.501-0.3778 0.4928-0.271-0.0082-0.386-0.115-0.3696-0.345 0.01642-0.23 0.03285-0.4435 0.04107-0.616 0.0082-0.1725-0.09856-0.3614-0.3942-0.5257-0.2957-0.1643-0.6324-0.4353-0.6488 0.2875-0.0161 0.7085-8e-3 0.7638-0.0164 0.9692-7e-3 0.1835-0.1396 0.1889-0.4682 0.1807-0.3285-0.0082-0.3696-0.115-0.3696-0.4435 0-0.3285 0.0657-3.014 0.0903-3.359z"/><path d="m-96.71 72.41c0.6653 0.03285 1.068 0.5914 1.125 0.9363 0.05749 0.345-0.0082 0.4599-0.2053 0.4517-0.1971-0.0082-0.2546-0.5749-0.731-0.6242-0.4764-0.04928-0.6078 0.1725-0.6899 0.7063-0.08213 0.5339-0.1068 1.429-0.09856 1.832 0.0082 0.4024 0.1314 0.5256 0.5503 0.5503 0.4189 0.02463 0.5996-0.1807 0.5996-0.6242 0-0.4435-0.08213-0.5339-0.2546-0.5421-0.1725-0.0082-0.2464-0.06571-0.23-0.345 0.01642-0.2793 0.05749-0.3942 0.3203-0.4107 0.2628-0.01643 0.4517-0.01643 0.6489-0.0082 0.1971 0.0082 0.1971 0.2053 0.1889 0.4846-0.0082 0.2793 0.1068 2.094-1.331 2.053-1.437-0.04107-1.519-1.142-1.421-2.357 0.09856-1.216 0.6899-2.094 1.528-2.103z"/></g></g></g></svg>
