<svg width="1928" height="997.2" version="1.1" viewBox="0 0 1928 997.2" xmlns="http://www.w3.org/2000/svg"><g transform="translate(-211.1 -618.9)"><g><path d="m354.3 1512c30.2 28.47 45.73 39.69 91.45 42.28 45.73 2.588 83.69-3.451 100.1-3.451s161.3 13.8 203.6 17.26c42.28 3.451 262.3-0.8628 281.3-1.726s300.2-6.902 330.4-8.628c30.2-1.726 54.36-17.26 59.53-29.33 5.177-12.08-534.1-18.12-534.1-18.12s-509.9 12.94-532.3 1.726z" fill="#0a0a0a"/><path d="m484.1 1492c28.06 107.4 75.65 123.2 135.4 124.5 59.79 1.22 130.6-35.38 139.1-108.6 8.541-73.21-274.5-15.86-274.5-15.86z" fill="#111"/><path d="m1204 1528c21.96 50.64 40.88 65.28 98.83 68.33 57.96 3.05 78.7-48.2 85.41-69.55 6.711-21.35-184.2 1.22-184.2 1.22z" fill="#111"/><path d="m1241 1454-143.4-120.8s170.8-96.39 159.8 14.64c-10.98 111-16.47 106.2-16.47 106.2z" fill="#0e0e0e"/><path d="m1119 1610c-88.46-2.44-120.2-33.55-126.3-76.26-6.101-42.71 134.8-141.5 134.8-141.5z" fill="#0e0e0e"/><path d="m1120 1611c86.63-1.22 121.4-66.5 123.8-133.6 2.44-67.11-60.4-134.2-119.6-134.8s-98.83 57.35-101.9 123.2-14.64 146.4 97.61 145.2z" fill="#161616"/><path d="m1747 1362s73.36 156.6 79.77 157.6c6.406 0.9151 20.44 0 24.71-1.22 4.27-1.22 0.305-182.7 0.305-182.7s-48.81-27.15-76.56-13.42c-27.76 13.73-28.98 37.52-28.98 37.52z" fill="#111"/><path d="m1798 1345c-49.72 0-56.58-0.1526-66.04 8.389-9.456 8.541-122.6 142.1-117.7 166.2 4.881 24.1 5.957 44.85 25.32 60.09 14.34 11.29 44.23 8.541 69.55 8.541s80.53-0.6101 86.63-0.9151-5.796-48.5-5.796-48.5z" fill="#1b1b1b"/><path d="m1584 1531c-24.65 0.541-134.2 2.46-150.8 1.664s-10.47-66.83-10.47-66.83l0.3269-548.2 170.6 7.192s12.69 597.8-9.674 606.2z" fill="#1c1c1c"/><path d="m874 1533c30.05 2.774 178 4.623 188.2 4.623 10.17 0 2.774-656 2.774-656l-194.2 5.086-4.161 178.5z" fill="#1c1c1c"/><path d="m879.6 939.5c0.4623 40.68 2.774 137.8 3.236 166s2.886 190.3 2.83 195.6c-0.056 5.3-20.63 1.37-20.63 1.37s-45.08-78.6-44.15-116c0.9247-37.45 2.774-197.4 2.774-197.4l4.623-47.62z" fill="#151515"/><path d="m896.7 741.6v64.08l232.8 6.538v-64.08z" fill="#102504"/><path d="m1977 820-848.7-44.46 15.69 35.31 852.6 53.61z" fill="#96ef65"/><path d="m1990 724.1c-59.18-3.93-203.7-11.56-273.5-9.94s-180.5 9.478-196.5 12.02c-15.95 2.543-20.8 5.548-29.59 13.87-8.784 8.322 45.08 6.473 45.08 6.473l413.8 40.92 23.12-7.86z" fill="#87ed4e"/><path d="m1899 728.4c10.86 0 11.79 1.156 8.784 7.166-3.005 6.01-19.19 39.07-21.5 41.38-2.312 2.312-286.2-19.65-284.3-26.82s4.623-11.33 6.241-14.1c1.618-2.774 3.236-3.236 8.091-3.236 4.854 0 270.7-4.161 282.7-4.392z" fill="#f2f3f1"/><path d="m1408 715.4c-45.44-2.288-145.8-1.635-170 3.923-24.19 5.558 171.6 16.35 171.6 16.35z" fill="#87ed4e"/><path d="m1377 744.8c18.96-30.73 20.6-29.42 31.06-29.42s21.9 11.77 25.5 26.48c3.596 14.71-56.56 2.942-56.56 2.942z" fill="#7ae140"/><path d="m1588 1254c0-24.04-2.774-301-3.236-311.1-0.4623-10.17-2.312-12.02-10.17-12.48-7.86-0.4623-123-7.397-133.2-7.397s-10.63 3.236-10.17 10.63 5.086 307.4 4.623 318.1c-0.4623 10.63-376.3 10.17-375.9-6.935 0.4624-17.11-5.086-326.9-5.086-335.7s-1.387-11.1-10.63-11.56-143.8-8.322-152.1-7.86c-8.322 0.4623-11.56 3.236-12.48 15.26-0.9246 12.02-0.4623 30.98-0.4623 38.84 0 7.86-0.9247 10.17-7.397 10.17-6.473 0-39.76-1.387-45.31-7.86s21.27-142.4 21.27-142.4l1279 81.83 1.04 7.628 0.809 56.06 1.156 157.1 0.2311 226.3-106.8-3.467-1.387-62.65z" fill="#161616"/><path d="m263.8 768-12.02 171.1 573.7 2.312 9.709-177.5-345.8-18.96z" fill="#171717"/><path d="m284.7 767.1c-5.884 20.27-7.192 45.11-8.5 71.27-1.308 26.15-5.884 93.82-4.904 98.07 0.9807 4.25 524 6.538 528 3.269 3.923-3.269 4.904-3.596 5.231-15.37 0.327-11.77 8.827-150.7 9.154-155.6s-260.9-21.9-260.9-21.9z" fill="#202020"/><path d="m1960 781.6c-4.854-18.03-3.699-39.76 0-47.39 3.699-7.628 11.79-11.1 29.13-10.4 17.34 0.6935 69.58 4.854 84.61 7.628 15.03 2.774 25.2 12.02 34.44 30.74 9.247 18.72-148.2 19.42-148.2 19.42z" fill="#7ae140"/><path d="m1954 780.9c9.015-2.08 11.1-5.086 14.1-15.03s6.935-21.04 19.19-24.73c12.25-3.699 57.1 0.2312 72.59 2.08s28.2 3.236 36.76 7.628c8.553 4.392 12.48 10.86 16.88 23.58 4.392 12.71 13.18 43.69 13.87 55.48 0.6935 11.79 1.618 28.66 1.618 34.67 0 6.01-178.5 7.397-179.2-10.86-0.6935-18.26 4.161-72.82 4.161-72.82z" fill="#6ed235"/><path d="m1178 782.8c-2.312 17.8-3.93 21.73-2.312 26.82 1.618 5.086 10.4 2.312 12.25-5.548s3.236-18.96 4.392-23.12 31.44-1.156 31.21 4.392c-0.2311 5.548-0.6935 11.33-0.6935 15.26s11.1 6.473 11.56 3.93c0.4624-2.543 1.849-23.35 1.849-23.35s34.21 6.473 34.21 9.478-0.6935 5.317-1.156 11.33c-0.4623 6.01 7.628 10.63 9.709 6.473 2.08-4.161 3.467-16.87 3.699-20.34s33.06-0.2312 33.06 4.623c0 4.854-2.312 18.96-0.9247 20.11s9.478 9.478 14.33-16.41c4.854-25.89 31.44-8.091 31.44-1.156s-2.08 23.12-0.2312 23.35 11.79 0.2312 12.48-5.086 0-18.96 0.9246-24.73c0.9247-5.779 30.05 4.854 30.28 11.1s-0.9247 19.42 0 20.57 12.02 4.392 12.71-1.618c0.6935-6.01-0.6935-25.43 0.4623-26.58 1.156-1.156 33.29 5.779 33.98 11.1 0.6934 5.317-0.2312 11.56 0 15.03 0.2311 3.467 11.1 8.553 11.33 2.774 0.2312-5.779 0.4623-24.27 0.6935-27.28 0.2311-3.005 31.9 6.241 31.9 11.56 0 5.317-0.6935 16.87-0.4623 19.65 0.2311 2.774 10.17 2.312 10.86-1.849s-0.6935-23.81 1.387-24.73c2.08-0.9246 33.29 3.467 33.06 9.015-0.2311 5.548-2.543 21.73-1.618 23.81 0.9246 2.08 11.33-0.4623 11.56-4.392 0.2311-3.93 0-17.8 1.156-19.88 1.156-2.08 33.06 0.4623 32.83 4.623-0.2312 4.161 0.4623 18.26 0.4623 19.88 0 1.618 8.322-2.08 8.553-4.392 0.2311-2.312-1.156-21.73 0.2311-22.65 1.387-0.9247 31.67 0.9246 31.67 5.548s-0.9246 16.18-1.618 21.5c-0.6935 5.317 14.56 4.854 13.18 0.9247s-1.618-18.96-0.6935-21.5c0.9247-2.543 32.59 1.849 32.36 6.473-0.2312 4.623-0.4624 14.33-1.156 17.8-0.6935 3.467 10.63 2.08 10.63-0.9247s-0.2312-14.79 0.9247-20.57c1.156-5.779 30.05 3.005 30.05 6.704 0 3.699-0.9247 16.18-2.08 18.72-1.156 2.543 18.26 5.548 15.49 0.4623-2.774-5.086-3.93-17.34-3.236-20.57 0.6935-3.236 33.75 0.4623 32.59 4.623s-1.387 17.8-2.312 19.42c-0.9247 1.618 13.64 6.473 12.48 0.6935s-2.08-18.49-0.9246-21.96 30.98 0 30.74 4.392c-0.2312 4.392-1.849 11.79-1.618 14.79 0.2312 3.005 12.25 2.774 12.02 1.849-0.2312-0.9247-0.2312-12.95 0.9246-15.95 1.156-3.005 29.13-2.312 28.66 2.774-0.4624 5.086-1.849 15.72 3.467 15.72s7.86-5.779 8.553-15.49c0.6935-9.709 31.21-1.387 30.28 2.312-0.9247 3.699-1.387 12.25-2.08 15.26s10.63 2.774 10.4-0.6935c-0.2312-3.467 0.2311-13.18 1.849-15.26 1.618-2.08 27.97-3.236 27.97 1.156 0 4.392-1.618 19.19-2.312 20.57s14.56 0.6935 13.41-2.312-1.156-13.41 0.4623-16.64c1.618-3.236-3.236-13.87-3.236-13.87l-531.7-41.15s-206.4-19.65-210.4 3.467z" fill="#66d228"/><path d="m1893 732.8c9.015-0.2312 9.015 0.6935 6.241 6.704-2.774 6.01-15.49 30.51-17.11 32.36-1.618 1.849-276.7-10.63-274.6-19.19 2.08-8.553 3.93-11.33 5.317-12.95 1.387-1.618 3.005-1.849 7.166-2.08 4.161-0.2312 265.1-4.854 273-4.854z" fill="#acb1a9"/><path d="m1521 741.7c3.433-7.356 1.635-8.663 8.99-8.663s51.82 0 56.56-0.1634c4.74-0.1635 3.923 2.942 2.288 6.375s-2.779 10.3-6.865 10.62c-4.086 0.3269-60.97-8.173-60.97-8.173z" fill="#e8f2e1"/><path d="m1527 742.2c0.6538-3.596 1.471-4.577 3.76-4.74s46.26-0.3269 51-0.1635c4.74 0.1635 2.288 4.904 0.6538 7.683s-55.41-2.779-55.41-2.779z" fill="#acb1a9"/><path d="m826.5 780.8c0.4903-4.413-1.271-4.795-4.54-4.959-3.269-0.1635-1.544-18.74-1.544-18.74l20.86-124.4s28.17 0.8637 35.2-0.6074c7.029-1.471 11.44-1.144 30.73 0.1634 19.29 1.308 114.8 8.304 134.3 10.62 19.42 2.312 30.51 6.241 53.86 23.58 23.35 17.34 30.98 27.51 35.6 33.06 4.624 5.548 5.548 8.091 16.41 9.015 10.86 0.9246 439.4 33.74 462.9 35.38s316.5 26.15 332.8 27.46c16.35 1.308 16.67 3.596 17.98 8.827 1.308 5.231 1.798 50.67 1.798 55.41 0 4.74-0.4904 4.74-4.25 4.904-3.76 0.1634-793.9-56.88-799.8-56.88-5.884 0-5.885 1.144-6.048 3.923-0.1634 2.779 1.308 7.029-5.394 7.029-6.702-2e-5 -18.8 7.192-23.37 0.1634-4.577-7.029-8.99-15.04-21.58-16.18-12.59-1.144-48.22-4.25-53.12-4.577-4.904-0.3269-8.173 2.125-8.5 5.231-0.3267 3.106-2.288 12.42-4.577 12.75-2.289 0.3269-20.92-2.615-22.07-9.644-1.144-7.029-0.6539-11.12-8.337-11.77-7.682-0.6538-79.11-5.067-84.67-5.394-5.558-0.3269-6.375-0.3269-8.5 6.048-2.125 6.375-6.538 10.95-14.22 10.46-7.683-0.4904-71.89-0.8155-71.89-0.8155z" fill="#71d935"/><path d="m1064 1239c-2.89 0.1156-3.167 1.231-3.225 2.965-0.058 1.734-0.033 4.606-0.033 8.883l375.4 7.414c0.01-0.6869 0.066-5.95 0.07-6.432l0.078-6.797c-135.9-2.337-252.3-4.332-258.6-4.414-17.8-0.2311-110.8-1.735-113.7-1.619zm524.4 8.648c-0.036 2.494-0.064 4.82-0.064 6.262 0 1.784 0.037 4.374 0.078 7.359l417.4 8.244s23.35 9e-4 23.35-1.617c0-1.618 4e-4 -5.317-0.1152-8.9-0.1155-3.583-0.5773-3.699-5.432-3.814-2.499-0.06-220.5-3.832-435.2-7.533z" fill="#eaeaea"/><path d="m1063 1249c-1.445 0.058-2.333 0.1524-2.408 2.057-0.064 1.621-0.1091 3.334-0.078 7.709 0 0 178.3 3.522 375.4 7.338 0.018-1.696 0.1206-10.86 0.1309-11.88-9.755-0.1432-35.37-0.5287-36.44-0.5391-11.9-0.1155-335.2-4.74-336.6-4.682zm525.2 7.508c0.029 3.182 0.096 7.358 0.1446 12.54 226.4 4.315 440.5 8.23 440.6 7.578 0.082-1.389 0.082-9.316 0-11.36-0.082-2.044-0.4099-1.634-6.131-1.961-3.705-0.2117-251.9-4.023-434.6-6.793z" fill="#979797"/><path d="m1797 1345c-35.81 2.157-62.55 99.65-61.69 141.5 0.8628 41.84 28.04 101.4 58.67 101.4s42.71-69.02 45.73-95.77c3.02-26.75-1.726-92.32-12.94-116.5-11.22-24.16-17.26-28.47-29.77-30.63z" fill="#1e1e1e"/></g><g transform="translate(-291.9 194.8)"><path d="m1416 1370c49.61-0.8628 72.47-41.41 73.77-80.67 1.294-39.26-23.73-85.85-69.89-85.85-46.16 0-59.1 85.85-55.65 106.6 3.451 20.71 2.157 59.53 51.77 59.96z" fill="#4b4b4b"/><path d="m1376 1334c10.57 15.1 15.75 29.55 40.77 28.69s47.88-15.96 57.81-38.61c9.922-22.65 9.491-48.75 1.078-71.61-8.412-22.86-32.35-39.26-47.88-42.92s-36.02 7.118-39.9 9.491-11.86 115-11.86 115z" fill="#6f6f6f"/><path d="m1425 1347c33.55-0.6101 51.25-38.44 52.77-63.14s-16.17-57.04-49.42-57.96c-33.25-0.9151-46.06 24.71-48.81 54.3-2.745 29.59 10.37 66.8 45.45 66.8z" fill="#8a8a8a"/><path d="m1428 1246c25.32 0.9151 30.5 25.62 30.81 39.05 0.3051 13.42-9.456 40.27-33.86 39.96-24.4-0.305-32.94-25.93-33.55-36.3-0.6101-10.37 7.016-43.62 36.6-42.71z" fill="#181818"/><path d="m1422 1269c8.999 0.4576 12.66 6.863 12.35 16.62-0.305 9.761-5.491 21.81-16.78 21.66-11.29-0.1525-12.96-11.29-12.51-22.27s5.643-15.4 16.93-16.01z" fill="#131313"/><g fill="#797979"><path d="m1424 1233c4.423 0 6.253 1.983 6.253 5.186 0 3.203-2.288 7.473-5.643 7.473-3.355 0-6.101-2.745-5.948-7.168 0.1525-4.423 2.745-5.643 5.338-5.491z"/><path d="m1446 1237c4.423 0 6.253 1.983 6.253 5.186 0 3.203-2.288 7.473-5.643 7.473-3.355 0-6.101-2.745-5.948-7.168 0.1525-4.423 2.745-5.643 5.338-5.491z"/><path d="m1464 1257c4.423 0 6.253 1.983 6.253 5.186 0 3.203-2.288 7.473-5.643 7.473-3.355 0-6.101-2.745-5.948-7.168 0.1525-4.423 2.745-5.643 5.338-5.491z"/><path d="m1469 1286c4.423 0 6.253 1.983 6.253 5.186 0 3.203-2.288 7.473-5.643 7.473-3.355 0-6.101-2.745-5.948-7.168 0.1525-4.423 2.745-5.643 5.338-5.491z"/><path d="m1460 1312c4.423 0 6.253 1.983 6.253 5.186 0 3.203-2.288 7.473-5.643 7.473-3.355 0-6.101-2.745-5.948-7.168 0.1525-4.423 2.745-5.643 5.338-5.491z"/><path d="m1438 1326c4.423 0 6.253 1.983 6.253 5.186 0 3.203-2.288 7.473-5.643 7.473-3.355 0-6.101-2.745-5.948-7.168 0.1525-4.423 2.745-5.643 5.338-5.491z"/><path d="m1413 1323c4.423 0 6.253 1.983 6.253 5.186 0 3.203-2.288 7.473-5.643 7.473-3.355 0-6.101-2.745-5.948-7.168 0.1525-4.423 2.745-5.643 5.338-5.491z"/></g><g fill="#1e1e1e"><path d="m1431 1221c6.101-0.4575 3.66-4.27-0.6101-7.626-4.27-3.355-11.44-1.83-9.151 2.288 2.288 4.118 6.253 5.948 9.761 5.338z"/><path d="m1458 1234c-1.618-7.442 3.559-4.745 6.255 1.618 2.696 6.363-2.157 7.442-6.255-1.618z"/><path d="m1478 1273c-0.8628-8.412 2.696-6.471 2.804-0.5392 0.1079 5.932-1.726 10.03-2.804 0.5392z"/><path d="m1473 1314c3.387-9.188 6.687-5.177 3.775 2.696s-9.792 13.63-3.775-2.696z"/><path d="m1448 1345c7.779-8.213 8.951 0.3235 3.343 4.961-5.608 4.637-16.87 9.316-3.343-4.961z"/><path d="m1412 1361c8.844-0.6471 11.32-10.57 2.157-10.57-9.167 0-12.62 11.11-2.157 10.57z"/></g></g><g><path d="m877.4 777.9s-13.56 35.88-0.3809 36.34c13.18 0.4623 290.8 17.11 323.6 18.96s916.1 57.1 920.7 56.87c4.623-0.2312 6.127 0.3478 6.127 2.891 0 2.543 0.3474 45.19 0.4629 49.24 0.1156 4.045-0.4631 5.086-3.006 5.201-2.543 0.1156-2.34 0.1773-2.34 6.389s1.635 47.73 2.289 70.62c0.6539 22.88 3.75 291.7 3.172 296.3-0.5779 4.623-0.1158 6.242-3.814 6.358-3.699 0.1156-88.88-2.079-92.7-2.311-3.814-0.2312-3.467-2.543-3.352-6.357s0.8086-39.76 0.8086-44.04c0-4.277-0.23-3.484-9.057-3.811-8.827-0.327-254-2.288-284.7-2.941-14.5-0.3085-80.23-1.646-146.8-2.928 0.098 7.608 0.1836 17.34-0.1133 27.13-0.4302 14.2-2.861 203.3-4.314 239.1 0.7075-0.016 1.9-0.035 2.467-0.051 33.75-0.9247 137.3-2.311 144.7-2.773 7.397-0.4623 7.859-3.699 7.859-12.95 0-9.247-0.9251-69.81 2.773-101.2 3.699-31.44 13.87-91.54 55.94-90.15 42.07 1.387 48.08 67.5 49.01 88.3 0.9243 20.8-0.2143 103.1-0.051 109.1 0.1634 6.048 1e-4 6.211 8.99 5.721 8.99-0.4904 148.3-6.048 154.3-5.885 6.048 0.1635 19.45-3.432 26.81-6.211 7.356-2.779 76.82-25.99 86.3-29.1 9.481-3.106 12.91-6.538 13.08-13.24 0.1635-6.702 0.8191-25.17 0.4922-40.87s3.268-167.1 2.777-188.5c-0.4904-21.41-5.066-136.8-5.066-152.7 0-15.86-2.452-93.99-3.27-109.4s-1.635-67.18-1.635-75.68-0.9811-37.59-1.144-41.52c-0.1635-3.923 0.4915-3.924-6.537-4.578-7.029-0.6538-1079-71.27-1105-73.06-25.83-1.798-126.3-7.682-139.1-8.336zm186.4 479.2c-2.774 0.1156-3.236-0.4641-3.236 1.848 0 2.312-0.6941 39.3-0.4629 60.57 0.2311 21.27-3.93 203.7-3.93 210.6s-0.4619 8.091 5.086 7.629c5.548-0.4623 36.99 0.9247 45.77 0 8.784-0.9246 6.471-6.936 6.471-16.64s2.313-92.46 4.625-123c2.312-30.51 23.58-85.07 62.41-83.22 38.84 1.849 55.48 67.5 55.94 87.84 0.4623 20.34-2.312 108.2-1.85 119.7s0.9237 10.63 15.26 11.1c7.854 0.2533 97.8-0.3307 183.3-1.059 0.4752-47.11 2.591-237.3 2.938-270.5-3.498-0.028-6.231-0.041-7.52-0.018-18.31 0.3269-362-5.026-364.8-4.91z" fill="#6fdb31"/><path d="m256 781.3c1.635-14.38 7.029-45.28 13.89-66.2 6.865-20.92 29.05-55.54 41.77-64.79s22.19-14.79 36.06-15.03c13.87-0.2312 11.56 0.2312 27.51-2.08 15.95-2.312 121.6-15.95 252.4-14.1 130.8 1.849 232.1 11.56 246 12.95 13.87 1.387 3.236 2.543-2.08 3.236-5.317 0.6935-19.42 8.784-26.82 27.97-7.397 19.19-13.87 55.71-15.72 73.51s-2.774 27.51-3.236 33.06c-0.4623 5.548-0.6935 6.01-4.161 6.01-3.467 0-49.7-6.241-77.21-8.553-27.51-2.312-131.4-10.66-196.1-9.355s-146.7 2.189-198.9 7.737c-52.24 5.548-74.2 9.247-81.37 10.63-7.166 1.387-11.97 5.004-11.97 5.004z" fill="#7be249"/><path d="m249 1037c-18.54 5.452-25.08 1.817-31.62-0.3635-6.542-2.181-5.815-8.723-6.179-16.35s0.7269-60.69 1.817-71.23c1.09-10.54 3.634-19.63 27.26-19.63 23.62 0 18.17 19.99 18.17 26.17 0 6.179-9.45 81.41-9.45 81.41z" fill="#181818"/><path d="m818.1 1258 5.086-312.1-574.2-5.548-10.17 332.9s570.5 23.12 579.3-15.26z" fill="#252525"/><path d="m812.7 1246c-14.71 7.519-41.85 10.46-68.98 14.38s-104.3 11.44-161.8 11.44c-57.54 0-191.9-3.596-246.2-10.13s-86.96-19.94-94.81-22.23c-7.846-2.288 7.846 33.02 7.846 33.02s43.48 39.56 54.27 41.85c10.79 2.288 217.1 16.02 217.1 16.02l216.7-7.192 72.58-41.19z" fill="#1c1c1c"/><path d="m744.6 1309c-31.9 6.241-99.4 13.41-137.3 13.64-37.91 0.2311-144.2 0-199.3-4.392-55.02-4.392-103.8-13.41-115.1-15.72-11.33-2.312 7.397 8.322 12.02 9.015s119.3 16.64 119.3 16.64l160.4 2.774 114.4-7.166s47.85-8.091 45.54-14.79z" fill="#5d5d5d"/><path d="m226.7 925.3c-0.514 10.28-0.257 10.15 2.184 10.41 2.441 0.257 3.341-0.771 3.983-7.967 0.6425-7.196 0.771-7.71 1.028-9.38 0.257-1.67 1.028-2.827 6.682-2.698s8.738 0 11.44 0 3.084-9.509-4.626-9.637c-7.71-0.1285-7.967 0-10.15 0-2.184 0-3.598-0.771-3.469-3.341 0.1285-2.57 0.6425-15.93 2.056-20.17 1.413-4.24 5.14-5.268 16.19-5.011s5.911-4.883-1.67-5.911-14.52 1.028-18.12 3.341-4.369 16.19-4.626 23.9c-0.257 7.71-0.6425 18.37-0.8995 26.47z" fill="#212121"/><path d="m265.4 775.8c-0.1774 2.6e-4 -0.3795 0.0128-0.6094 0.0332-3.678 0.3269-5.558 0.8986-6.865 1.471s-1.716 1.798-2.125 5.803c-0.4086 4.005-3.355 36.43-4.857 52.26-1.503 15.83-3.931 50.74-4.277 64.61-0.3468 13.87-1.386 39.76-1.617 57.67s-5.086 109.2-6.242 129.5c-1.156 20.23-4.276 71.55-5.778 96.28-1.228 20.22-3.237 52.01-2.775 76.75 0.4623 24.73-0.4775 32.2-0.123 36.15s24.51 8.924 24.51 8.924l80.33 14.79 57.63 6.109c-32.64-4.696-66.48-10.07-78.67-13.74-26.12-7.86-55.48-43-61.95-52.24-6.473-9.247-7.398-15.49-6.936-28.2 0.4623-12.71 1.849-77.44 2.773-106.6 0.9246-29.13 6.241-162 6.01-168.7-0.2312-6.704 1.156-6.01 10.17-6.473 9.015-0.4623 117-1.618 158.8-1.387s222.8 2.542 253.8 2.08c30.98-0.4623 122.1 1.386 132.2 1.617 10.17 0.2312 8.322 6.01 7.859 18.26s-3.93 120.2-3.93 138.7c0 18.49-3.004 96.86-3.004 123.7s-7.629 34.21-23.12 47.85c-15.49 13.64-31.9 22.42-66.11 38.61l-45.08 12.48-165.5 3.098 170.6-2.174 113.3-15.03 91.83-16.86c-11.5-3.022-23.4-18.74-32.3-34.81s-21.85-56.75-24.39-100.2c-2.543-43.46-1.156-148.6-0.6934-165.3 0.4623-16.64 1.618-51.55 4.623-77.67 3.005-26.12 7.86-55.94 16.64-77.44s20.11-29.36 24.96-30.28c4.854-0.9247 5.548-0.2307 6.473-6.01 0.9246-5.779 1.027-22.58 1.027-26.66s-0.4914-4.251-3.434-4.496c-2.942-0.2452-30.24-1.961-36.61-1.879-6.375 0.0817-10.54-2e-3 -12.42 0.0801-1.88 0.0817-2.86 0.4092-3.023 2.779-0.1635 2.37-3.093 90.74-5.174 114.1s-1.848 27.97-2.311 33.52c-0.4623 5.548-0.2311 6.704-7.166 7.166-6.935 0.4623-196.5-0.9251-234.6-1.156-38.14-0.2312-290.6-1.156-305.8-0.6934-15.26 0.4623-15.95 1.849-15.49-6.473 0.4623-8.322 6.009-120.4 7.627-134.3 1.517-13 4.52-15.53 1.859-15.53z" fill="#73de2e"/><path d="m230 1324c0.074 12.29-1.703 17.47-1.703 19.91s13.92 3.479 13.92 3.479l95.94 40.42 22.65 70.62s13.48 58.77 16.83 60.44c3.35 1.675 8.12 3.221 14.49 3.147s21.17 0.5922 25.54 0.9623c4.368 0.3702-27.17-11.99-27.17-11.99l-40.5-115.7 37.27 21.78 167.1 7.538 91.5-6.491 36.22-20.52-19.68 61.98s-10.05 64.07-7.957 65.33 0.2356 1.492 2.617 1.649c2.382 0.1571 18.09 0.4973 20.26 0.5497 2.172 0.052-6.438-8.48-6.438-8.48l-0.2094-29.42 23.76-93.28 120-38.32 67.63 1.884s2.222-1.115 2.222-7.037 1.851-13.47 1.703-16.06c-0.148-2.591-11.7-0.5182-11.7-0.5182l-121 19.17-113.4 49.45-244.6-0.8883-65.44-37.31-94.76-31.09z" fill="#42a30f"/><path d="m230.1 1324c-0.1775 12.96 0.5326 14.2 10.12 17.22s56.28 15.98 76.7 25.39 54.15 27.7 62.49 33.73c8.344 6.036 11.18 7.634 21.13 8.699s77.58 5.859 125.2 6.746c47.58 0.8877 100.5-2.663 109.9-3.906 9.409-1.243 17.04-6.214 22.19-9.232s25.39-14.2 40.3-19.71c14.91-5.504 43.5-16.51 63.02-21.66 19.53-5.148 77.76-17.58 94.8-18.29 17.04-0.7102 22.19-0.5326 25.74-0.3551s4.083-0.1775 4.261-5.148c0.1775-4.971-0.1775-28.94-0.1775-33.2s-77.89 8.432-77.89 8.432l-198.8 26.11s-261.1-17.07-298.3-23.1c-37.16-6.026-80.27-16.42-80.44-8.782-0.1775 7.634-0.1775 7.989-0.1775 17.04z" fill="#74ed33"/><path d="m228.8 1347c0.8382 9.191 0.9023 15.68 0.8788 18.33-0.0258 2.912 5.021 34.77 8.411 37.41 3.389 2.636 50.97 38.41 50.97 38.41l43.94 16.7 4.143-22.72-15.69-52.22-55.74-22.35z" fill="#b3b5b1"/><path d="m873 1347c11.3 0.2511 11.3 0.5021 11.3 5.775 0 5.273-1.004 160.4-1.506 169.7s4.268 12.55-21.34 10.54c-25.61-2.008-90.64-5.524-127.5-5.524h-52.22c-10.55 0-13.06-0.7532-15.06-7.281-2.009-6.528-0.7532-33.89 2.009-50.72 2.762-16.82 8.285-41.68 13.56-58.5 5.273-16.82 5.273-21.09 17.07-25.86 11.8-4.77 41.43-15.82 73.06-23.35 31.64-7.532 55.99-14.31 100.7-14.81z" fill="#72e12e"/><path d="m864.3 1356c0.089 3.728-7.723 15.27-12.78 20.77-5.06 5.504-25.65 29.74-47.67 44.83-22.01 15.09-63.02 36.22-81.31 44.21-18.29 7.989-26.1 10.65-30 8.522-3.906-2.13 7.634-25.74 11.54-31.6 3.906-5.859 77.94-23.97 77.94-23.97z" fill="#83f347"/><path d="m691.9 1474c-1.42-6.746-1.42-16.42 0.5326-28.49 1.953-12.07 10.66-39.52 13.92-45.79 3.264-6.277 12.3-10.42 20.21-13.31s-6.528 16.45-6.528 16.45-25.02 71.49-28.14 71.15z" fill="#6ed131"/><path d="m850.2 1356c19.1-1.602 15.57-0.5022 8.536 6.026s-27.12 29.63-43.18 41.68c-16.07 12.05-27.62 21.34-50.72 32.64-23.1 11.3-38.92 19.08-46.2 22.09-7.281 3.013-17.58-3.766-16.57-15.06 1.004-11.3 8.034-36.91 11.3-44.69 3.264-7.783 3.264-8.788 15.57-13.56s52.73-17.58 67.04-21.09c14.31-3.515 37.42-6.624 54.23-8.034z" fill="#b3b5b1"/><path d="m773.4 1463c-15.27 0.5326-15.45 12.25-15.27 18.82 0.1775 6.569 4.083 12.96 14.2 13.14s15.62-8.522 15.62-15.98c0-7.456-4.616-14.91-14.56-15.98z" fill="#84f139"/><path d="m773.4 1463c-5.509 0.1922-9.046 1.844-11.32 4.182-0.5491 2.072-0.7027 4.342-0.7539 6.648-0.1775 7.989 4.97 14.91 16.15 14.91 3.175 0 5.834-0.3473 8.068-1.176 1.583-2.663 2.406-5.715 2.406-8.588 0-7.456-4.615-14.91-14.56-15.98z" fill="#5bab20"/><path d="m668.9 1399c16.32-8.285 18.33-7.281 15.57 0s-10.55 32.14-14.56 54.23c-4.017 22.09-4.59 21.37-5.477 41.79-0.8877 20.42 1.243 31.25-6.924 31.42-8.167 0.1775-116.6-1.598-133.9-1.953-17.22-0.3551-95.52-1.209-107.1-1.711-11.55-0.5021-20.09-6.026-25.36-9.039-5.273-3.013-10.55-6.779-14.81-21.34-4.268-14.56-17.32-55.74-22.35-71.56-5.021-15.82-7.532-22.85-8.788-26.61s-0.5021-9.541 7.281-5.272c7.783 4.268 25.36 16.82 31.89 20.59 6.528 3.766 25.36 5.021 44.44 6.779s68.04 3.264 91.39 3.515c23.35 0.2511 85.62-1.255 103.9-3.013 18.33-1.758 20.09-3.013 26.61-7.03 6.528-4.017 9.541-6.277 18.08-10.8z" fill="#7ce73a"/><path d="m348 1388c-2.293 0-3.14 1.76-3.17 3.772 12.33 6.234 22.74 12.06 34.53 20.35 12.6 8.877 23.43 18.82 31.25 24.32s9.585 4.795 3.904-0.5313c-3.413-3.2-17.56-15.22-29.57-25.6-0.1458-0.076-0.3178-0.1465-0.4531-0.2246-6.528-3.766-24.1-16.32-31.89-20.59-1.946-1.067-3.452-1.506-4.598-1.506z" fill="#8af15f"/><path d="m646.4 1413c-2.784 1.436-5.783 2.373-11.7 3.238-16.95 14.38-17.37 15.54-22.14 20.64-5.149 5.504-1.064 3.374 6.215-2.307 5.145-4.015 17.6-14.1 27.63-21.58z" fill="#8af15f"/><path d="m592.2 1478c7.456 0.3551 7.456 0.7101 7.456 6.924 0 6.214-0.3551 16.33-0.3551 20.77s-1.243 5.504-4.083 5.681c-2.841 0.1776-147.4-2.84-155.5-3.196s-7.456-1.598-7.634-7.101c-0.1775-5.504 0-17.04 0.1775-21.13 0.1775-4.083 0.8877-5.326 6.214-5.148 5.326 0.1775 63.74 1.598 76.7 1.775 12.96 0.1775 66.4 0.8876 77.05 1.42z" fill="#84f53f"/><path d="m448.5 1482c0-5.147 2.26-4.896 6.904-4.77 4.645 0.1256 114.7 2.636 119.8 2.887 5.021 0.251 5.273 0.5021 5.273 4.77 0 4.268-0.2511 17.2-0.5021 20.71-0.2511 3.515-1.004 5.021-6.904 4.896-5.9-0.1255-117.8-2.511-121.5-2.636-3.766-0.1255-3.013-1.758-3.013-4.645s-0.2511-16.45 0-21.22z" fill="#f4f4f4" stroke="#353535" stroke-width="1.7"/><path d="m231.6 1296c-0.5345-0.014-1.034 0-1.516 0.029-0.0515 3.893-0.0824 8.389-0.0957 13.3 10.5 1.811 32.51 3.051 32.51 3.051s87.88 15.19 98.8 18.96c10.92 3.766 113.6 8.535 113.6 8.535l107.6 1.131 58.62-3.766 89.51-8.662 80.09-12.3s62.52-4.018 69.55-4.27c2.28-0.081 4.064-0.2054 5.436-0.4902-0.04-4.563-0.075-8.646-0.086-10.71-1.19-0.1574-2.749-0.2285-4.848-0.2285-53.6-0.6276-97.54 6.779-108 8.285-10.42 1.506-71.93 10.8-98.42 13.56s-99.55 5.523-116.2 5.523c-16.7 0-100.9-1.128-136.2-3.514-35.28-2.385-104.1-15.06-120.5-17.7-16.45-2.636-55.99-9.668-68.67-10.67-0.3962-0.031-0.7781-0.051-1.148-0.061z" fill="#eaeaea"/><path d="m230.5 1341c-2.502 0.012-2.152 3.084-2.397 7.085-0.173 2.822 1.46 3.173 6.183 4.662 6.32 1.993 52.76 18.2 69.24 25.66 16.87 7.634 15.62 10.83 19.53 22.55 3.906 11.72 11.36 33.55 11.54 39.06 0.1775 5.504-1.952 14.56-16.69 8.524s-60.36-28.94-71.9-42.43c-11.54-13.49-13.49-25.03-14.56-34.44-0.6152-5.434-1.288-9.233-1.885-11.91-0.193 1.536-0.5184 3.368-1.016 5.668-2.009 9.29-1.506 24.35-0.502 41.43 1.004 17.07 6.779 97.16 7.783 103.2s1.757 8.286 18.83 8.035 124.3 4.017 133.3 4.268c9.039 0.2511 12.8-0.2501 6.777-2.51-6.026-2.26-11.55-5.775-15.06-12.3s-13.56-39.67-17.83-53.73c-4.268-14.06-16.57-50.46-18.08-57.49-1.506-7.03-4.555-13.93-10.54-16.57-25.05-11.05-63.49-24.59-76.07-28.62-11.03-3.53-15.34-5.189-20.79-7.514-3.975-1.697-5.304-2.589-5.881-2.586z" fill="#7fe33a"/><path d="m229.5 1360c-0.193 1.536-0.5184 3.368-1.016 5.668-1.058 4.895-1.409 11.42-1.367 18.97 1.315 14.84 5.041 22.51 14.55 29.23 13.31 9.415 43.56 29.37 59.88 37.79 16.32 8.411 28.37 15.32 35.4 16.7 7.03 1.381 7.657-7.156 5.648-18.2-2.009-11.05-14.18-38.67-18.7-47.45-0.3253-0.6326-0.5668-0.9504-0.7383-1.01 3.941 11.81 11.2 33.13 11.38 38.57 0.1775 5.504-1.952 14.56-16.69 8.524s-60.36-28.94-71.9-42.43c-11.54-13.49-13.49-25.03-14.56-34.44-0.6152-5.434-1.288-9.233-1.885-11.91z" fill="#7ef347"/><path d="m270.2 1454c-13.06 0.7532-11.8 12.55-11.17 19.46s6.779 13.18 13.31 12.93c6.528-0.251 11.3-5.775 11.3-17.07 0-11.3-6.277-15.44-13.43-15.32z" fill="#84f139"/><path d="m270.2 1454c-1.823 0.1052-3.358 0.4331-4.664 0.9258-1.902 2.602-3.14 6.39-3.244 11.75 0.5021 11.42 6.527 13.06 12.93 13.06 2.71 0 5.055-0.099 6.922-1.041 0.9488-2.502 1.488-5.612 1.488-9.379 0-11.3-6.276-15.44-13.43-15.31z" fill="#5bab20"/><path d="m230.2 1306c-0.0506 2.376-0.0854 4.431-0.1055 6.356 0.0199 0.097 0.031 0.1917 0.0293 0.2871 15.41 1.65 39.03 5.12 60.82 9.453 32.13 6.391 85.93 16.16 124.3 19.35 38.35 3.196 117.9 3.729 158.4 3.906 40.48 0.1776 88.94-4.616 114.3-7.279 25.39-2.663 109.2-15.62 130.5-17.4 21.3-1.775 61.69-2.752 66.84-2.93 0.2079-0.01 0.3834-0.026 0.5664-0.041-0.034-3.281-0.053-5.538-0.074-7.783-0.9366-0.051-2.32 0.01-4.486 0.1015-10.12 0-19.88 0.177-40.48 1.242-20.59 1.065-63.74 5.504-115 13.85-19.35 3.146-41.79 5.325-63.87 7.357-34.25 3.152-59.17 4.725-91.47 5.248-31.09 0.5036-110.1-0.8883-157.7-4.084-47.58-3.196-97.82-14.56-117.3-18.29-19.53-3.728-43.14-8.54-61.25-9.232-1.987-0.076-3.137-0.1061-3.928-0.1172z" fill="#979797"/><g transform="translate(-291.9 194.8)" fill="#2c2c2c" stroke="#d2d2d2" stroke-width="2.1"><path d="m776.6 1201c-6.658 5.149-6.036 5.504-3.462 6.835 2.574 1.332 4.261 2.13 9.409-1.953s50.24-36.75 53.62-39.77c3.373-3.018 2.308-4.172-3.018-4.261-5.326-0.089-5.149 0.3551-9.853 3.906-4.705 3.551-40.74 30.62-46.69 35.24z"/><path d="m790.4 1194c0 4.261 0 4.527 3.728 4.616 3.728 0.089 14.82-0.089 18.02-0.2663 3.196-0.1775 3.196-1.775 3.284-4.083 0.0888-2.308 0.2663-17.75 0.1775-19.97-0.0888-2.219-0.3551-3.107-3.639-3.107-3.284 0-17.13-0.3551-19.26 0.2663-2.13 0.6213-2.308 1.332-2.485 4.083-0.1775 2.752 0.0888 14.56 0.1775 18.46z"/></g></g><g transform="matrix(.06754 0 0 .0705 500 1370)"><path d="m159.7 35.33a118.5 118.5 0 0 0-118.5 118.5 118.5 118.5 0 0 0 118.5 118.5 118.5 118.5 0 0 0 118.5-118.5 118.5 118.5 0 0 0-118.5-118.5zm0 17.43a101.1 101.1 0 0 1 101.1 101.1 101.1 101.1 0 0 1-101.1 101.1 101.1 101.1 0 0 1-101.1-101.1 101.1 101.1 0 0 1 101.1-101.1z" fill="#6d6d6d" style="paint-order:fill markers stroke"/><path d="m159.7 0.2148a153.6 153.6 0 0 0-153.6 153.6 153.6 153.6 0 0 0 153.6 153.6 153.6 153.6 0 0 0 153.6-153.6 153.6 153.6 0 0 0-29.92-90.8l23.79-23.94-30.55-30.36-23.3 23.45a153.6 153.6 0 0 0-93.63-31.96zm0 36.08a117.5 117.5 0 0 1 117.5 117.5 117.5 117.5 0 0 1-117.5 117.5 117.5 117.5 0 0 1-117.5-117.5 117.5 117.5 0 0 1 117.5-117.5z" fill="#8b8b8b" style="paint-order:fill markers stroke"/><path d="m5.09 113.7c-3.321 12.82-5.09 26.27-5.09 40.14 8e-5 13.66 1.721 26.92 4.949 39.58h309.4c3.228-12.66 4.949-25.92 4.949-39.58 9e-5 -13.86-1.767-27.31-5.088-40.14z" fill="#342a76" style="paint-order:fill markers stroke"/><path d="m238.7 0c31.96 16.46 58.13 42.58 74.64 74.51v-74.51z" fill="#8c8c8c" style="paint-order:fill markers stroke"/><path d="m100.9 172.4c-7.213-1.927-13.87-6.88-16.36-12.17-1.674-3.561-1.643-9.013 0.0719-12.66 6.754-14.37 32.4-17.88 45.62-6.255 1.548 1.362 3.56 3.745 4.471 5.296 1.408 2.395 1.657 3.504 1.657 7.366 0 3.845-0.2518 4.975-1.633 7.325-3.099 5.271-8.896 9.302-16.06 11.17-4.368 1.138-13.39 1.104-17.76-0.0665zm12.76-5.849c1.113-0.7501 2.722-2.722 3.575-4.382 1.33-2.586 1.55-3.8 1.543-8.486-9e-3 -5.874-0.7575-8.114-3.798-11.36-6.255-6.687-14.84-0.1648-14.95 11.35-0.0487 5.407 1.391 9.235 4.545 12.08 2.918 2.636 5.956 2.902 9.081 0.7962zm156.5 5.885c-13.83-3.723-21.13-15.11-16.32-25.44 6.166-13.24 29.3-17.7 42.99-8.28 5.473 3.766 8.286 8.078 8.773 13.45 0.8272 9.123-6.331 17.3-17.75 20.27-4.407 1.148-13.42 1.145-17.7-6e-3zm12.6-5.885c6.208-4.184 7.288-17.81 1.917-24.2-4.439-5.276-10.45-4.008-13.83 2.919-1.361 2.782-1.663 4.228-1.676 8.017-0.0359 10.82 7.011 17.7 13.59 13.26zm-243.5 5.484c-0.2745-0.4168-4.226-7.711-8.781-16.21l-8.282-15.45-8.29-0.0418-0.1864-2.576-0.1864-2.576h37.65v4.849l-3.789 0.0718c-2.084 0.0395-4.153 0.0222-4.598-0.0385s-0.718 0.294-0.6062 0.7882c0.3016 1.332 12.26 22.19 12.73 22.2 0.2221 7e-3 2.516-4.011 5.099-8.928 2.582-4.918 5.196-9.836 5.81-10.93 0.6131-1.094 1.115-2.253 1.115-2.576s-1.5-0.5877-3.334-0.5877h-3.334v-4.849h26.07v4.849l-8.79 0.012-4.39 8.329c-2.415 4.581-6.278 11.87-8.584 16.21l-4.194 7.88-10.31 0.1657c-7.733 0.1242-10.44-0.0239-10.81-0.5921zm99.82-2.356v-3.085l8.79 0.4067 0.163-13.43 0.163-13.43-8.206 0.1596-0.1864-2.555-0.1864-2.556h34.02l-3.3e-4 2.576-3.2e-4 2.576h-8.183v26.67l5.778-0.0334c4.746-0.0275 6.292-0.2825 8.66-1.429 3.306-1.6 5.719-4.726 6.267-8.116 0.3674-2.273 0.4058-2.302 2.866-2.122l2.494 0.1824 0.1682 8.638 0.1682 8.638h-52.77zm69.29 2.345c-0.2697-0.407-4.215-7.704-8.767-16.22-9.152-17.11-7.719-15.54-14.3-15.71l-2.576-0.0676v-4.849h37.58v4.849h-4.591c-3.472 0-4.543 0.1928-4.395 0.7913 0.4178 1.687 12.35 22.2 12.83 22.06 0.5729-0.1724 11.92-21.37 11.92-22.27 0-0.3188-1.5-0.5796-3.334-0.5796h-3.334v-4.849h26.07v4.796l-8.79 0.3562-5.2 9.699c-2.86 5.334-6.762 12.63-8.671 16.22l-3.471 6.516h-10.24c-7.386 0-10.37-0.206-10.73-0.7399z" fill="#dedede" stroke-width=".6062"/></g><g transform="translate(-291.9 194.8)" fill="#ebebeb" stroke="#414141" stroke-width="2.6"><path d="m1077 1138c13.18 0.2961 17.77-8.143 17.91-17.47 0.148-9.328-6.959-16.58-16.58-17.17-9.624-0.5923-15.84 7.255-16.29 17.17-0.4442 9.92 6.662 17.32 14.95 17.47z"/><path d="m553.4 1131c12.14 0.2961 14.07-8.883 14.36-16.88s-4.146-16.73-12.44-16.88c-8.291-0.1481-12.88 5.774-13.32 15.69s3.405 17.77 11.4 18.06z"/></g><g fill="#e9e9e9"><path d="m717.6 1410c3.455-0.1047 4.188 1.78 4.188 4.397s-2.094 3.245-4.188 3.245c-2.094 0-3.978-1.675-3.978-3.769 0-2.094 1.047-3.769 3.978-3.874z"/><path d="m714.6 1424c3.455-0.1047 4.188 1.78 4.188 4.397s-2.094 3.245-4.188 3.245c-2.094 0-3.978-1.675-3.978-3.769 0-2.094 1.047-3.769 3.978-3.874z"/><path d="m717.4 1436c3.455-0.1047 4.188 1.78 4.188 4.397s-2.094 3.245-4.188 3.245c-2.094 0-3.978-1.675-3.978-3.769 0-2.094 1.047-3.769 3.978-3.874z"/><path d="m729 1439c3.455-0.1047 4.188 1.78 4.188 4.397s-2.094 3.245-4.188 3.245c-2.094 0-3.978-1.675-3.978-3.769 0-2.094 1.047-3.769 3.978-3.874z"/><path d="m740.5 1436c3.455-0.1047 4.188 1.78 4.188 4.397s-2.094 3.245-4.188 3.245c-2.094 0-3.978-1.675-3.978-3.769 0-2.094 1.047-3.769 3.978-3.874z"/></g><g><path d="m760.1 1411c-0.148 11.55-9.624 15.99-17.62 15.4s-15.55-6.514-14.95-17.47 7.847-17.77 16.43-17.77 16.88 6.218 16.14 19.84z" fill="#979797"/><path d="m749.8 1393c-7.688 0.1725-13.9 4.485-13.74 14.49 0.1636 10.01 5.235 16.39 13.25 15.87 3.291-0.2125 6.102-1.512 8.297-3.447 1.524-2.279 2.474-5.182 2.52-8.772 0.512-9.419-3.298-15.29-8.535-18.02-0.5704-0.067-1.165-0.109-1.791-0.1191z" fill="#e4a62b"/><path d="m802.3 1396c-0.1534 11.6-9.973 16.06-18.26 15.46-8.285-0.5946-16.11-6.542-15.5-17.54 0.6137-11 8.132-17.84 17.03-17.84s17.49 6.244 16.72 19.92z" fill="#979797"/><path d="m791.6 1378c-7.967 0.1732-14.41 4.504-14.24 14.55 0.1696 10.05 5.425 16.46 13.73 15.94 3.411-0.2134 6.323-1.519 8.598-3.462 1.579-2.288 2.563-5.203 2.611-8.808 0.5306-9.459-3.418-15.36-8.845-18.1-0.5911-0.067-1.207-0.1094-1.856-0.1196z" fill="#ececec"/><path d="m317.8 1411c4.816-0.1047 5.235-1.989 5.339-4.292s-2.199-4.083-4.816-4.083-3.978 2.303-4.083 4.502 1.361 3.978 3.559 3.874z" fill="#e9e9e9"/><path d="m291.3 1419c15.91 0.223 17.27-14.24 17.27-19.58 0-5.339-3.874-15.18-13.82-15.49s-15.39 10.78-15.7 18.74c-0.3141 7.956 5.759 16.24 12.25 16.33z" fill="#979797"/><path d="m300.1 1385c-9.958 2.485-15.58 9.511-14.69 19.54 0.7552 8.459 9.673 10.96 16.95 10.85 5.547-4.562 6.189-12.52 6.189-16.19 0-4.241-2.458-11.31-8.447-14.2z" fill="#e4a62b"/></g><g fill="#e9e9e9"><path d="m321.5 1425c4.816-0.1047 5.235-1.989 5.339-4.292s-2.199-4.083-4.816-4.083-3.978 2.303-4.083 4.502 1.361 3.978 3.559 3.874z"/><path d="m320.6 1438c4.816-0.1047 5.235-1.989 5.339-4.292s-2.199-4.083-4.816-4.083-3.978 2.303-4.083 4.502 1.361 3.978 3.559 3.874z"/><path d="m309.6 1440c4.816-0.1047 5.235-1.989 5.339-4.292s-2.199-4.083-4.816-4.083-3.978 2.303-4.083 4.502 1.361 3.978 3.559 3.874z"/><path d="m298.5 1436c4.816-0.1047 5.235-1.989 5.339-4.292s-2.199-4.083-4.816-4.083-3.978 2.303-4.083 4.502 1.361 3.978 3.559 3.874z"/></g><g><path d="m255.7 1404c14.11 0.2142 15.03-13.68 14.93-18.8-0.1056-5.128-3.734-14.58-12.56-14.88s-13.43 10.36-13.55 18c-0.1212 7.642 5.426 15.6 11.18 15.69z" fill="#979797"/><path d="m262.8 1372c-8.779 2.386-13.63 9.135-12.64 18.76 0.8368 8.124 8.792 10.53 15.24 10.42 4.827-4.381 5.239-12.03 5.167-15.55-0.0838-4.073-2.402-10.86-7.769-13.64z" fill="#ececec"/><path d="m797 1224c0 10.13-1.962 11.12-9.154 13.4-7.192 2.288-64.08 10.46-106.9 14.06-42.83 3.596-125.2 4.577-179.5 3.923-54.27-0.6539-147.4-7.519-182.1-14.38-34.65-6.865-39.56-7.519-50.02-9.808-10.46-2.288-9.807-2.942-9.807-11.44s1.635-107.9 2.615-137.3c0.9808-29.42 4.577-91.21 4.904-102.7 0.3269-11.44 2.615-13.73 9.481-13.4 6.865 0.3269 206.9 1.961 240.6 2.288 33.67 0.3269 266.1 3.923 276.9 4.25 10.79 0.3269 11.12 1.635 10.79 8.173-0.327 6.538-1.635 63.09-2.615 86.96-0.9807 23.86-4.577 136.7-5.231 155.9z" fill="#666"/><path d="m756.1 909c8.5 0.3269 8.173-0.3269 8.827-5.884 0.6538-5.558 5.884-77.48 6.211-89.57 0.3269-12.1 0.3269-17-9.48-17.98-9.808-0.9808-158.9-2.615-198.4-2.288-39.56 0.3269-209.9 2.288-225.2 2.942-15.37 0.6538-21.25 5.231-23.86 15.04-2.615 9.807-8.173 68.33-8.5 80.75-0.3269 12.42-0.6538 15.37 6.865 15.37s189.3 0.3269 225.6 1e-5c36.29-0.3269 192.9 1.308 218.1 1.635z" fill="#2d2d2d"/><path d="m434.8 800.5c-25.5 0-90.55 1.002-98.4 1.002-7.846 0-9.809 1.671-9.809 7.016 0 5.346 0.3274 59.47 0.6543 67.16 0.3269 7.684 1.635 9.356 4.904 9.356 3.269 0 407 1.669 424.7 1.335 3.717 0 6.854-0.1318 9.549-0.3793 1.778-24.04 4.598-65.12 4.836-74.13 0.1057-3.998 0.17-7.216-0.1133-9.789-27.47-0.5994-85.22-0.9022-108.7-0.9022-24.85 0-202-0.6687-227.5-0.6687z" fill="#363636"/><path d="m270.8 822.3c4.086 0.1634 4.74 0 5.067-4.25 0.3269-4.25 1.471-27.62 1.471-31.87s-0.9808-4.577-4.25-4.577-4.086 0.9807-4.577 4.086c-0.4904 3.106-1.635 25.01-1.798 29.75-0.1634 4.74 0.4904 6.538 4.086 6.865z" fill="#d7d7d7"/><path d="m815.6 823.5c5.067 0.1635 4.74-1.471 5.067-5.558 0.3269-4.086 1.798-29.91 1.961-32.85 0.1635-2.942-0.9807-4.25-4.25-4.25-3.269 0-4.25 1.308-4.577 4.74-0.3269 3.433-1.798 28.44-1.798 32.69 0 4.25 0.6538 5.067 3.596 5.231z" fill="#d7d7d7"/><g transform="translate(-291.9 194.8)" fill="#292929"><path d="m1393 844.6c0.9246-18.49 0.4623-20.34 10.63-20.34s124.4 5.086 133.2 6.01c8.784 0.9247 10.63 3.699 10.63 14.33 0 10.63 0 160-0.4623 170.1-0.4623 10.17-1.849 13.87-9.247 14.33-7.397 0.4624-118.8-3.699-129-4.161-10.17-0.4624-12.95-2.774-13.41-12.48s-1.849-149.8-2.312-167.8z"/><path d="m1562 1016c0.9247 12.02 3.236 13.41 14.79 13.87 11.56 0.4623 109.1 3.236 122.5 2.774 13.41-0.4623 13.41-4.161 13.87-14.33 0.4623-10.17-6.01-268.6-6.01-278.8 0-10.17 0.4624-15.26-14.79-16.64-15.26-1.387-113.3-7.86-123.4-7.397s-11.1 6.01-11.56 13.87c-0.4624 7.86 4.161 266.8 4.623 286.6z"/><path d="m1896 1022c0.4624 10.63 0.9247 13.87 9.247 14.79s85.53 2.774 91.08 3.236c5.548 0.4623 4.623-4.623 5.548-13.87 0.9246-9.247-2.774-267.7-2.774-276 0-8.322-1.387-11.56-11.56-12.48-10.17-0.9247-76.75-4.623-85.07-4.623s-10.63 0.9246-11.1 9.709c-0.4624 8.784 4.161 264.5 4.623 279.2z"/><path d="m2013 752.1c0-11.1 2.774-12.02 9.709-12.02s105.4 6.473 115.1 7.397c9.709 0.9246 12.02 3.236 12.95 11.56 0.9247 8.322 0.4623 206.2 0.9247 214.5 0.4623 8.322-2.312 10.63-8.784 11.1s-104-1.849-111.4-2.312c-7.397-0.4624-12.02-2.312-12.48-12.95-0.4623-10.63-5.086-116.5-5.548-141.9s-0.9247-61.95-0.4624-75.36z"/><path d="m2165 761.3c0-11.56 1.387-13.87 10.17-13.41 8.784 0.4623 104 6.01 113.7 6.935 9.709 0.9247 9.709 4.161 10.17 13.41s2.312 190 2.312 202c0 12.02-4.161 17.11-13.87 17.57-9.709 0.4623-102.2-2.312-111.9-2.312s-10.63-3.236-11.1-13.87c-0.4623-10.63 0-191.4 0.4623-210.4z"/></g><path d="m866.3 970.4c-5.884 0-6.212 9.153-6.865 21.58-0.6538 12.42-2.614 56.88-2.941 70.94-0.3269 14.06-1.634 125.9-1.961 137s-1.308 19.29 1.635 29.75c2.942 10.46 6.865 20.6 13.73 30.08 6.865 9.48 7.518 6.21 7.518-1.963 0-8.173-2.288-271.3-2.615-278.5-0.3269-7.192-0.9809-8.499-8.5-8.826zm-14.19 50.64c-2.065-0.3129-10.32 12.45-10.32 12.45-0.3269 24.52-1.962 87.61-1.635 109.5 0.3269 21.9 1.634 32.36 2.941 41.52 1.308 9.154 5.559 10.46 6.213 0 0.6539-10.46 1.308-64.4 1.635-77.48s1.635-79.77 1.635-85c0-0.6539-0.1698-0.9651-0.4648-1.01z" fill="#353535"/><path d="m903.8 946c-7.577 0-7.131 1.399-7.131 13.52 0.8913 12.12 4.457 454.1 4.457 467.7s4.902 14.45 12.03 14.45 27.19-6e-4 32.98-0.4668c5.794-0.4663 8.914-5.128 8.914-16.32 0-11.19 3.565-438.3 3.119-457.9-0.4456-19.58-3.119-19.12-12.48-20.05-9.359-0.9325-34.32-0.9316-41.89-0.9316zm86.73 4.168c-7.86 0-7.396 1.386-7.396 13.41 0.9246 12.02 4.623 450.3 4.623 463.7s5.085 14.33 12.48 14.33c7.397 0 28.2-6e-4 34.21-0.4629 6.01-0.4624 9.246-5.086 9.246-16.18s3.699-434.6 3.236-454c-0.4623-19.42-3.236-18.96-12.95-19.88-9.709-0.9247-35.6-0.9238-43.46-0.9238z" fill="#313131"/><path d="m1461 1005c-1.431-0.01-2.703 0.01-3.754 0.049-8.405 0.3269-9.934 2.942-9.934 12.09s2.292 408.2 2.674 419.4c0.382 11.11 5.349 12.75 12.99 13.07 7.641 0.3269 22.16 0.9792 29.8 0.6524 7.641-0.3269 9.934-0.9807 10.32-11.11 1.146-13.07-1.528-406.6-1.91-417.4-0.382-10.79-2.292-14.38-7.641-15.04-4.68-0.572-22.52-1.643-32.54-1.684zm72.57 0.9805c-1.431-0.01-2.701 0.01-3.752 0.049-8.405 0.3269-9.934 2.942-9.934 12.09 0 9.152 2.292 408.2 2.674 419.4 0.382 11.11 5.349 12.75 12.99 13.07 7.641 0.3269 22.16 0.9791 29.8 0.6523 7.641-0.3269 9.932-0.9806 10.31-11.11 1.146-13.07-1.528-406.6-1.91-417.4-0.382-10.79-2.292-14.38-7.641-15.04-4.68-0.572-22.52-1.643-32.54-1.684z" fill="#313131"/><path d="m1104 992.2c0 7.397 1.156 7.628 6.01 8.091 4.854 0.4623 43.92 1.156 47.62 1.387 3.699 0.2311 3.93-1.156 4.161-6.01 0.2312-4.854-1.387-83.45-1.387-89 0-5.548-0.4624-8.322-5.548-8.784s-41.15-2.774-45.54-2.774-7.397 0.6935-7.397 6.473 1.849 82.99 2.08 90.62z" fill="#2e2e2e"/><path d="m1177 994.5c0 7.397 1.387 8.091 7.628 8.322 6.242 0.2311 49.47 3.005 52.24 3.005s3.005-2.08 3.236-6.935c0.2312-4.854-1.387-82.29-1.387-88.3s-1.849-6.704-7.86-7.397c-6.01-0.6935-43.46-2.543-48.78-2.543-5.317 0-6.935 0.9246-6.935 7.397 0 6.473 1.156 78.36 1.849 86.46z" fill="#2e2e2e"/><g transform="translate(-291.9 194.8)" fill="#e0730d"><path d="m669.9 608.6c-9.486 0.2206-16.41 7.166-16.64 16.41-0.2312 9.247-8.2e-4 36.06 0.9238 46.46 0.9247 10.4 6.242 17.11 16.64 16.88 10.4-0.2312 16.18-6.936 15.95-16.64-0.1321-5.546-0.4633-39.3-1.619-49.01s-4.856-14.34-15.26-14.1zm0.2305 9.246c5.779 0 7.397 2.774 7.859 8.553 0.4623 5.779 1.156 37.22 1.156 42.07 0 4.854-2.544 10.4-8.092 10.4-5.548 0-10.63-1.618-10.86-9.709-0.2312-8.091-0.6948-34.44-0.2324-40.92s3.699-10.17 10.17-10.4z"/><path d="m717.6 608.9c4.413 0 4.577 0.3269 4.577 4.25 0 3.923-0.3269 5.067-3.76 5.231s-13.4 0-17.33 0c-3.923 0-4.25 0.9808-4.086 4.086 0.1635 3.106 0.3269 12.75 0.4904 16.02 0.1634 3.269 0.9807 4.086 3.923 4.086s11.28-0.1635 15.04-0.1635c3.76 0 3.923 0.4904 3.923 4.413 0 3.923-0.1634 4.904-3.76 4.904h-15.86c-2.779 0-2.615 3.433-2.615 5.884s0.3269 23.86 0.3269 26.32c0 2.452-0.9807 3.596-3.269 3.596s-3.106-0.3269-3.433-3.433c-0.3269-3.106-1.798-62.28-1.798-68.16 0-5.884 0.3269-6.865 3.106-7.029s20.27-0.1635 24.52 0z"/><path d="m753.5 608.9c4.413 0 4.577 0.3269 4.577 4.25 0 3.923-0.3269 5.067-3.76 5.231s-13.4 0-17.33 0c-3.923 0-4.25 0.9808-4.086 4.086 0.1635 3.106 0.3269 12.75 0.4904 16.02 0.1634 3.269 0.9807 4.086 3.923 4.086s11.28-0.1635 15.04-0.1635c3.76 0 3.923 0.4904 3.923 4.413 0 3.923-0.1634 4.904-3.76 4.904h-15.86c-2.779 0-2.615 3.433-2.615 5.884s0.3269 23.86 0.3269 26.32c0 2.452-0.9807 3.596-3.269 3.596s-3.106-0.3269-3.433-3.433c-0.3269-3.106-1.798-62.28-1.798-68.16 0-5.884 0.3269-6.865 3.106-7.029s20.27-0.1635 24.52 0z"/><path d="m815.7 608.7c10.95 0.1635 16.35 6.865 16.84 11.77 0.4904 4.904-0.4904 5.394-3.269 5.394s-3.596-0.9807-3.76-3.269-1.798-4.086-8.5-4.577c-6.702-0.4904-9.971 3.596-10.3 10.79-0.3269 7.192 1.961 13.08 10.13 13.57s16.35 4.904 16.51 23.21c0.1635 18.31-8.173 23.05-15.2 22.88-7.029-0.1635-16.02-4.25-16.35-10.13-0.3269-5.884 0-6.702 2.942-6.702s3.923 0.3269 4.086 2.452 2.125 5.067 7.846 5.067c5.721 0 10.13-1.798 10.46-11.44 0.3269-9.644-3.596-16.18-11.61-16.51-8.009-0.3269-14.22-6.865-15.37-15.53-1.144-8.663 0.3269-15.2 3.433-20.11 3.106-4.904 7.192-6.702 12.1-6.865z"/><path d="m864.2 608.9c5.067 0 5.067 0.3269 5.067 4.25 0 3.923 0 6.375-4.086 6.538s-14.71 0-17.65 0c-2.942 0-3.433 0.8173-3.596 3.923-0.1635 3.106 0 12.91 0.1635 15.86 0.1634 2.942 0.6538 3.76 3.106 3.76 2.452 0 13.24-0.1635 16.67-0.1635s4.25 0.9808 4.413 4.577c0.1634 3.596-0.4904 4.577-3.269 4.577s-12.26-0.1635-15.86-0.1635c-3.596 0-4.577 0.9808-4.74 3.923-0.1635 2.942-0.1635 17.49 0 19.94 0.1635 2.452 1.144 3.596 3.596 3.596s15.86-0.6538 18.96-0.6538c3.106 0 3.76 1.471 3.923 4.577 0.1635 3.106-0.6538 5.394-3.596 5.394s-18.47-0.4904-23.21-0.4904-5.721 0.1635-5.884-3.269-0.9807-64.89-0.9807-69.8c0-4.904 0.8173-6.048 3.269-6.211 2.452-0.1635 18.96-0.3269 23.7-0.1635z"/><path d="m1023 608.9c5.067 0 5.067 0.3269 5.067 4.25 0 3.923 0 6.375-4.086 6.538-4.086 0.1635-14.71 0-17.65 0s-3.433 0.8173-3.596 3.923c-0.1634 3.106 0 12.91 0.1635 15.86 0.1635 2.942 0.6538 3.76 3.106 3.76s13.24-0.1635 16.67-0.1635 4.25 0.9808 4.413 4.577c0.1635 3.596-0.4903 4.577-3.269 4.577s-12.26-0.1635-15.86-0.1635-4.577 0.9808-4.74 3.923c-0.1634 2.942-0.1634 17.49 0 19.94 0.1635 2.452 1.144 3.596 3.596 3.596 2.452 0 15.86-0.6538 18.96-0.6538s3.76 1.471 3.923 4.577c0.1634 3.106-0.6539 5.394-3.596 5.394-2.942 0-18.47-0.4904-23.21-0.4904-4.74 0-5.721 0.1635-5.884-3.269s-0.9807-64.89-0.9807-69.8c0-4.904 0.8173-6.048 3.269-6.211 2.452-0.1635 18.96-0.3269 23.7-0.1635z"/><path d="m879.3 609.4c-1.026 0.014-1.885 0.0477-2.463 0.1055-2.312 0.2312-3.237 0.9259-3.121 5.434 0.1156 4.508 1.849 64.72 1.965 68.65 0.1156 3.93 1.387 4.623 3.236 4.623s2.658-0.8085 2.658-2.773c0-1.965-0.1152-24.85-0.1152-27.51 0-2.658 1.504-3.122 5.434-2.891s7.974 7.744 10.63 15.03c2.658 7.282 2.658 12.14 2.889 14.91 0.2312 2.774 1.273 3.699 3.469 3.699 2.196 0 3.699-0.6924 3.699-2.311s0.3451-3.93-0.1172-10.17c-0.4623-6.241-6.588-18.26-7.859-20.11s-0.8093-2.775 1.387-4.277c2.196-1.503 3.777-3.483 5.248-6.262 1.471-2.779 0.9815-13.4-0.3262-21.9-1.308-8.5-8.336-13.89-15.86-13.89-3.087-0.2503-7.681-0.3916-10.76-0.3496zm5.057 9.188c1.149-0.0163 2.363 0.0488 4.617 0.0488 3.005 0 4.854-0.3466 7.396 4.508 2.543 4.854 3.237 9.131 2.312 14.33-0.9246 5.201-5.663 7.745-7.859 7.977-2.196 0.2312-3.699 0.2308-5.779 0.1152-2.08-0.1156-2.889-0.1162-2.773-3.699-0.2312-3.583-0.6953-18.15-0.6953-20.34s9.9e-4 -2.775 1.619-2.891c0.4045-0.0289 0.7792-0.0434 1.162-0.0488z"/><path d="m913.8 610c3.187 0 3.827 0.3608 3.991 4.12 0.1635 3.76 1.26 41.5 1.26 45.01 0 3.722 0.6366 3.981 2.246 8.363 1.243 3.385 3.035 7.224 4.845 9.525 1.63 2.071 3.669 2.191 5.352-0.0875 2.193-2.968 4.057-7.726 4.864-9.965 1.116-3.097 1.342-4.715 1.178-9.373-0.1635-4.659-1.26-42.2-1.423-44.73s0.7356-2.942 3.433-2.942 2.861 0.6538 3.269 2.861c0.4086 2.207 1.437 48.75 1.356 51.86-0.0817 3.106-1.654 6.897-3.943 10.82-2.288 3.923-5.586 9.486-7.057 11.2-1.471 1.716-1.716 2.043-4.413 2.125-2.697 0.0817-3.76 0.1635-6.702-3.433-2.942-3.596-7.437-12.1-8.5-14.87-1.062-2.779-1.587-5.481-1.635-11.85-0.0271-3.6-1.308-40.13-1.389-43.97-0.0817-3.841 0.5721-4.577 3.269-4.659z"/><path d="m949.3 684.4c0.3075 4.151 0 4.854 3.699 4.854 3.699 0 4.161-0.3468 4.161-4.277 0-3.93-1.734-67.15-1.965-70.97-0.2312-3.814-0.9247-4.161-3.467-4.161s-3.583 0.5779-3.699 3.467c-0.1156 2.89 0.8848 65.86 1.271 71.08z"/><path d="m960.5 672.4c0.3468 8.669 5.432 17.11 16.76 16.76 11.33-0.3468 14.45-9.015 15.37-12.25 0.9246-3.236-0.3468-4.161-3.467-4.161-3.121 0-4.161 0.4623-4.508 3.005-0.3468 2.543-3.93 3.814-8.091 3.699s-7.975-1.849-8.553-6.935-1.387-40.11-1.04-44.73c0.3468-4.623 1.965-9.247 8.437-9.015 6.473 0.2312 7.628 1.04 8.322 3.352s1.734 3.699 4.739 3.699c3.005 0 4.854-1.387 3.93-4.392-0.9246-3.005-6.819-11.79-17.11-11.79-10.29 0-15.6 10.52-15.95 15.49-0.3467 4.97 0.8091 41.15 1.156 47.27z"/></g></g><g transform="matrix(.1928 .002257 0 .4496 1243 1267)"><path d="m247.9 121.4c-8.729-2.793-26.45-11.6-35.65-17.73-10.02-6.665-24.91-20.57-29.22-27.28-19.96-31.11-7.749-65.15 23.36-65.1 9.581 0.01542 17.8 4.792 23.84 13.85l1.57 2.357 1.598-3.091c2.232-4.316 7.843-9.703 12.84-12.33 6.044-3.174 19.15-3.164 26.17 0.02038 10.86 4.931 16.56 12.35 18.55 24.16 2.255 13.37-1.641 25.56-12.86 40.22-4.201 5.492-10.44 13.64-13.87 18.11-7.117 9.284-9.27 14.6-9.27 22.87 0 3.202-0.3375 5.798-0.75 5.768-0.4125-0.0296-3.254-0.8552-6.315-1.835z" fill="#e60813"/><path d="m345 137.3c0-0.55 1.485-1 3.3-1 3.499 0 5.7-1.476 5.7-3.822 0-1.127-0.3002-1.173-1.445-0.2232-0.7947 0.6596-2.482 1.052-3.75 0.8724-2.005-0.2842-2.294-0.8737-2.223-4.522 0.0452-2.308 0.653-4.883 1.35-5.724 1.627-1.961 7.882-3.167 9.263-1.786 1.46 1.46-0.655 12.95-2.826 15.35-1.795 1.983-9.37 2.675-9.37 0.8559zm8.737-7.25c0.54-0.6875 1.259-2.712 1.597-4.5 0.665-3.51-0.662-4.215-4.285-2.276-1.929 1.032-3.511 5.471-2.521 7.072 0.8415 1.362 4.05 1.179 5.208-0.296zm114.3 7.308c0-0.5184 1.909-1.081 4.241-1.25 2.951-0.214 4.335-0.7998 4.548-1.926 0.2418-1.276-0.4958-1.593-3.491-1.5-3.797 0.1183-3.798 0.1175-3.666-3.832 0.2012-6.031 6.649-10.57 11.05-7.771 1.656 1.053-1.156 14.3-3.391 15.97-1.941 1.454-9.287 1.697-9.287 0.3075zm8.872-7.403c0.6141-0.7399 1.4-2.765 1.747-4.5 0.5441-2.72 0.3482-3.155-1.423-3.155-2.923 0-5.196 2.657-5.196 6.071 0 2.198 0.4682 2.929 1.878 2.929 1.033 0 2.38-0.6054 2.994-1.345zm-198.8 1.595c0.0215-1.538 0.6992-5.058 2.503-13 0.281-1.238 1.16-2.25 1.953-2.25 1.348 0 1.839 1.263 4.263 10.96l0.8654 3.464 4.446-7.205c2.52-4.084 5.142-7.209 6.052-7.214 1.473-8e-3 1.471 0.67-0.0276 8.167-0.8989 4.497-2.142 8.345-2.762 8.552-1.098 0.3658-1.021-0.2957 1.241-10.73 0.3364-1.551-1.209 0.0858-4.071 4.312-2.537 3.747-5.133 6.639-5.767 6.428-0.6348-0.2116-1.876-3.277-2.757-6.812l-1.603-6.428-1.293 6.75c-0.7111 3.712-1.692 6.75-2.18 6.75s-0.8758-0.7875-0.8623-1.75zm23.22 0.5957c-2.783-2.783 8e-3 -10.19 4.24-11.25 5.547-1.392 8.45 3.026 5.659 8.613-1.326 2.656-2.324 3.351-5.149 3.589-1.927 0.1626-4.065-0.2649-4.75-0.95zm7.782-2.897c1.808-3.378 0.8486-6.448-2.014-6.448-2.717 0-5.632 4.447-4.629 7.061 0.8384 2.185 5.369 1.767 6.643-0.6123zm6.552-0.1984c-0.3716-2.338-0.9279-5.262-1.236-6.5-0.3961-1.59-0.1161-2.25 0.954-2.25 1.066 0 1.725 1.533 2.227 5.177l0.712 5.177 2.333-3.927c3.974-6.688 4.176-6.946 4.922-6.235 1.006 0.9594-6.334 12.81-7.935 12.81-0.7565 0-1.582-1.776-1.975-4.25zm10.42 2.799c0-3.214 2.225-11.55 3.083-11.55 1.194 0 1.157 1.783-0.1657 7.951-0.995 4.64-2.917 7.011-2.917 3.598zm5.485-0.7992c0.2878-1.238 0.8722-4.017 1.299-6.176 0.4264-2.16 1.396-4.133 2.155-4.386 0.9599-0.32 1.179 0.0636 0.7198 1.26-0.363 0.946-0.3222 1.555 0.0907 1.354 0.4129-0.2011 2-0.9915 3.528-1.756 4.059-2.033 5.127-0.4387 4.276 6.38-0.4962 3.971-1.127 5.575-2.192 5.575-0.9453 0-1.314-0.6438-1.003-1.75 2.125-7.546 1.622-9.947-1.805-8.632-1.962 0.7528-4.553 5.495-4.553 8.332 0 1.167-0.6544 2.05-1.519 2.05-1.064 0-1.362-0.6744-0.9957-2.25zm32.51 1.866c0-1.666 10.42-16.62 11.58-16.62 0.7595 0 1.66 1.238 2 2.75 1.046 4.646 2.512 10.66 3.046 12.5 0.3232 1.114-0.0367 1.75-0.99 1.75-0.8238 0-1.642-1.012-1.817-2.25-0.2288-1.611-1.101-2.34-3.07-2.566-3.447-0.3966-3.636-2.184-0.231-2.184 2.239 0 2.447-0.3062 1.871-2.75-1.107-4.696-1.815-4.404-5.926 2.447-3.384 5.639-6.464 8.936-6.464 6.92zm19.02-1.366c0.0215-1.538 0.6992-5.058 2.503-13 0.8645-3.807 2.773-2.661 2.043 1.227l-0.6523 3.477 3.007-1.726c2.727-1.565 3.152-1.58 4.57-0.1622 1.322 1.322 1.392 2.363 0.4514 6.749-1.438 6.704-3.375 6.935-2.461 0.293 0.4512-3.28 0.2929-5.127-0.4802-5.605-1.77-1.094-5.738 3.259-6.455 7.082-0.6602 3.519-2.569 4.778-2.526 1.665zm14.95 0.2183c-2.092-2.52 0.3428-8.942 3.957-10.44 3.953-1.637 7.069-0.5336 7.069 2.503 0 2.69-2.56 4.468-6.434 4.468-1.614 0-2.566 0.5564-2.566 1.5 0 1.566 0.9175 1.853 4.862 1.524 1.48-0.1234 2.112 0.2087 1.691 0.8893-1.005 1.626-7.124 1.309-8.58-0.4454zm8.58-6.555c1.017-1.645-1.089-3.195-3.361-2.474-1.105 0.3506-2.261 1.295-2.569 2.099-0.413 1.076 0.2068 1.462 2.349 1.462 1.6 0 3.212-0.4892 3.581-1.087zm4.092 7.399c-1.008-1.008-0.7591-4.968 0.4843-7.697 0.6214-1.364 2.413-3.011 3.981-3.66 3.415-1.414 8.302-0.4709 7.561 1.46-0.2808 0.7317-0.8141 3.355-1.185 5.83l-0.6747 4.499-4.76 0.1072c-2.618 0.059-5.051-0.1832-5.406-0.5381zm7.226-2.657c0.6141-0.7399 1.4-2.765 1.747-4.5 0.5441-2.72 0.3482-3.155-1.423-3.155-2.923 0-5.196 2.657-5.196 6.071 0 2.198 0.4682 2.929 1.878 2.929 1.033 0 2.38-0.6054 2.994-1.345zm6.795 2.679c-1.222-1.222-0.6866-6.86 0.8621-9.071 0.8457-1.207 3.137-2.484 5.129-2.858 2.308-0.433 3.775-1.344 4.088-2.54 0.6168-2.359 2.266-2.444 2.219-0.1145-0.0555 2.762-2.668 14.29-3.407 15.03-0.3669 0.3669-1.036 0.0696-1.488-0.6607-0.5744-0.9294-1.026-0.9958-1.505-0.221-0.746 1.207-4.828 1.512-5.899 0.4401zm8.19-5.606c1.663-4.382 1.212-5.213-2.346-4.32-4.681 1.175-5.905 9.077-1.303 8.412 1.509-0.2179 2.674-1.525 3.649-4.093zm14.62 4.022c3.136-13.81 3.14-13.52-0.2229-14.03-1.512-0.2291 0.4-0.4308 4.25-0.4481 4.439-0.02 5.903 0.2031 4 0.61-2.852 0.6098-3.07 1.023-4.423 8.382-0.9404 5.115-1.88 7.74-2.769 7.74-0.8805 0-1.169-0.778-0.835-2.25zm8.538 0.2705c-1.464-2.735-0.2726-6.67 2.736-9.036 6.529-5.136 12.41 1.731 7.18 8.381-2.622 3.333-8.283 3.707-9.916 0.6554zm8.803-4.891c0.3875-3.881-2.012-5.165-4.851-2.596-2.187 1.979-2.651 7.041-0.7128 7.77 2.254 0.8478 5.24-1.928 5.564-5.174zm18.9 6.251c-1.359-1.359-0.7063-7.168 1.036-9.227 3.687-4.357 11.33-3.141 9.839 1.565-0.6644 2.093-3.247 3.243-7.339 3.268-2.659 0.0161-2.95 1.523-0.5526 2.864 1.037 0.5805 2.626 0.5968 4.086 0.0418 1.777-0.6755 2.283-0.5859 1.975 0.3498-0.4493 1.366-7.881 2.302-9.045 1.138zm8.276-7.869c1.005-1.211 0.9098-1.613-0.5135-2.159-1.885-0.7232-4.614 0.5604-5.251 2.469-0.575 1.725 4.292 1.463 5.764-0.3096zm4.01 7.32c0-3.432 2.333-13.83 3.103-13.83 0.4935 0 0.8974 0.45 0.8974 1s0.675 1 1.5 1 1.5 0.45 1.5 1-0.6664 1-1.481 1c-1.371 0-1.918 1.286-2.767 6.5-0.1789 1.1 0.366 2.548 1.211 3.218 1.306 1.036 1.124 1.223-1.214 1.25-1.512 0.0175-2.75-0.4938-2.75-1.136zm7.694-2.082c1.933-9.756 2.936-13.13 4.009-13.48 0.8439-0.2813 1.022 0.6542 0.6088 3.2l-0.5838 3.597 3.093-1.775c4.416-2.535 5.62-0.9735 4.732 6.136-0.5052 4.043-1.118 5.575-2.232 5.575-0.9197 0-1.315-0.5728-0.9867-1.429 1.404-3.659 1.776-8.385 0.7114-9.043-2.208-1.365-5.999 2.326-6.665 6.489-0.377 2.358-1.187 3.983-1.984 3.983-0.9854 0-1.174-0.8729-0.7031-3.25zm14.82 1.281c-0.8309-2.618 0.2174-7.56 1.9-8.956 2.367-1.965 7.108-2.361 8.479-0.7092 2.739 3.3-0.5531 6.584-6.639 6.621-2.659 0.0161-2.95 1.523-0.5526 2.864 1.037 0.5805 2.626 0.5968 4.086 0.0418 1.777-0.6755 2.283-0.5859 1.975 0.3498-0.2275 0.6919-2.253 1.394-4.502 1.561-3.405 0.2527-4.198-0.0434-4.747-1.772zm8.48-6.519c1.005-1.211 0.9098-1.613-0.5135-2.159-1.885-0.7232-4.614 0.5604-5.251 2.469-0.575 1.725 4.292 1.463 5.764-0.3096zm4.01 7.037c0-3.214 2.225-11.55 3.083-11.55 0.5044 0 0.9171 0.6854 0.9171 1.523 0 1.333 0.3113 1.319 2.5-0.115 1.375-0.9009 2.5-1.209 2.5-0.6836 0 0.525-1.115 1.462-2.478 2.083-1.761 0.8026-2.807 2.439-3.619 5.661-1.079 4.287-2.904 6.222-2.904 3.081zm-202-14.55c0-0.55 0.45-1 1-1s1 0.45 1 1-0.45 1-1 1-1-0.45-1-1zm-303.7-13.55c-7.998-2.154-12.53-4.855-17.6-10.5-4.662-5.185-7.647-12.26-7.647-18.13v-2.818h19.84l1.204 3.75c2.372 7.387 8.564 11.27 19.19 12.03 12.76 0.916 20.76-3.583 20.76-11.67 0-7.166-6.211-10.76-28.65-16.56-15.98-4.132-21.14-6.402-25.28-11.12-6.055-6.896-7.898-22.93-3.613-31.44 2.975-5.904 9.502-11.83 15.51-14.09 11.72-4.399 31.34-4.21 41.35 0.3991 9.049 4.166 15.71 13.07 17.2 22.98l0.7077 4.719h-7.891c-8.704 0-11.32-1.131-13.83-5.982-2.144-4.145-6.589-6.916-13-8.1-11.51-2.128-20.85 2.246-22.17 10.38-0.5 3.081-0.1513 4.044 2.381 6.576 2.951 2.951 6.923 4.39 27.78 10.07 22.93 6.243 29.82 12.83 29.87 28.56 0.04913 17.1-8.818 27.74-26.17 31.39-7.242 1.523-23.57 1.288-29.95-0.4306zm91.75-4e-3c-16.21-4.496-27.62-17.65-31.6-36.45-1.899-8.956-1.374-26.83 1.007-34.3 5.166-16.2 16.6-27.66 31.61-31.71 2.462-0.6628 8.979-1.183 14.48-1.155 16.65 0.08287 28.35 4.958 36.43 15.17 2.245 2.84 4.082 5.561 4.082 6.047s-0.8695 2.808-1.932 5.16c-1.063 2.352-2.174 5.064-2.469 6.027-0.3727 1.216-1.538 1.736-3.818 1.705-4.951-0.06805-8.239-1.982-11.95-6.955-4.848-6.495-10.39-9-19.93-9-14.31 0-22.97 7.223-26.32 21.94-3.509 15.43-0.6591 30.86 7.277 39.4 3.964 4.267 9.858 6.866 16.84 7.427 11.81 0.9482 20.46-3.634 24.92-13.2 1.299-2.789 2.366-5.576 2.371-6.192 6e-3 -0.6943-2.942-1.295-7.74-1.577-4.262-0.2503-8.763-1.091-10-1.869-3.13-1.967-5.426-7.28-5.059-11.71l0.3089-3.725 31.21-0.5493 1.604 7.996c0.8821 4.398 3.198 11.45 5.147 15.67 3.428 7.419 3.544 8.057 3.544 19.53v11.86h-3.953c-2.174 0-5.077-0.5124-6.452-1.139-2.31-1.052-5.595-6.198-5.595-8.763 0-1.802-0.8974-1.285-4.099 2.361-1.671 1.903-5.589 4.708-8.707 6.234-4.873 2.384-7.075 2.809-15.68 3.028-6.629 0.1684-11.87-0.261-15.51-1.271zm282.2 0.057c-7.233-2.027-10.67-3.949-15.24-8.519-9.314-9.314-10.21-14.32-9.81-54.72l0.3212-32.23 2.753-2.752c2.413-2.412 3.672-2.799 10.19-3.128l7.439-0.3756 0.3076 36.36c0.2879 34.03 0.4353 36.61 2.308 40.29 3.421 6.732 6.23 8.065 17 8.065 10.49 0 13.25-1.232 17-7.605 1.886-3.201 2.018-5.499 2.306-40.15l0.3064-36.75h20.89v34.86c0 35.83-0.5416 42.49-4.046 49.73-2.982 6.159-10.52 13.09-16.94 15.57-7.253 2.807-26.86 3.563-34.79 1.342zm84.79-0.0478c-13.94-3.907-22.85-13.61-24.67-26.87l-0.6292-4.591h10.17c8.819 0 10.24 0.232 10.68 1.75 2.659 8.993 8.575 13.24 19.53 14.03 12.01 0.8595 20.09-2.977 21.16-10.05 1.188-7.85-5.901-12.36-28.61-18.21-13.58-3.496-20.32-6.131-24.02-9.381-3.327-2.925-6.705-11.01-7.311-17.49-0.899-9.628 1.523-16.63 7.994-23.1 6.048-6.048 11.45-8.274 23-9.487 16.9-1.774 32.01 2.519 38.73 11.01 3.665 4.627 6.949 12.64 6.949 16.95v2.989h-8.045c-8.743 0-8.801-0.0314-14.89-8.05-3.309-4.361-8.222-6.226-16.57-6.287-10.88-0.0802-16.5 3.871-16.5 11.61 0 2.832 0.6731 4.449 2.592 6.228 2.86 2.65 5.608 3.63 25.41 9.056 15.73 4.311 21.49 6.963 25.81 11.89 9.326 10.62 7.284 31.33-4.045 41.03-6.868 5.878-13.34 7.747-28.27 8.164-9.571 0.2676-14.44-0.0412-18.48-1.171zm-197-13.63 2e-3 -13.33 4.414-8.788c9.045-18.01 8.655-36.14-1.074-49.96-3.896-5.536-3.983-6.188-1.389-10.44 3.063-5.023 6.518-5.559 32.59-5.062 17.97 0.3427 24.09 0.807 28.22 2.141 12.59 4.074 19.07 15.95 16.15 29.59-0.9243 4.31-2.099 6.312-5.983 10.2l-4.833 4.833 2.777 1.436c11.13 5.757 15.14 21.37 9.093 35.42-2.77 6.439-8.02 11.23-15.59 14.24-5.596 2.22-7.296 2.35-35.13 2.7l-29.25 0.3674 2e-3 -13.33zm55.66-7.254c3.981-2.397 5.335-5.344 5.335-11.61 0-3.999-0.5341-5.535-2.81-8.083-2.486-2.783-3.611-3.217-9.75-3.766-3.817-0.3412-11.78-0.4788-17.69-0.306l-10.75 0.3143v26.08l16.25-0.3626c13.79-0.3076 16.73-0.6512 19.41-2.268zm-0.0759-44.88c3.49-4.062 3.407-11.41-0.1674-14.77-2.477-2.329-3.222-2.437-19-2.76l-16.42-0.3363v21.31l33.18-0.6346 2.411-2.806z" fill="#1c1c1a"/></g><g transform="matrix(.168 .003628 0 .2116 471.7 1283)"><path d="m247.9 121.4c-8.729-2.793-26.45-11.6-35.65-17.73-10.02-6.665-24.91-20.57-29.22-27.28-19.96-31.11-7.749-65.15 23.36-65.1 9.581 0.01542 17.8 4.792 23.84 13.85l1.57 2.357 1.598-3.091c2.232-4.316 7.843-9.703 12.84-12.33 6.044-3.174 19.15-3.164 26.17 0.02038 10.86 4.931 16.56 12.35 18.55 24.16 2.255 13.37-1.641 25.56-12.86 40.22-4.201 5.492-10.44 13.64-13.87 18.11-7.117 9.284-9.27 14.6-9.27 22.87 0 3.202-0.3375 5.798-0.75 5.768-0.4125-0.0296-3.254-0.8552-6.315-1.835z" fill="#e60813"/><path d="m345 137.3c0-0.55 1.485-1 3.3-1 3.499 0 5.7-1.476 5.7-3.822 0-1.127-0.3002-1.173-1.445-0.2232-0.7947 0.6596-2.482 1.052-3.75 0.8724-2.005-0.2842-2.294-0.8737-2.223-4.522 0.0452-2.308 0.653-4.883 1.35-5.724 1.627-1.961 7.882-3.167 9.263-1.786 1.46 1.46-0.655 12.95-2.826 15.35-1.795 1.983-9.37 2.675-9.37 0.8559zm8.737-7.25c0.54-0.6875 1.259-2.712 1.597-4.5 0.665-3.51-0.662-4.215-4.285-2.276-1.929 1.032-3.511 5.471-2.521 7.072 0.8415 1.362 4.05 1.179 5.208-0.296zm114.3 7.308c0-0.5184 1.909-1.081 4.241-1.25 2.951-0.214 4.335-0.7998 4.548-1.926 0.2418-1.276-0.4958-1.593-3.491-1.5-3.797 0.1183-3.798 0.1175-3.666-3.832 0.2012-6.031 6.649-10.57 11.05-7.771 1.656 1.053-1.156 14.3-3.391 15.97-1.941 1.454-9.287 1.697-9.287 0.3075zm8.872-7.403c0.6141-0.7399 1.4-2.765 1.747-4.5 0.5441-2.72 0.3482-3.155-1.423-3.155-2.923 0-5.196 2.657-5.196 6.071 0 2.198 0.4682 2.929 1.878 2.929 1.033 0 2.38-0.6054 2.994-1.345zm-198.8 1.595c0.0215-1.538 0.6992-5.058 2.503-13 0.281-1.238 1.16-2.25 1.953-2.25 1.348 0 1.839 1.263 4.263 10.96l0.8654 3.464 4.446-7.205c2.52-4.084 5.142-7.209 6.052-7.214 1.473-8e-3 1.471 0.67-0.0276 8.167-0.8989 4.497-2.142 8.345-2.762 8.552-1.098 0.3658-1.021-0.2957 1.241-10.73 0.3364-1.551-1.209 0.0858-4.071 4.312-2.537 3.747-5.133 6.639-5.767 6.428-0.6348-0.2116-1.876-3.277-2.757-6.812l-1.603-6.428-1.293 6.75c-0.7111 3.712-1.692 6.75-2.18 6.75s-0.8758-0.7875-0.8623-1.75zm23.22 0.5957c-2.783-2.783 8e-3 -10.19 4.24-11.25 5.547-1.392 8.45 3.026 5.659 8.613-1.326 2.656-2.324 3.351-5.149 3.589-1.927 0.1626-4.065-0.2649-4.75-0.95zm7.782-2.897c1.808-3.378 0.8486-6.448-2.014-6.448-2.717 0-5.632 4.447-4.629 7.061 0.8384 2.185 5.369 1.767 6.643-0.6123zm6.552-0.1984c-0.3716-2.338-0.9279-5.262-1.236-6.5-0.3961-1.59-0.1161-2.25 0.954-2.25 1.066 0 1.725 1.533 2.227 5.177l0.712 5.177 2.333-3.927c3.974-6.688 4.176-6.946 4.922-6.235 1.006 0.9594-6.334 12.81-7.935 12.81-0.7565 0-1.582-1.776-1.975-4.25zm10.42 2.799c0-3.214 2.225-11.55 3.083-11.55 1.194 0 1.157 1.783-0.1657 7.951-0.995 4.64-2.917 7.011-2.917 3.598zm5.485-0.7992c0.2878-1.238 0.8722-4.017 1.299-6.176 0.4264-2.16 1.396-4.133 2.155-4.386 0.9599-0.32 1.179 0.0636 0.7198 1.26-0.363 0.946-0.3222 1.555 0.0907 1.354 0.4129-0.2011 2-0.9915 3.528-1.756 4.059-2.033 5.127-0.4387 4.276 6.38-0.4962 3.971-1.127 5.575-2.192 5.575-0.9453 0-1.314-0.6438-1.003-1.75 2.125-7.546 1.622-9.947-1.805-8.632-1.962 0.7528-4.553 5.495-4.553 8.332 0 1.167-0.6544 2.05-1.519 2.05-1.064 0-1.362-0.6744-0.9957-2.25zm32.51 1.866c0-1.666 10.42-16.62 11.58-16.62 0.7595 0 1.66 1.238 2 2.75 1.046 4.646 2.512 10.66 3.046 12.5 0.3232 1.114-0.0367 1.75-0.99 1.75-0.8238 0-1.642-1.012-1.817-2.25-0.2288-1.611-1.101-2.34-3.07-2.566-3.447-0.3966-3.636-2.184-0.231-2.184 2.239 0 2.447-0.3062 1.871-2.75-1.107-4.696-1.815-4.404-5.926 2.447-3.384 5.639-6.464 8.936-6.464 6.92zm19.02-1.366c0.0215-1.538 0.6992-5.058 2.503-13 0.8645-3.807 2.773-2.661 2.043 1.227l-0.6523 3.477 3.007-1.726c2.727-1.565 3.152-1.58 4.57-0.1622 1.322 1.322 1.392 2.363 0.4514 6.749-1.438 6.704-3.375 6.935-2.461 0.293 0.4512-3.28 0.2929-5.127-0.4802-5.605-1.77-1.094-5.738 3.259-6.455 7.082-0.6602 3.519-2.569 4.778-2.526 1.665zm14.95 0.2183c-2.092-2.52 0.3428-8.942 3.957-10.44 3.953-1.637 7.069-0.5336 7.069 2.503 0 2.69-2.56 4.468-6.434 4.468-1.614 0-2.566 0.5564-2.566 1.5 0 1.566 0.9175 1.853 4.862 1.524 1.48-0.1234 2.112 0.2087 1.691 0.8893-1.005 1.626-7.124 1.309-8.58-0.4454zm8.58-6.555c1.017-1.645-1.089-3.195-3.361-2.474-1.105 0.3506-2.261 1.295-2.569 2.099-0.413 1.076 0.2068 1.462 2.349 1.462 1.6 0 3.212-0.4892 3.581-1.087zm4.092 7.399c-1.008-1.008-0.7591-4.968 0.4843-7.697 0.6214-1.364 2.413-3.011 3.981-3.66 3.415-1.414 8.302-0.4709 7.561 1.46-0.2808 0.7317-0.8141 3.355-1.185 5.83l-0.6747 4.499-4.76 0.1072c-2.618 0.059-5.051-0.1832-5.406-0.5381zm7.226-2.657c0.6141-0.7399 1.4-2.765 1.747-4.5 0.5441-2.72 0.3482-3.155-1.423-3.155-2.923 0-5.196 2.657-5.196 6.071 0 2.198 0.4682 2.929 1.878 2.929 1.033 0 2.38-0.6054 2.994-1.345zm6.795 2.679c-1.222-1.222-0.6866-6.86 0.8621-9.071 0.8457-1.207 3.137-2.484 5.129-2.858 2.308-0.433 3.775-1.344 4.088-2.54 0.6168-2.359 2.266-2.444 2.219-0.1145-0.0555 2.762-2.668 14.29-3.407 15.03-0.3669 0.3669-1.036 0.0696-1.488-0.6607-0.5744-0.9294-1.026-0.9958-1.505-0.221-0.746 1.207-4.828 1.512-5.899 0.4401zm8.19-5.606c1.663-4.382 1.212-5.213-2.346-4.32-4.681 1.175-5.905 9.077-1.303 8.412 1.509-0.2179 2.674-1.525 3.649-4.093zm14.62 4.022c3.136-13.81 3.14-13.52-0.2229-14.03-1.512-0.2291 0.4-0.4308 4.25-0.4481 4.439-0.02 5.903 0.2031 4 0.61-2.852 0.6098-3.07 1.023-4.423 8.382-0.9404 5.115-1.88 7.74-2.769 7.74-0.8805 0-1.169-0.778-0.835-2.25zm8.538 0.2705c-1.464-2.735-0.2726-6.67 2.736-9.036 6.529-5.136 12.41 1.731 7.18 8.381-2.622 3.333-8.283 3.707-9.916 0.6554zm8.803-4.891c0.3875-3.881-2.012-5.165-4.851-2.596-2.187 1.979-2.651 7.041-0.7128 7.77 2.254 0.8478 5.24-1.928 5.564-5.174zm18.9 6.251c-1.359-1.359-0.7063-7.168 1.036-9.227 3.687-4.357 11.33-3.141 9.839 1.565-0.6644 2.093-3.247 3.243-7.339 3.268-2.659 0.0161-2.95 1.523-0.5526 2.864 1.037 0.5805 2.626 0.5968 4.086 0.0418 1.777-0.6755 2.283-0.5859 1.975 0.3498-0.4493 1.366-7.881 2.302-9.045 1.138zm8.276-7.869c1.005-1.211 0.9098-1.613-0.5135-2.159-1.885-0.7232-4.614 0.5604-5.251 2.469-0.575 1.725 4.292 1.463 5.764-0.3096zm4.01 7.32c0-3.432 2.333-13.83 3.103-13.83 0.4935 0 0.8974 0.45 0.8974 1s0.675 1 1.5 1 1.5 0.45 1.5 1-0.6664 1-1.481 1c-1.371 0-1.918 1.286-2.767 6.5-0.1789 1.1 0.366 2.548 1.211 3.218 1.306 1.036 1.124 1.223-1.214 1.25-1.512 0.0175-2.75-0.4938-2.75-1.136zm7.694-2.082c1.933-9.756 2.936-13.13 4.009-13.48 0.8439-0.2813 1.022 0.6542 0.6088 3.2l-0.5838 3.597 3.093-1.775c4.416-2.535 5.62-0.9735 4.732 6.136-0.5052 4.043-1.118 5.575-2.232 5.575-0.9197 0-1.315-0.5728-0.9867-1.429 1.404-3.659 1.776-8.385 0.7114-9.043-2.208-1.365-5.999 2.326-6.665 6.489-0.377 2.358-1.187 3.983-1.984 3.983-0.9854 0-1.174-0.8729-0.7031-3.25zm14.82 1.281c-0.8309-2.618 0.2174-7.56 1.9-8.956 2.367-1.965 7.108-2.361 8.479-0.7092 2.739 3.3-0.5531 6.584-6.639 6.621-2.659 0.0161-2.95 1.523-0.5526 2.864 1.037 0.5805 2.626 0.5968 4.086 0.0418 1.777-0.6755 2.283-0.5859 1.975 0.3498-0.2275 0.6919-2.253 1.394-4.502 1.561-3.405 0.2527-4.198-0.0434-4.747-1.772zm8.48-6.519c1.005-1.211 0.9098-1.613-0.5135-2.159-1.885-0.7232-4.614 0.5604-5.251 2.469-0.575 1.725 4.292 1.463 5.764-0.3096zm4.01 7.037c0-3.214 2.225-11.55 3.083-11.55 0.5044 0 0.9171 0.6854 0.9171 1.523 0 1.333 0.3113 1.319 2.5-0.115 1.375-0.9009 2.5-1.209 2.5-0.6836 0 0.525-1.115 1.462-2.478 2.083-1.761 0.8026-2.807 2.439-3.619 5.661-1.079 4.287-2.904 6.222-2.904 3.081zm-202-14.55c0-0.55 0.45-1 1-1s1 0.45 1 1-0.45 1-1 1-1-0.45-1-1zm-303.7-13.55c-7.998-2.154-12.53-4.855-17.6-10.5-4.662-5.185-7.647-12.26-7.647-18.13v-2.818h19.84l1.204 3.75c2.372 7.387 8.564 11.27 19.19 12.03 12.76 0.916 20.76-3.583 20.76-11.67 0-7.166-6.211-10.76-28.65-16.56-15.98-4.132-21.14-6.402-25.28-11.12-6.055-6.896-7.898-22.93-3.613-31.44 2.975-5.904 9.502-11.83 15.51-14.09 11.72-4.399 31.34-4.21 41.35 0.3991 9.049 4.166 15.71 13.07 17.2 22.98l0.7077 4.719h-7.891c-8.704 0-11.32-1.131-13.83-5.982-2.144-4.145-6.589-6.916-13-8.1-11.51-2.128-20.85 2.246-22.17 10.38-0.5 3.081-0.1513 4.044 2.381 6.576 2.951 2.951 6.923 4.39 27.78 10.07 22.93 6.243 29.82 12.83 29.87 28.56 0.04913 17.1-8.818 27.74-26.17 31.39-7.242 1.523-23.57 1.288-29.95-0.4306zm91.75-4e-3c-16.21-4.496-27.62-17.65-31.6-36.45-1.899-8.956-1.374-26.83 1.007-34.3 5.166-16.2 16.6-27.66 31.61-31.71 2.462-0.6628 8.979-1.183 14.48-1.155 16.65 0.08287 28.35 4.958 36.43 15.17 2.245 2.84 4.082 5.561 4.082 6.047s-0.8695 2.808-1.932 5.16c-1.063 2.352-2.174 5.064-2.469 6.027-0.3727 1.216-1.538 1.736-3.818 1.705-4.951-0.06805-8.239-1.982-11.95-6.955-4.848-6.495-10.39-9-19.93-9-14.31 0-22.97 7.223-26.32 21.94-3.509 15.43-0.6591 30.86 7.277 39.4 3.964 4.267 9.858 6.866 16.84 7.427 11.81 0.9482 20.46-3.634 24.92-13.2 1.299-2.789 2.366-5.576 2.371-6.192 6e-3 -0.6943-2.942-1.295-7.74-1.577-4.262-0.2503-8.763-1.091-10-1.869-3.13-1.967-5.426-7.28-5.059-11.71l0.3089-3.725 31.21-0.5493 1.604 7.996c0.8821 4.398 3.198 11.45 5.147 15.67 3.428 7.419 3.544 8.057 3.544 19.53v11.86h-3.953c-2.174 0-5.077-0.5124-6.452-1.139-2.31-1.052-5.595-6.198-5.595-8.763 0-1.802-0.8974-1.285-4.099 2.361-1.671 1.903-5.589 4.708-8.707 6.234-4.873 2.384-7.075 2.809-15.68 3.028-6.629 0.1684-11.87-0.261-15.51-1.271zm282.2 0.057c-7.233-2.027-10.67-3.949-15.24-8.519-9.314-9.314-10.21-14.32-9.81-54.72l0.3212-32.23 2.753-2.752c2.413-2.412 3.672-2.799 10.19-3.128l7.439-0.3756 0.3076 36.36c0.2879 34.03 0.4353 36.61 2.308 40.29 3.421 6.732 6.23 8.065 17 8.065 10.49 0 13.25-1.232 17-7.605 1.886-3.201 2.018-5.499 2.306-40.15l0.3064-36.75h20.89v34.86c0 35.83-0.5416 42.49-4.046 49.73-2.982 6.159-10.52 13.09-16.94 15.57-7.253 2.807-26.86 3.563-34.79 1.342zm84.79-0.0478c-13.94-3.907-22.85-13.61-24.67-26.87l-0.6292-4.591h10.17c8.819 0 10.24 0.232 10.68 1.75 2.659 8.993 8.575 13.24 19.53 14.03 12.01 0.8595 20.09-2.977 21.16-10.05 1.188-7.85-5.901-12.36-28.61-18.21-13.58-3.496-20.32-6.131-24.02-9.381-3.327-2.925-6.705-11.01-7.311-17.49-0.899-9.628 1.523-16.63 7.994-23.1 6.048-6.048 11.45-8.274 23-9.487 16.9-1.774 32.01 2.519 38.73 11.01 3.665 4.627 6.949 12.64 6.949 16.95v2.989h-8.045c-8.743 0-8.801-0.0314-14.89-8.05-3.309-4.361-8.222-6.226-16.57-6.287-10.88-0.0802-16.5 3.871-16.5 11.61 0 2.832 0.6731 4.449 2.592 6.228 2.86 2.65 5.608 3.63 25.41 9.056 15.73 4.311 21.49 6.963 25.81 11.89 9.326 10.62 7.284 31.33-4.045 41.03-6.868 5.878-13.34 7.747-28.27 8.164-9.571 0.2676-14.44-0.0412-18.48-1.171zm-197-13.63 2e-3 -13.33 4.414-8.788c9.045-18.01 8.655-36.14-1.074-49.96-3.896-5.536-3.983-6.188-1.389-10.44 3.063-5.023 6.518-5.559 32.59-5.062 17.97 0.3427 24.09 0.807 28.22 2.141 12.59 4.074 19.07 15.95 16.15 29.59-0.9243 4.31-2.099 6.312-5.983 10.2l-4.833 4.833 2.777 1.436c11.13 5.757 15.14 21.37 9.093 35.42-2.77 6.439-8.02 11.23-15.59 14.24-5.596 2.22-7.296 2.35-35.13 2.7l-29.25 0.3674 2e-3 -13.33zm55.66-7.254c3.981-2.397 5.335-5.344 5.335-11.61 0-3.999-0.5341-5.535-2.81-8.083-2.486-2.783-3.611-3.217-9.75-3.766-3.817-0.3412-11.78-0.4788-17.69-0.306l-10.75 0.3143v26.08l16.25-0.3626c13.79-0.3076 16.73-0.6512 19.41-2.268zm-0.0759-44.88c3.49-4.062 3.407-11.41-0.1674-14.77-2.477-2.329-3.222-2.437-19-2.76l-16.42-0.3363v21.31l33.18-0.6346 2.411-2.806z" fill="#f1f1f0"/></g><g><path d="m1354 1286c5.186 0.1525 6.863-7.778 7.168-13.57 0.305-5.796-1.22-11.59-5.643-12.2-4.423-0.61-8.084 4.118-7.931 12.2 0.1525 8.084 1.983 13.12 6.406 13.57z" fill="#318493"/><path d="m1356 1280c2.363 0.089 3.127-4.526 3.266-7.898 0.139-3.372-0.556-6.744-2.572-7.099-2.015-0.3549-3.683 2.396-3.614 7.099 0.07 4.703 0.9034 7.632 2.919 7.898z" fill="#e0e0e0"/><path d="m1086 1274c11.13-0.1525 11.44-3.356 11.13-8.389-0.305-5.033-0.7626-7.778-8.541-8.084-7.778-0.305-10.07 3.356-10.07 7.474s1.525 8.694 7.474 8.999z" fill="#d48f16"/><path d="m1667 1291c5.186 0.1525 6.863-7.778 7.168-13.57 0.305-5.796-1.22-11.59-5.643-12.2-4.423-0.61-8.084 4.118-7.931 12.2 0.1525 8.084 1.983 13.12 6.406 13.57z" fill="#318493"/><path d="m1669 1284c2.363 0.089 3.127-4.526 3.266-7.898 0.139-3.372-0.556-6.744-2.572-7.099-2.015-0.3549-3.683 2.396-3.614 7.099 0.07 4.703 0.9034 7.632 2.919 7.898z" fill="#e0e0e0"/><path d="m1793 1391c-20.71 0.8627-31.92 31.92-33.65 75.06-1.726 43.14 12.51 78.51 30.63 78.94 18.12 0.4313 31.06-39.69 31.49-79.38s-15.1-74.2-28.47-74.63z" fill="#878787"/><path d="m1772 1405c-7.935 13.26-12.43 34.86-13.47 60.86-1.175 29.38 5.058 55.15 14.88 68.74 12.22-10.3 22.24-44.13 21.98-70.69-0.2628-27.32-7.998-51.23-23.39-58.91z" fill="#545454"/><path d="m1763 1433c-1.948 9.734-3.173 20.77-3.652 32.77-0.5396 13.49 0.4975 26.2 2.711 37.34 3.535-8.561 5.964-25.01 6.133-31.94 0.1949-7.99-0.8537-25.47-5.191-38.16z" fill="#676767"/><path d="m1764 1426c-0.6967 2.699-1.333 5.515-1.898 8.459 4.202-1.012 5.509-4.794 1.898-8.459zm-4.953 33.37c-0.1436 2.202-0.2704 4.427-0.3613 6.699-0.062 1.551-0.092 3.086-0.1133 4.615-0.01 1.157-0.011 2.309-0.01 3.455 7e-4 0.1146 0 0.2293 0 0.3437 17.03-0.2401 12.81-11.22 0.4785-15.11zm1.762 40.88c0.703 4.04 1.556 7.89 2.549 11.52 4.826-2.447 2.281-8.858-2.549-11.52z" fill="#171717"/><g transform="matrix(.2323 -.01007 .01654 .5735 679.2 -298.4)" fill="#e97719"><path d="m1745 2147c-4.803 0.1785-7.71 3.226-8.721 9.494-1.078 6.687-1.079 17.26-0.8633 21.35 0.2157 4.098 4.96 9.705 9.059 9.705 7.765 0.2157 9.923-4.745 10.14-9.49 0.2156-4.745 0.863-14.02 0.4316-19.63-0.4314-5.608-3.668-11.22-9.061-11.43-0.337-0.014-0.6642-0.014-0.9843 0zm-0.066 6.211c0.2931-0.015 0.6099 0 0.9531 0.035 2.745 0.305 4.117 2.593 3.965 6.711-0.1525 4.118-0.609 13.27-0.914 16.62-0.3051 3.356-1.831 5.034-4.424 4.576-2.593-0.4575-3.965-1.067-3.965-5.795-0.1525-3.203 0.304-13.73 0.9141-17.39 0.5338-3.203 1.419-4.653 3.471-4.762z"/><path d="m1759 2182c0 4.576 0.1525 5.491 2.44 5.491s2.745-1.983 2.745-5.338v-9.456c0-2.288 1.22-2.44 5.186-2.288s5.186-0.6101 5.033-3.05-1.525-3.203-5.796-3.05c-4.271 0.1525-3.966-0.4576-4.118-2.593-0.1525-2.135 0-4.118 0.3051-5.796 0.305-1.678 1.22-2.288 4.27-2.288s6.101 0 7.931-0.1525c1.83-0.1525 2.44-2.135 2.288-3.66-0.1526-1.525-1.525-2.288-5.033-2.44s-8.694-0.305-10.98-0.1525-3.66 0.4575-3.813 3.813c-0.1525 3.355-0.1525 25.93-0.4576 30.96z"/><path d="m1782 2184c0 4.576 0.1525 5.491 2.44 5.491s2.745-1.983 2.745-5.338v-9.456c0-2.288 1.22-2.44 5.186-2.288s5.186-0.6101 5.033-3.05-1.525-3.203-5.796-3.05c-4.271 0.1525-3.966-0.4576-4.118-2.593-0.1525-2.135 0-4.118 0.3051-5.796 0.305-1.678 1.22-2.288 4.27-2.288s6.101 0 7.931-0.1525c1.83-0.1525 2.44-2.135 2.288-3.66-0.1526-1.525-1.525-2.288-5.033-2.44s-8.694-0.305-10.98-0.1525-3.66 0.4575-3.813 3.813c-0.1525 3.355-0.1525 25.93-0.4576 30.96z"/><path d="m1706 2207c6.253 0 9.304 5.948 9.304 8.541s-0.6101 4.27-2.44 4.118c-1.83-0.1525-2.745-0.9151-2.745-3.203s-1.525-3.66-4.423-3.508c-2.898 0.1525-4.576 1.22-4.881 5.948-0.3051 4.728 1.678 5.338 4.423 5.491 2.745 0.1526 9.456 2.288 9.456 10.83 0 8.541-4.118 13.73-10.07 13.42-5.948-0.305-9.456-5.338-9.456-8.999 0-3.66 0.6101-4.576 2.44-4.27 1.83 0.305 3.355 1.068 3.203 2.745s0.4575 3.356 3.05 3.66c2.593 0.305 5.796-0.4576 5.796-5.186s-0.7626-5.948-4.881-6.101c-4.118-0.1525-9.151-3.203-8.999-12.51s5.643-10.83 10.22-10.98z"/><path d="m1734 2208c4.118 0 5.033 0.4576 5.033 3.203 0 2.745-1.068 3.508-4.423 3.508-3.355 0-4.27-0.305-7.321-0.1525s-2.898 1.068-3.203 4.881c-0.3051 3.813 0.9151 5.338 3.355 5.491 2.44 0.1526 6.711 0.1526 6.711 2.898 0 2.745-1.373 3.203-5.033 3.203s-4.423-0.305-4.728 4.118c-0.305 4.423-0.6101 7.778 2.44 7.931s5.338-0.1525 7.931 0c2.593 0.1525 2.593 1.068 2.593 2.44s-0.6101 2.44-4.271 2.593c-3.66 0.1525-7.168 0-10.83-0.1526-3.66-0.1525-3.813-1.678-3.966-3.66-0.1525-1.983 0.9151-25.78 1.22-30.35 0.305-4.576 0.9151-5.796 3.203-5.948 2.288-0.1525 7.626-0.1525 11.29 0z"/><path d="m1837 2212c4.118 0 5.033 0.4576 5.033 3.203 0 2.745-1.068 3.508-4.423 3.508-3.355 0-4.27-0.305-7.321-0.1525s-2.898 1.068-3.203 4.881c-0.3051 3.813 0.9151 5.338 3.355 5.491 2.44 0.1526 6.711 0.1526 6.711 2.898 0 2.745-1.373 3.203-5.033 3.203s-4.423-0.305-4.728 4.118c-0.305 4.423-0.6101 7.778 2.44 7.931s5.338-0.1525 7.931 0c2.593 0.1525 2.593 1.068 2.593 2.44s-0.6101 2.44-4.271 2.593c-3.66 0.1525-7.168 0-10.83-0.1526-3.66-0.1525-3.813-1.678-3.966-3.66-0.1525-1.983 0.9151-25.78 1.22-30.35 0.305-4.576 0.9151-5.796 3.203-5.948 2.288-0.1525 7.626-0.1525 11.29 0z"/><path d="m1746 2208c-2.049 0-2.913 2.05-3.129 5.824s-1.4 27.28-1.4 30.3c0 3.02 0.2146 4.854 2.264 4.854s2.697-2.049 2.805-6.471c0.1079-4.422 2.049-4.637 3.559-2.156s4.746 7.44 6.902 8.734c2.157 1.294 4.207-1.509 2.805-4.205s-3.884-4.53-6.041-7.334c-2.157-2.804-1.832-4.746 2.051-6.795s6.146-6.04 6.146-12.29c0-6.255-2.696-10.03-8.52-10.24-3.236-0.2157-5.392-0.2168-7.441-0.2168zm5.512 6.059c0.4164 0 0.8783 0.036 1.391 0.09 4.098 0.4314 3.881 1.51 3.881 5.392 0 3.882-0.8627 7.333-4.961 7.117-4.098-0.2157-4.529-1.617-4.205-8.088 0.283-3.303 0.9795-4.543 3.894-4.512z"/><path d="m1769 2209c2.48 0.2157 3.128 0.6471 3.02 4.098-0.1079 3.451-0.4314 23.94-0.4314 26.42s1.078 4.206 3.775 4.422 4.422-0.9706 4.53-3.775c0.1079-2.804 0.4314-22.11 0.755-25.88 0.3235-3.775 0.9706-4.853 2.696-4.745 1.726 0.1078 1.833 1.294 1.833 3.882 0 2.588-0.3236 24.91-0.3236 27.61s-4.422 8.52-9.383 8.304-8.951-5.284-9.059-10.68c-0.1079-5.392 0.2157-19.3 0.3235-23.4 0.1079-4.098 0.2157-5.824 2.265-6.255z"/><path d="m1793 2210c1.726 0.3235 2.265 0.7549 2.157 5.284-0.1078 4.53-0.9705 28.26-1.078 31.28-0.1078 3.02-1.186 3.775-2.588 3.99s-2.265-1.294-2.48-4.206 0.5393-27.18 0.8628-31.06 1.402-5.284 3.128-5.284z"/><path d="m1809 2210c5.824 0 8.736 6.902 8.736 9.383s-0.9707 3.128-3.02 3.235c-2.049 0.1079-2.265-1.726-2.373-2.912-0.1079-1.186-0.6471-3.775-3.882-3.882-3.236-0.1078-4.638 1.618-4.745 5.177-0.1079 3.559-0.4314 15.31-0.4314 18.98 0 3.667 0.9706 5.5 3.667 5.608 2.696 0.1079 4.853-0.2157 5.069-3.128s0.4314-3.99 2.373-4.098c1.941-0.1078 2.48 2.157 2.265 4.53-0.2157 2.373-3.559 8.196-9.922 7.873-6.363-0.3235-8.412-6.147-9.059-9.922s-0.2157-17.15 1.078-22.32c1.294-5.177 6.039-8.412 10.25-8.52z"/></g><path d="m896.1 850.7c7.087 0.1817 7.087 0.9086 7.087 4.361 0 3.453-2.362 3.453-6.36 3.453s-9.449-0.1817-13.45 0-5.452 3.453-7.632 6.179c-2.181 2.726-11.63 15.45-13.81 19.63s-0.9086 4.906 3.634 5.088c4.543 0.1817 27.44-0.5452 31.44-0.7269 3.998-0.1817 4.543 0.5452 4.725 3.089 0.1817 2.544-0.7269 3.453-4.543 3.816s-51.79 0.3634-56.88 0.7269c-5.088 0.3634-7.269 1.635-7.814 6.905-0.5452 5.27-1.09 26.17-1.635 31.07-0.5452 4.906-7.269 1.635-7.451-5.452-0.1817-7.087 0.5452-20.17 1.272-24.71 0.7269-4.543-1.454-6.905-6.905-7.269-5.452-0.3634-8.723-2.726-14.36-2.726s-10.36-0.3634-15.08 0c-4.725 0.3634-7.814 1.454-10.36 7.996-2.544 6.542-23.08 64.15-24.9 67.78s-8.359 4.725-3.453-7.996 21.99-59.06 24.53-64.87c2.544-5.815 7.632-9.086 15.63-9.268 7.996-0.1817 13.81 0.5452 18.9 0.3634 5.088-0.1817 7.269-3.089 11.81-3.271s10.54 0.1817 13.99 0.1817c3.453 0 3.816 2.726 8.359 2.908s6.179-0.5452 11.27-7.269c5.088-6.724 16.54-21.44 21.44-25.44 4.906-3.998 8.359-4.725 20.53-4.543z" fill="#0d0d0d"/><path d="m855.4 929.3c8.348 0.5673 10.72 5.27 10.9 10.54 0.1817 5.27-2.544 82.14-3.089 88.68-0.5452 6.542-3.453 9.086-9.086 9.449-5.633 0.3635-27.8 0.9087-37.8-0.5451-9.995-1.454-12.9-1.817-13.45-11.63-0.5452-9.813 4.543-73.96 5.452-83.41 0.9086-9.449 4.361-13.27 13.08-13.81 8.723-0.5452 23.61 0.0219 33.98 0.7269z" fill="#161616"/><path d="m776.3 974.8c10.9 3.634 9.268 10.36 7.632 15.63-1.635 5.27-7.087 12.72-17.26 16.17-10.18 3.453-22.17 0.9086-36.16-2.908-13.99-3.816-24.53-13.81-24.17-23.99 0.3634-10.18 4.18-20.35 15.08-18.72s44.7 9.449 54.88 13.81z" fill="#181818"/></g></g></svg>
